<svg width="32" height="33" viewBox="0 0 32 33" fill="none" xmlns="http://www.w3.org/2000/svg">
<g id="24">
<path id="Union" fill-rule="evenodd" clip-rule="evenodd" d="M12.67 10.2497C11.8425 10.2105 11.2035 9.50798 11.2426 8.68048C11.2818 7.85298 11.9843 7.2139 12.8119 7.25306L24.0375 7.7843C24.136 7.78896 24.2324 7.80063 24.3263 7.8188C24.8127 7.76008 25.3181 7.94051 25.6566 8.34381C25.9947 8.74677 26.0847 9.27533 25.943 9.74384C25.9446 9.83997 25.9394 9.93748 25.9268 10.0359L24.5007 21.1832C24.3955 22.005 23.6442 22.5859 22.8224 22.4808C22.0007 22.3756 21.4198 21.6243 21.5249 20.8025L22.533 12.9229L9.14966 24.1528C8.51505 24.6854 7.56892 24.6026 7.03641 23.968C6.50391 23.3334 6.58669 22.3872 7.2213 21.8547L20.6041 10.6252L12.67 10.2497Z" fill="url(#paint0_linear_534_33187)"/>
</g>
<defs>
<linearGradient id="paint0_linear_534_33187" x1="10.2466" y1="8.88629" x2="22.4468" y2="23.4259" gradientUnits="userSpaceOnUse">
<stop stop-color="#9FAEEA"/>
<stop offset="1" stop-color="#8A99EA"/>
</linearGradient>
</defs>
</svg>
