<svg width="32" height="33" viewBox="0 0 32 33" fill="none" xmlns="http://www.w3.org/2000/svg">
<path fill-rule="evenodd" clip-rule="evenodd" d="M12.6722 10.2497C12.2747 10.2308 11.9011 10.0549 11.6334 9.76055C11.3656 9.46622 11.2258 9.07759 11.2447 8.68016C11.2635 8.28273 11.4394 7.90906 11.7338 7.64136C12.0281 7.37365 12.4167 7.23383 12.8142 7.25266L24.0402 7.78366C24.1382 7.78866 24.2342 7.80066 24.3282 7.81866C24.5761 7.78813 24.8277 7.82005 25.0601 7.91149C25.2926 8.00294 25.4985 8.15102 25.6591 8.34228C25.8198 8.53354 25.9301 8.76192 25.9801 9.00666C26.03 9.2514 26.018 9.50474 25.9452 9.74366C25.9472 9.83966 25.9412 9.93666 25.9292 10.0357L24.5022 21.1827C24.4772 21.3781 24.414 21.5666 24.3162 21.7376C24.2183 21.9086 24.0878 22.0587 23.932 22.1792C23.7762 22.2997 23.5981 22.3884 23.4081 22.4401C23.218 22.4918 23.0196 22.5056 22.8242 22.4807C22.6288 22.4557 22.4402 22.3925 22.2692 22.2947C22.0982 22.1969 21.9482 22.0663 21.8276 21.9105C21.7071 21.7547 21.6184 21.5766 21.5667 21.3866C21.515 21.1965 21.5012 20.9981 21.5262 20.8027L22.5342 12.9227L9.15216 24.1527C8.84742 24.4085 8.45355 24.5327 8.0572 24.4981C7.66084 24.4635 7.29446 24.2729 7.03866 23.9682C6.78286 23.6634 6.65859 23.2696 6.69319 22.8732C6.72779 22.4768 6.91842 22.1105 7.22316 21.8547L20.6062 10.6247L12.6722 10.2497Z" fill="#E30613"/>
</svg>
