<svg width="64" height="24" viewBox="0 0 64 24" fill="none" xmlns="http://www.w3.org/2000/svg"><path d="M21.07 17.22v-.362c.527-.073.737-.23.837-.868V8.144c.031-.68-.179-.83-.907-.94V6.77h2.651l1.744 6.725 1.64-6.761h2.651v.434h-.244c-.433 0-.573.137-.628.65v8.064c.026.655.174.94.907.94v.398h-3.349v-.434h.384c.349 0 .488-.253.488-.796V8.614l-2.163 8.606h-.314l-2.302-8.714v7.34c.07.662.24.909.942.976v.398H21.07Zm9.558-7.63V6.698h5.686v2.856h-.453v-.578c.034-.904-.489-1.664-.977-1.664h-.593v8.823l.593.615h.244v.434h-3.314v-.434h.279l.593-.615V7.312h-.453c-.698 0-1.112.559-1.186 1.591v.687h-.42Z" fill="#fff"/><path fill-rule="evenodd" clip-rule="evenodd" d="M37.22 6.698h5.199v2.82h-.384c-.047-1.614-.27-2.164-1.186-2.206h-1.256v2.531h.698c2.105.202 2.644.903 2.79 2.893v1.483c-.14 2.205-1.325 2.929-2.267 2.929h-3.523v-.398c.508-.038.802-.217.802-.687V8.108c0-.579-.174-.977-.628-.977h-.244v-.433Zm2.373 3.724v5.46c.014.353.064.527.419.687h.209c.628-.109 1.22-1.121 1.22-2.206v-1.482c0-1.483-.44-2.474-1.848-2.46Zm5.547.723v-.361c.279-.688 1.185-.651 1.185.289v1.482c-.959.774-1.478 1.262-1.979 2.074-.125.203-.2.436-.223.677-.093 1.007.032 1.51.737 1.914.837.06 1.175-.174 1.535-1.085.13.637.217.974.698 1.085h.488c.5-.32.657-.564.768-1.085a.356.356 0 0 0-.2-.233.066.066 0 0 0-.078.015c-.16.163-.22.166-.35-.035v-4.336c0-.194-.016-.39-.063-.578-.19-.768-.48-1.088-1.263-1.27h-.558c-.816.244-1.151.515-1.535 1.23-.212.772-.264 1.153 0 1.555.373.276.59.344 1.012.072.453-.325.21-.831-.175-1.41Zm1.22 2.098v2.241c0 .434-1.08.326-1.08-.145v-.248c0-.075.013-.149.04-.218.298-.744.53-1.132.992-1.65a.028.028 0 0 1 .049.02Z" fill="#fff"/><path d="M51.314 9.88h-2.233v.325c.14 0 .489.29.489.506v5.533c0 .216-.175.47-.454.47v.397h2.198v-.398c-.175 0-.419-.289-.419-.433v-2.604h1.326v2.604c0 .18-.28.433-.419.433v.362H54v-.398c-.174 0-.419-.217-.419-.433V10.71c0-.253.175-.434.419-.434v-.434h-2.198v.434c.28 0 .419.29.419.434v2.459h-1.326V10.71c0-.217.175-.434.419-.434V9.88Zm5.406-3.255h-1.883v.434c.314 0 .523.253.523.543v8.57c0 .216-.174.505-.418.505v.398h2.232v-.398c-.209 0-.453-.217-.453-.506v-2.025l.244-.361 1.047 2.495c0 .289-.035.397-.314.397v.398H60v-.398c-.704-.327-1.269-2.36-2.128-4.375.695-1.198 1.086-1.908 1.744-2.06v-.435h-1.953v.434c.304.056.391.129.488.29l.035.325-1.465 2.422V6.625Zm-39.413 9.169c-.97 1.202-2.415 1.965-4.03 1.965-2.814 0-5.114-2.315-5.277-5.235.224-.21 2.706.79 5.06 1.737 1.972.794 3.854 1.551 4.247 1.533Zm-7.142-8.102a5.087 5.087 0 0 1 3.112-1.067c2.642 0 4.831 2.042 5.223 4.709-.515.384-2.936-.897-6.34-2.698-.587-.31-1.203-.636-1.844-.972l-.151.028Zm-2.049 3.733c-.58-.26-.655-.16-.352.435-.849-.956-1.087-1.366-.887-1.506.26-.183.614.008.905.131l9.436 3.988c.343.149.509-.027.808-.29-.376.676-.584 1.076-1.054.87l-8.856-3.628Z" fill="#fff"/><path d="M6.57 9.205c-.54-.163-.474.15-.211.87-.789-1.157-1.17-1.81-.882-2.01.259-.179.605.008.89.138l11.097 5.03c.452.218.647.153.914-.218-.126.814-.287 1.13-1.09.907L6.57 9.205Z" fill="#fff"/><path d="M5.41 7.064c-.653-.324-.56.02-.281.762C4.082 6.399 3.753 5.754 4.185 5.6c.307-.108.637.046.933.184l12.557 5.887c.464.263.611.125.808-.29.056.972.002 1.379-.667 1.197L5.41 7.064Z" fill="#fff"/></svg>