<svg width="64" height="24" viewBox="0 0 64 24" fill="none" xmlns="http://www.w3.org/2000/svg"><path d="M22.779 6v.006c-.005 0-1.563-.006-1.978 1.667-.381 1.533-1.454 5.766-1.484 5.883h-.297s-1.098-4.327-1.484-5.889C17.121 5.995 15.558 6 15.558 6H12v12.722h3.56v-7.556h.296l2.078 7.556h2.47l2.078-7.55h.297v7.55h3.56V6h-3.56Zm13.003 0s-1.043.106-1.533 1.334l-2.521 6.222h-.297V6h-3.56v12.722h3.362s1.094-.111 1.583-1.334l2.471-6.222h.297v7.556h3.56V6h-3.362Zm4.944 5.777v6.945h3.56v-4.055h3.856c1.682 0 3.105-1.206 3.634-2.888h-11.05v-.002ZM48.144 6h-7.917c.395 2.423 2.013 4.366 4.103 5a5.13 5.13 0 0 0 1.489.222h6.101c.055-.29.08-.584.08-.89C52 7.94 50.274 6 48.144 6Z" fill="#fff"/></svg>