<svg width="64" height="24" viewBox="0 0 64 24" fill="none" xmlns="http://www.w3.org/2000/svg"><g clip-path="url(#a)" fill="#fff"><path d="M23.029 22.826c.008.284-.216.489-.5.489h-.746v-.958h.751c.265 0 .486.185.495.469Zm18.5-1.76v2.851c0 .05-.043.082-.092.082h-.597c-.048 0-.093-.034-.093-.082v-2.852h-.937c-.048 0-.082-.045-.082-.092v-.49c0-.049.033-.092.082-.092h2.672c.049 0 .082.043.082.093v.489c0 .047-.035.092-.082.092h-.953ZM26.575 23.88v-.474c0-.035-.027-.087-.087-.087h-1.399a.257.257 0 0 1-.254-.276v-.686h1.486a.087.087 0 0 0 .089-.085v-.482c0-.05-.035-.088-.098-.088h-1.477v-.384c0-.164.136-.254.254-.254h1.394c.066 0 .092-.05.092-.087v-.5c0-.05-.037-.087-.098-.087l-1.452-.007a.975.975 0 0 0-.973.96v1.708a.96.96 0 0 0 .953.947h1.481a.086.086 0 0 0 .089-.087v-.03m5.923-1.803v-.025a.886.886 0 0 0 .276-.262 1.08 1.08 0 0 0 .161-.38l.237-.92a.086.086 0 0 0-.086-.101h-.562a.14.14 0 0 0-.06.011c-.02.008-.035.028-.043.061l-.232.867a.74.74 0 0 1-.11.25.456.456 0 0 1-.152.14.53.53 0 0 1-.168.059.974.974 0 0 1-.162.012h-.407v-1.314a.086.086 0 0 0-.085-.086H30.5c-.05 0-.092.037-.092.082v3.444c0 .048.045.082.092.082h.598c.049 0 .092-.033.092-.082v-1.529h.417c.12-.002.22.01.303.034a.42.42 0 0 1 .206.128c.054.063.1.153.135.27l.317 1.118c.017.046.049.061.082.061h.597c.076.004.098-.069.09-.102l-.32-1.195a2.057 2.057 0 0 0-.064-.21.719.719 0 0 0-.091-.17.575.575 0 0 0-.143-.137.957.957 0 0 0-.221-.106m2.167.53.195-.651.196-.735h.03l.191.735.196.652h-.808Zm.993.639.201.67c.017.06.05.081.089.081h.651c.061 0 .1-.05.086-.112l-1.068-3.214c-.05-.156-.125-.282-.307-.282l-.463.001a.257.257 0 0 0-.234.108.534.534 0 0 0-.082.173l-1.067 3.21c-.024.072.036.116.084.116h.626c.02 0 .063.003.09-.053a.279.279 0 0 0 .015-.044l.2-.654h1.18Zm3.207-1.71a.47.47 0 0 1-.473.472h-.701v-.945h.669a.475.475 0 0 1 .505.473m-1.174 2.353v-1.206h.855a1.144 1.144 0 0 0 1.036-1.62 1.122 1.122 0 0 0-.707-.623 1.414 1.414 0 0 0-.397-.051h-1.306a.252.252 0 0 0-.261.247c0 .021-.003.043-.003.067v3.207c0 .05.037.087.089.087h.607a.087.087 0 0 0 .076-.046.135.135 0 0 0 .01-.062M21.256 24h1.351c.669.024 1.214-.44 1.236-1.132 0-.06.004-.13-.012-.208-.118-.566-.566-.956-1.137-.956h-.91v-.643h1.554c.06.002.094-.04.093-.098v-.458c.001-.063-.022-.115-.093-.113h-2.064c-.211 0-.273.155-.273.254v3.1c0 .14.11.254.255.254m6.172-3.263-.046.782a20.08 20.08 0 0 1-.05.695c-.029.326-.062 1.107-.484 1.107h-.016c-.038 0-.087.032-.087.084v.503c0 .055.037.092.087.092h.038c.318 0 .597-.034.837-.398.076-.113.142-.241.189-.387a2.96 2.96 0 0 0 .113-.487c.028-.179.05-.377.068-.593.017-.215.034-.45.052-.703l.02-.36h1.004v2.841c0 .049.041.092.093.087h.596c.062 0 .093-.042.093-.092v-3.262c0-.135-.112-.254-.272-.254h-1.975c-.152 0-.242.133-.248.243-.002.031-.01.064-.012.102Z"/><path fill-rule="evenodd" clip-rule="evenodd" d="M38.38 13.888a.203.203 0 0 0 .287 0l2.715-2.715a.203.203 0 0 0 0-.286l-4.084-4.085 2.126 1.168a.203.203 0 0 0 .202-.202V3.927a.202.202 0 0 0-.202-.202h-5.777l2.35-.665a.202.202 0 0 0 0-.285L33.282.059a.203.203 0 0 0-.286 0l-4.122 4.137-.001.001.002-.004.006-.011 1.227-2.191a.203.203 0 0 0-.202-.202h-3.84a.202.202 0 0 0-.202.202v5.777l-.681-2.348a.203.203 0 0 0-.286 0L22.18 8.136a.202.202 0 0 0 0 .286l4.085 4.084-2.12-1.167a.203.203 0 0 0-.203.202v3.84c0 .112.091.202.202.202h5.777l-2.346.663a.203.203 0 0 0 0 .286l2.716 2.716a.203.203 0 0 0 .286 0l4.068-4.069-1.193 2.132c0 .112.09.203.202.203h3.84a.203.203 0 0 0 .203-.203v-5.776m0 0 .683 2.353Zm-.686-4.733-2.716 2.716a.202.202 0 0 0 0 .286l1.332 1.331 1.867.197h-3.84a.203.203 0 0 0-.202.203v1.803l1.21 1.539-2.716-2.716a.202.202 0 0 0-.286 0l-1.295 1.296-.241 1.924v-3.84a.203.203 0 0 0-.203-.202h-1.94l-1.43 1.167 2.715-2.715a.203.203 0 0 0 0-.286l-1.36-1.36-1.841-.175h3.84c.111 0 .202-.09.202-.202V5.934L28.911 4.43l2.716 2.715a.203.203 0 0 0 .286 0l1.335-1.335.197-1.883v3.84c0 .112.09.203.202.203h1.912l1.453-1.168Z"/></g><defs><clipPath id="a"><path fill="#fff" d="M0 0h64v24H0z"/></clipPath></defs></svg>