<svg width="64" height="24" viewBox="0 0 64 24" fill="none" xmlns="http://www.w3.org/2000/svg"><ellipse cx="27.171" cy="11.908" rx="8.171" ry="7.908" fill="#fff"/><ellipse cx="36.829" cy="11.908" rx="8.171" ry="7.908" fill="#fff"/><mask id="a" fill="#fff"><path fill-rule="evenodd" clip-rule="evenodd" d="M32 18.288c2.027-1.439 3.343-3.76 3.343-6.38S34.027 6.967 32 5.528c-2.027 1.439-3.343 3.76-3.343 6.38s1.316 4.941 3.343 6.38Z"/></mask><path fill-rule="evenodd" clip-rule="evenodd" d="M32 18.288c2.027-1.439 3.343-3.76 3.343-6.38S34.027 6.967 32 5.528c-2.027 1.439-3.343 3.76-3.343 6.38s1.316 4.941 3.343 6.38Z" fill="#fff"/><path d="m32 18.288-.116.163.116.082.116-.082-.116-.163Zm0-12.76.116-.163L32 5.283l-.116.082.116.163Zm3.143 6.38c0 2.55-1.28 4.813-3.259 6.217l.232.326c2.076-1.474 3.427-3.854 3.427-6.543h-.4Zm-3.259-6.217c1.978 1.404 3.259 3.667 3.259 6.217h.4c0-2.688-1.351-5.07-3.427-6.543l-.232.326Zm-3.027 6.217c0-2.55 1.281-4.813 3.259-6.217l-.232-.326c-2.076 1.474-3.427 3.855-3.427 6.543h.4Zm3.259 6.217c-1.978-1.404-3.259-3.667-3.259-6.217h-.4c0 2.689 1.351 5.07 3.427 6.543l.232-.326Z" fill="#303138" mask="url(#a)"/></svg>