<svg width="64" height="24" viewBox="0 0 64 24" fill="none" xmlns="http://www.w3.org/2000/svg"><path fill-rule="evenodd" clip-rule="evenodd" d="m30.419 1 .128.503h.413l-.334.311.127.504-.334-.311-.335.31.128-.503-.334-.31h.413L30.42 1Zm-1.518.162.128.503h.413l-.334.311.128.504-.335-.311-.334.31.127-.503-.334-.31h.413l.128-.504Zm-2.655 2.122-.127-.503-.128.503h-.414l.335.311-.128.503.335-.31.334.31-.128-.503.335-.311h-.414Zm8.284 10.485.126-7.913v-.482a.18.18 0 0 0-.053-.133l-1.585-1.426a.104.104 0 0 0-.141-.004l-.743.611a.104.104 0 0 1-.14-.002l-1.443-1.256a.104.104 0 0 0-.139-.003l-1.567 1.262a.104.104 0 0 1-.139-.004l-.68-.602a.105.105 0 0 0-.146.003l-1.52 1.42a.18.18 0 0 0-.052.13v.485l.127 7.932c.316 4.124 6.817 6.309 8.09.019a.196.196 0 0 0 .005-.038ZM8.879 11.883h.373c.211.817.55 1.411 1.018 1.783a2.548 2.548 0 0 0 1.62.557c.59 0 1.009-.127 1.258-.38.249-.258.373-.527.373-.81a.978.978 0 0 0-.392-.802c-.173-.136-.52-.313-1.044-.53l-.84-.354c-.835-.35-1.424-.696-1.765-1.039a1.728 1.728 0 0 1-.512-1.269c0-.535.225-1.035.676-1.5.456-.463 1.151-.695 2.087-.695.477 0 .936.06 1.379.182.447.121.702.182.765.182.143 0 .243-.034.297-.102a.85.85 0 0 0 .133-.279h.386v2.389h-.36a3.195 3.195 0 0 0-.918-1.43c-.434-.4-.963-.6-1.587-.6-.438 0-.786.102-1.043.305-.253.2-.38.445-.38.734 0 .346.12.605.36.777.237.174.762.432 1.575.77l.974.408c.434.182.78.383 1.037.605.481.414.721.917.721 1.51 0 .553-.259 1.076-.777 1.569-.515.489-1.341.733-2.48.733a5.08 5.08 0 0 1-.796-.064 4.789 4.789 0 0 1-.79-.187l-.254-.08a1.624 1.624 0 0 0-.17-.033.747.747 0 0 0-.14-.016c-.135 0-.227.034-.278.102a.877.877 0 0 0-.133.278H8.88v-2.714ZM0 14.162c.35-.01.6-.05.753-.117.257-.114.385-.332.385-.653V8.086c0-.321-.12-.537-.36-.648C.635 7.37.375 7.328 0 7.309v-.278h4.003c.772 0 1.413.075 1.923.225.961.282 1.442.796 1.442 1.542 0 .453-.196.814-.589 1.082a3.055 3.055 0 0 1-1.264.503v.102c.48.078.898.21 1.252.396.691.364 1.037.871 1.037 1.52 0 .608-.331 1.1-.993 1.479-.662.375-1.543.562-2.643.562H0v-.278Zm3.206-3.807c.801 0 1.339-.11 1.613-.332.274-.221.411-.614.411-1.178 0-.417-.09-.769-.272-1.055-.177-.285-.52-.428-1.03-.428-.27 0-.458.04-.564.118-.105.075-.158.212-.158.412v2.463Zm0 3.074c.005.193.038.334.102.423.105.157.307.236.607.236.61 0 1.039-.141 1.283-.423.25-.282.374-.684.374-1.205 0-.778-.272-1.296-.816-1.553-.33-.157-.846-.23-1.55-.22v2.742Zm13.395.616c-.152.068-.403.107-.753.118v.278h4.168c1.1 0 1.981-.187 2.643-.562.662-.379.993-.871.993-1.478 0-.65-.346-1.157-1.037-1.52a4.114 4.114 0 0 0-1.252-.397v-.102c.455-.071.877-.24 1.265-.503.392-.268.588-.629.588-1.082 0-.746-.48-1.26-1.442-1.542-.51-.15-1.151-.225-1.923-.225h-4.003v.278c.376.018.635.061.778.129.24.11.36.327.36.648v5.307c0 .32-.128.539-.385.653Zm4.066-4.022c-.274.222-.811.332-1.613.332V7.893c0-.2.053-.337.159-.412.105-.079.293-.118.563-.118.51 0 .853.143 1.03.428.182.286.272.638.272 1.055 0 .564-.137.957-.41 1.178Zm-1.511 3.83c-.063-.09-.097-.231-.101-.424v-2.742c.704-.01 1.22.063 1.549.22.544.257.816.775.816 1.553 0 .521-.125.923-.373 1.205-.245.282-.673.423-1.284.423-.3 0-.502-.079-.607-.236Zm18.607.2c-.142.067-.376.106-.704.117v.274h3.9c1.029 0 1.853-.185 2.473-.554.619-.372.929-.857.929-1.454 0-.64-.324-1.138-.97-1.497a3.715 3.715 0 0 0-1.172-.39v-.1a2.79 2.79 0 0 0 1.183-.495c.367-.264.55-.619.55-1.065 0-.734-.45-1.24-1.349-1.517-.477-.148-1.077-.222-1.798-.222h-3.746v.274c.351.018.594.06.728.127.225.109.337.321.337.637v5.223c0 .316-.12.53-.36.643Zm3.805-3.957c-.256.218-.76.327-1.509.327V8c0-.197.05-.332.148-.406.099-.077.274-.116.527-.116.477 0 .798.14.964.422.17.28.255.627.255 1.038 0 .555-.129.941-.385 1.159Zm-1.414 3.768c-.06-.088-.09-.227-.095-.416V10.75c.659-.011 1.142.061 1.45.216.508.252.763.762.763 1.528 0 .513-.116.908-.35 1.186-.228.277-.628.416-1.2.416-.28 0-.47-.077-.568-.232Zm7.746-.195c-.17.105-.353.158-.55.158a.572.572 0 0 1-.408-.18c-.118-.122-.178-.301-.178-.537 0-.397.207-.723.622-.98.244-.15.528-.262.852-.332v1.576a2.23 2.23 0 0 1-.338.295Zm-2.112-1.386c-.525.285-.787.67-.787 1.154 0 .397.144.69.432.88.288.186.598.28.929.28.248 0 .5-.04.757-.117a2.91 2.91 0 0 0 1.136-.632c.044.207.113.364.207.47.166.185.428.278.787.278.201 0 .393-.031.574-.094.288-.099.55-.27.787-.517l-.183-.227a.832.832 0 0 1-.178.132.338.338 0 0 1-.124.021c-.055 0-.106-.026-.154-.079a.318.318 0 0 1-.065-.2V11.02c0-.64-.229-1.078-.686-1.317-.462-.236-1.036-.353-1.722-.353-.639 0-1.177.12-1.615.363-.438.243-.657.571-.657.986 0 .232.08.41.243.532a.974.974 0 0 0 .597.184.872.872 0 0 0 .527-.163.553.553 0 0 0 .23-.474.494.494 0 0 0-.053-.227.696.696 0 0 0-.13-.2l-.07-.074a.427.427 0 0 1-.072-.09.214.214 0 0 1-.024-.105c0-.109.07-.198.208-.269.142-.073.32-.11.538-.11.386 0 .655.077.805.232.154.15.23.386.23.706v.785c-1.12.288-1.942.574-2.467.859Zm5.16 1.902c.22-.024.382-.077.485-.158.106-.084.16-.25.16-.495V10.36c0-.218-.044-.37-.13-.454-.084-.084-.255-.14-.516-.168v-.264h2.296v.775c.194-.26.438-.474.734-.643.3-.172.631-.258.994-.258.52 0 .923.12 1.207.358.288.239.432.659.432 1.26v2.608c0 .243.045.399.136.47.095.07.25.117.468.141v.259h-2.847v-.259c.217-.038.365-.091.444-.158.08-.067.119-.218.119-.453V10.96c0-.246-.028-.43-.083-.553-.095-.221-.282-.332-.562-.332a.93.93 0 0 0-.58.205 1.865 1.865 0 0 0-.403.406v2.888c0 .236.04.386.119.453.079.067.227.12.444.158v.259h-2.918v-.259Zm7.194-.179c-.086.074-.236.134-.45.18v.258h2.888v-.259c-.276-.031-.448-.087-.515-.168-.067-.081-.1-.243-.1-.485V12.31l.266-.263 1.148 1.449c.13.165.21.28.242.343.036.06.054.107.054.142 0 .067-.042.116-.125.147a1.234 1.234 0 0 1-.378.058v.259H64v-.259a.771.771 0 0 1-.172-.042.42.42 0 0 1-.136-.121l-2.343-2.872.941-.848a2.28 2.28 0 0 1 .757-.464 2.91 2.91 0 0 1 .592-.116v-.248h-2.597v.248c.26.021.443.05.55.084.11.035.166.107.166.216 0 .042-.02.1-.06.174a.932.932 0 0 1-.195.227l-1.538 1.375V7.151h-2.272v.264c.224.045.378.103.461.174.083.07.124.22.124.448v5.496c0 .239-.045.397-.136.474ZM27.512 2.313l-.129-.504-.127.504h-.414l.335.31-.128.504.334-.311.335.311-.128-.503.335-.311h-.414Zm4.679-.486-.128-.503-.128.503h-.413l.334.311-.127.504.334-.312.335.312-.128-.504.335-.31h-.414Zm1.39-.018.128.504h.413l-.334.31.128.504-.335-.311-.335.311.128-.503-.334-.311h.413l.128-.504Zm1.266 1.475-.128-.503-.127.503h-.414l.335.311-.128.503.334-.31.335.31-.128-.503.335-.311h-.414Z" fill="#fff"/><path d="M29.604 16.559h-1.677l.152-.93.153-2.592-.153-.266v-.332h.153l.508-.798.051-.664h.407l-.102.2.102.265h-.407v.133l.508.73.153.134v.332l-.102.266v.864h.204v-.2l.203-.066v.266h.305v-.266h.254v.266h.407v-.266l.254-.067v.333h.254v-.333h.254v.333h.204v-.864l-.204-.133v-.465l.204-.133.559-.731v-.598h.458l-.102.2.102.265h-.407v.133l.56.73h.152v.466l-.153.266.153 2.658.152.73h-3.558v.134Z" fill="#303138"/></svg>