<svg width="64" height="24" viewBox="0 0 64 24" fill="none" xmlns="http://www.w3.org/2000/svg"><g clip-path="url(#a)" fill-rule="evenodd" clip-rule="evenodd"><path d="M13.914 7.35c1.531 1.503 2.395 3.523 2.395 5.65H8.154" fill="#fff"/><path d="M8.154 5c2.243 0 4.282.9 5.76 2.35L8.154 13M0 5h8.154v8" fill="#fff"/><path d="M0 9.58V5l8.154 8H3.487L0 9.58Zm13.914 9.07c1.531-1.503 2.395-3.523 2.395-5.65H8.154m0 8a8.21 8.21 0 0 0 5.76-2.35L8.154 13M0 21h8.154v-8" fill="#fff"/><path d="M0 16.42V21l8.154-8H3.487L0 16.42Z" fill="#fff"/><path d="m5.817 12.803.928-.91L4.79 9.977H1.676l2.88 2.826m3.398-2.097-.927.91L5.073 9.7V6.643l2.881 2.825m0 5.826-.927-.91L5.073 16.3v3.057l2.881-2.825m-2.137-3.336.928.91-1.954 1.917H1.676l2.88-2.827m5.936 0-.928.91 1.954 1.917h3.115l-2.88-2.827m-3.399 2.098.928-.91 1.953 1.916v3.057l-2.88-2.825m-.001-5.826.928.91L11.235 9.7V6.643l-2.88 2.825m2.137 3.335-.928-.91 1.954-1.916h3.115l-2.88 2.826" fill="#303138"/><path d="M20.385 6.66h3.971v.89h-2.84v.992h1.364c.595 0 1.049.122 1.36.366.312.243.468.595.468 1.055 0 .482-.174.857-.52 1.123-.347.268-.837.4-1.47.4h-2.333V6.66Zm2.27 4c.29 0 .513-.057.668-.17.155-.112.232-.277.232-.493 0-.423-.3-.634-.9-.634h-1.139v1.296m7.402-3.82c.337.175.6.432.787.772.187.34.28.752.28 1.235v2.64h-1.138v-1.158h-2.249v1.159h-1.124V8.846c0-.483.093-.894.28-1.235.188-.34.45-.597.788-.772.337-.175.733-.262 1.188-.262.454 0 .85.087 1.188.262m-.07 2.593v-.69c0-.4-.102-.702-.303-.907-.202-.204-.476-.306-.823-.306-.35 0-.626.102-.825.306-.2.205-.299.507-.299.907v.69m9.054-2.772v4.827h-1.14v-1.98h-2.234v1.98h-1.14V6.66h1.14v1.903h2.235V6.66m4.209 2.882h-.787v1.945h-1.131V6.66h1.131v1.95h.816l1.293-1.951h1.202l-1.61 2.33 1.659 2.497H40m-14.505 6.956v1.91h-1.054v-1h-3.599v1h-1.054l.007-1.91h.59v-1.807c0-.464.094-.86.282-1.19a1.84 1.84 0 0 1 .79-.748c.34-.17.735-.254 1.185-.254.45 0 .845.085 1.184.254.34.17.604.42.79.749.188.328.282.725.282 1.19v1.806h.598Zm-1.743 0V16.54c0-.377-.097-.662-.291-.855-.195-.193-.468-.29-.82-.29-.346 0-.62.097-.818.29-.2.193-.299.478-.299.855v1.903m8.182-3.742c.337.175.6.433.787.773.188.34.281.751.281 1.234v2.642h-1.138v-1.16h-2.25v1.16h-1.124v-2.642c0-.483.093-.894.28-1.234.188-.34.45-.598.788-.773.337-.174.733-.261 1.188-.261.454 0 .85.087 1.188.261m-.07 2.593v-.69c0-.4-.101-.702-.303-.906-.201-.204-.475-.307-.822-.307-.351 0-.627.103-.826.307-.2.204-.299.507-.299.907v.69m4.542-2.773h3.971v.89h-2.84v.993h1.364c.595 0 1.048.122 1.36.365.312.244.468.596.468 1.056 0 .482-.174.857-.52 1.123-.348.267-.837.4-1.47.4h-2.333v-4.827Zm2.27 4c.29 0 .513-.056.668-.17.155-.112.232-.276.232-.492 0-.423-.3-.634-.9-.634H33.06v1.296m7.721-3.555c.386.33.58.795.58 1.392 0 .566-.175 1.01-.524 1.332-.35.322-.837.483-1.465.483-.207 0-.407-.021-.602-.063a3.411 3.411 0 0 1-.629-.207v1.442h-1.124V16.49c0-.649.184-1.147.552-1.497.367-.35.9-.524 1.6-.524.688 0 1.225.165 1.612.497Zm-.837 2.117c.18-.166.27-.4.27-.704 0-.308-.09-.547-.27-.717-.18-.17-.43-.255-.749-.255-.332 0-.59.094-.776.283-.185.188-.278.453-.278.793v.538a1.88 1.88 0 0 0 1.033.31c.333 0 .59-.083.77-.248m5.626-2.393c.337.175.6.433.787.773.187.34.281.751.281 1.234v2.641H45.5v-1.158h-2.25v1.158h-1.124V16.7c0-.484.093-.895.28-1.235.188-.34.45-.598.788-.773.337-.174.733-.262 1.188-.262.455 0 .85.088 1.188.262Zm-.07 2.593v-.69c0-.4-.101-.702-.302-.906-.202-.205-.476-.307-.823-.307-.351 0-.627.102-.826.307-.199.204-.299.507-.299.906v.69m4.542-2.772h3.972v.89h-2.84v.993h1.364c.594 0 1.048.122 1.36.365.311.244.467.595.467 1.055 0 .483-.174.858-.52 1.124-.347.267-.837.4-1.47.4h-2.333v-4.827Zm2.27 4c.29 0 .513-.056.668-.17.155-.112.232-.276.232-.492 0-.423-.3-.635-.9-.635h-1.138v1.297m7.784-2.097c.345.3.517.717.517 1.255 0 .561-.192.995-.576 1.304-.385.308-.93.461-1.638.461-.699 0-1.228-.153-1.589-.461-.36-.308-.541-.761-.541-1.359v-3.103h1.125v1.738a3.318 3.318 0 0 1 1.3-.283c.59 0 1.058.15 1.402.448m-.896 1.924c.178-.152.267-.363.267-.634 0-.28-.095-.498-.285-.652-.19-.154-.44-.231-.755-.231-.174 0-.352.027-.534.08-.183.052-.35.127-.5.223v.462c0 .313.092.555.275.724.182.17.443.256.78.256.323 0 .574-.076.752-.228m3.156 1h-1.125v-4.827h1.125m5.032.91h-1.575v3.917h-1.124v-3.917h-1.568v-.91H64" fill="#fff"/></g><defs><clipPath id="a"><path fill="#fff" d="M0 0h64v24H0z"/></clipPath></defs></svg>