<svg width="64" height="24" viewBox="0 0 64 24" fill="none" xmlns="http://www.w3.org/2000/svg"><path d="M28.246 9.602h-2.371c2.916 1.153 2.45.893 3.071 4.388h1.127l1.361-2.566.505 2.566h1.167l2.254-4.388c-1.632 0-1.282 0-2.643 2.603l-.505-2.603c-1.439-.149-1.167.558-2.333 2.603-.31-1.86-.458-2.419-1.633-2.603Z" fill="#fff"/><path fill-rule="evenodd" clip-rule="evenodd" d="M36.643 12.094c.156.966 1.4 1.19 2.916.595l-.156 1.004c-1.671.967-4.276.186-4.004-1.897.544-3.458 5.404-2.789 4.548.335l-3.304-.037Zm.078-.744h2.06c.272-.781-1.4-1.525-2.06 0Zm6.181-3.459c-1.056-.08-1.359.118-1.438.856l-.895 5.206h1.322l.078-.52c1.71 1.375 3.46.408 3.965-1.414.272-2.157-1.866-3.272-3.42-1.934l.388-2.194Zm-.617 3.55-.112.664a.476.476 0 0 0 .189.47c2.728 1.947 3.156-3.514.134-1.462a.501.501 0 0 0-.211.328Zm4.932-1.839-.972 6.062c.81.084 1.205.05 1.4-.707l.233-1.562c4.549 3.376 5.703-6.33.583-3.31l.117-.483h-1.361Zm.976 1.867-.074.568a.6.6 0 0 0 .246.577c2.718 1.877 2.946-3.516.091-1.579a.622.622 0 0 0-.263.434Z" fill="#fff"/><path fill-rule="evenodd" clip-rule="evenodd" d="m53.281 9.788-.155 1.041c1.633-.632 2.76-.26 2.527.707-1.36-.632-3.305-.41-3.382 1.19 0 1.524 2.177 1.71 3.187.78.156.559 1.011.67 1.672.373l.155-.856c-.511.095-.614-.044-.544-.557.894-2.678-.777-3.496-3.46-2.678Zm2.207 2.565-.024.272a.149.149 0 0 1-.06.104c-2.031 1.485-2.777-1.476-.019-.527a.15.15 0 0 1 .103.151Z" fill="#fff"/><path d="M59.268 9.64h-1.4l1.361 4.164c-.583.967-1.11 1.008-1.866.707l-.155 1.078c1.127.372 2.021.112 2.799-.93L63 9.64h-1.01c-.291.039-.43.115-.623.372l-1.321 2.417-.778-2.789Zm-51.91 1.03L4.335 5.865 9.585 8.6l-2.227 2.07Zm5.25-3.474-1.551-5.321-1.591 5.32h3.142Zm2.148 3.474-2.228-2.033 5.21-2.771-2.982 4.803Zm1.511 2.808v-2.956L23.625 12l-7.358 1.478Zm-1.511-.148-2.228 2.032 5.21 2.846-2.982-4.878Zm-2.148 3.474H9.466l1.63 5.32 1.512-5.32Zm-3.023-1.368-2.187-2.032-2.983 4.767 5.17-2.735Zm-3.738-1.958v-2.92L0 12l5.847 1.478Z" fill="#fff"/></svg>