<svg width="64" height="24" viewBox="0 0 64 24" fill="none" xmlns="http://www.w3.org/2000/svg"><path d="M7 17.16V6.513h2.046v3.982h.085c.106-.194.254-.4.447-.619.192-.221.452-.41.78-.566.327-.16.746-.24 1.255-.24.67 0 1.275.158 1.814.474.543.312.972.774 1.289 1.387.32.61.48 1.359.48 2.246 0 .877-.156 1.622-.469 2.235-.313.613-.739 1.081-1.277 1.403-.54.323-1.15.484-1.832.484-.497 0-.91-.076-1.238-.229a2.508 2.508 0 0 1-.791-.55 3.57 3.57 0 0 1-.458-.62h-.119v1.258H7Zm2.007-3.992c0 .516.079.968.237 1.356.162.388.394.691.695.91.306.215.675.322 1.108.322.452 0 .831-.11 1.136-.333a2.05 2.05 0 0 0 .69-.92c.158-.391.238-.837.238-1.335a3.52 3.52 0 0 0-.232-1.32 1.994 1.994 0 0 0-.69-.905c-.305-.218-.686-.328-1.142-.328-.437 0-.808.106-1.113.317a1.966 1.966 0 0 0-.696.89c-.154.38-.231.83-.231 1.346Zm11.773 4.147c-.87 0-1.623-.166-2.256-.499a3.515 3.515 0 0 1-1.453-1.424c-.339-.617-.508-1.343-.508-2.178 0-.821.17-1.542.509-2.162a3.665 3.665 0 0 1 1.435-1.455c.614-.35 1.336-.525 2.165-.525.535 0 1.04.08 1.515.239a3.393 3.393 0 0 1 2.137 1.986c.21.505.316 1.108.316 1.808v.577h-7.116v-1.268h5.155a1.894 1.894 0 0 0-.255-.962 1.773 1.773 0 0 0-.695-.67 2.089 2.089 0 0 0-1.028-.245c-.419 0-.786.094-1.103.281a1.96 1.96 0 0 0-1.006 1.71v1.107c0 .465.092.863.277 1.196.185.329.443.582.774.759.332.173.72.26 1.165.26.298 0 .567-.039.808-.115.241-.08.45-.196.628-.348.177-.152.31-.341.401-.567l1.91.198c-.12.464-.35.87-.689 1.216-.335.343-.765.61-1.289.8-.524.188-1.123.281-1.797.281Zm5.086-.155V6.513h4.34c.89 0 1.636.153 2.24.458.606.305 1.064.724 1.373 1.258.313.53.469 1.133.469 1.808 0 .683-.156 1.29-.47 1.82-.312.53-.774.947-1.384 1.252-.61.302-1.362.453-2.256.453h-2.877v-1.586h2.595c.52 0 .946-.083 1.277-.25a1.64 1.64 0 0 0 .735-.685 2.03 2.03 0 0 0 .243-1.004c0-.377-.08-.71-.243-.998a1.593 1.593 0 0 0-.74-.67c-.332-.163-.76-.244-1.284-.244h-1.921v9.033h-2.098Zm12.496.16c-.55 0-1.046-.09-1.487-.27a2.385 2.385 0 0 1-1.04-.81c-.252-.357-.379-.798-.379-1.32 0-.451.091-.824.272-1.118.18-.295.428-.53.74-.707.313-.177.665-.31 1.057-.4a9.272 9.272 0 0 1 1.227-.203 55.93 55.93 0 0 0 1.238-.13c.316-.042.546-.104.69-.187a.433.433 0 0 0 .22-.4v-.032c0-.391-.126-.694-.379-.91-.252-.214-.616-.322-1.09-.322-.502 0-.9.1-1.193.302-.29.2-.486.438-.588.712l-1.91-.25c.15-.485.399-.89.745-1.216.347-.329.77-.575 1.272-.738a5.253 5.253 0 0 1 1.662-.25c.418 0 .835.046 1.25.136.414.09.793.239 1.135.447.343.204.618.483.826.837.21.353.316.795.316 1.325v5.343H40.98v-1.096h-.068c-.124.221-.3.43-.525.623a2.58 2.58 0 0 1-.843.463 3.673 3.673 0 0 1-1.181.171Zm.531-1.382c.411 0 .767-.075 1.069-.224.301-.152.533-.353.695-.603.166-.249.249-.521.249-.816v-.94a1.003 1.003 0 0 1-.328.135c-.151.041-.32.078-.509.109-.188.031-.375.059-.56.083l-.48.062c-.305.039-.579.1-.82.188a1.369 1.369 0 0 0-.57.363.844.844 0 0 0-.21.593c0 .347.138.608.413.785.275.177.626.265 1.051.265Zm6.111 1.222V9.175h2.046v7.983h-2.046Zm1.029-9.118c-.325 0-.603-.098-.837-.296-.234-.2-.35-.442-.35-.722 0-.284.116-.525.35-.723A1.24 1.24 0 0 1 46.033 6c.327 0 .606.1.836.301.234.198.35.439.35.723 0 .28-.116.521-.35.722a1.24 1.24 0 0 1-.837.296Zm6.343 9.258c-.682 0-1.292-.161-1.831-.484-.54-.322-.965-.79-1.278-1.403-.313-.613-.469-1.358-.469-2.235 0-.887.158-1.636.475-2.246.32-.613.752-1.075 1.294-1.387a3.545 3.545 0 0 1 1.815-.473c.509 0 .927.08 1.255.239.328.156.588.345.78.566.192.219.34.425.446.619h.085V6.514H57V17.16h-2.012v-1.257h-.125c-.105.194-.258.4-.457.618a2.51 2.51 0 0 1-.792.551c-.328.152-.74.229-1.238.229Zm.571-1.544c.433 0 .803-.107 1.108-.322.305-.219.537-.522.695-.91.158-.388.238-.84.238-1.356 0-.517-.08-.966-.238-1.347a1.93 1.93 0 0 0-.69-.889c-.3-.21-.672-.317-1.113-.317-.456 0-.837.11-1.142.328a2 2 0 0 0-.69.904 3.52 3.52 0 0 0-.231 1.32c0 .5.077.945.232 1.336.158.388.39.695.695.92.309.222.688.333 1.136.333Z" fill="#fff"/></svg>