<svg width="64" height="24" viewBox="0 0 64 24" fill="none" xmlns="http://www.w3.org/2000/svg"><path d="M29.64 19.75h-3.508l2.193-14.491h3.51L29.64 19.75ZM23.18 5.259l-3.345 9.967-.395-2.146-1.18-6.516s-.143-1.305-1.665-1.305h-5.53L11 5.504s1.691.379 3.67 1.657l3.049 12.59h3.655l5.583-14.492H23.18ZM50.778 19.75H54L51.191 5.259h-2.82c-1.303 0-1.62 1.08-1.62 1.08L41.518 19.75h3.657l.732-2.152h4.46l.411 2.152Zm-3.86-5.126 1.843-5.423 1.037 5.423h-2.88Zm-5.126-5.88.5-3.112S40.749 5 39.138 5c-1.741 0-5.876.818-5.876 4.797 0 3.744 4.853 3.79 4.853 5.757 0 1.966-4.353 1.614-5.79.374l-.521 3.254s1.567.818 3.96.818c2.395 0 6.007-1.333 6.007-4.961 0-3.768-4.897-4.119-4.897-5.757s3.418-1.428 4.92-.538Z" fill="#fff"/></svg>