<svg width="76" height="22" viewBox="0 0 76 22" fill="none" xmlns="http://www.w3.org/2000/svg">
<path d="M14.416 13.0216C16.3325 11.9584 17.7855 11.1483 17.9107 11.0854C18.3112 10.87 18.725 10.3004 17.9107 9.858C17.6478 9.71888 16.2322 8.93392 14.416 7.92188L11.8984 10.4905L14.4159 13.0216H14.416Z" fill="white"/>
<path d="M11.3018 11.0898L3.28516 19.2524C3.47321 19.2776 3.68564 19.2272 3.9362 19.0881C4.46207 18.7974 10.0363 15.7218 13.8196 13.6214L11.3018 11.0898Z" fill="white"/>
<path d="M11.3024 9.8888L13.8199 7.33261C13.8199 7.33261 4.50065 2.19457 3.9367 1.89139C3.72452 1.76392 3.48641 1.72623 3.27344 1.76392L11.3024 9.88865V9.8888Z" fill="white"/>
<path d="M10.7066 10.49L2.67746 2.36523C2.35157 2.4413 2.07617 2.73215 2.07617 3.32672V17.6906C2.07617 18.2352 2.2893 18.6273 2.68983 18.665L10.7065 10.4898L10.7066 10.49Z" fill="white"/>
<path d="M27.0358 5.97848V6.58019H22.8124V5.97848H27.0358ZM22.9312 5.97848V7.95224H22.1991L22.1953 5.97848H22.9312ZM27.6797 5.97848L27.672 7.94841H26.94V5.97848H27.6797ZM26.3115 1V1.60554H23.8663V1H26.3115ZM26.9477 1V6.58019H26.2118V1H26.9477ZM23.6134 1H24.353L24.2381 3.24587C24.2227 3.58314 24.1908 3.89485 24.1422 4.18101C24.0937 4.46462 24.0337 4.72396 23.9621 4.95902C23.8906 5.19408 23.8088 5.40487 23.7168 5.59139C23.6249 5.77535 23.5265 5.93504 23.4217 6.07046C23.317 6.20332 23.2071 6.31319 23.0921 6.40006C22.9797 6.48438 22.866 6.54442 22.751 6.58019H22.4138V5.97848H22.6514C22.7178 5.90694 22.7932 5.80346 22.8775 5.66804C22.9644 5.53263 23.05 5.35761 23.1343 5.14298C23.2212 4.92581 23.2965 4.66136 23.3604 4.34965C23.4268 4.03793 23.4716 3.67001 23.4945 3.24587L23.6134 1Z" fill="#E6E9F3"/>
<path d="M28.2546 4.55277V4.46462C28.2546 4.16568 28.298 3.88846 28.3849 3.63296C28.4717 3.3749 28.5969 3.15134 28.7605 2.96226C28.924 2.77064 29.122 2.62244 29.3545 2.51769C29.587 2.41038 29.8476 2.35672 30.1364 2.35672C30.4276 2.35672 30.6895 2.41038 30.922 2.51769C31.1571 2.62244 31.3564 2.77064 31.5199 2.96226C31.686 3.15134 31.8125 3.3749 31.8993 3.63296C31.9862 3.88846 32.0296 4.16568 32.0296 4.46462V4.55277C32.0296 4.85171 31.9862 5.12893 31.8993 5.38443C31.8125 5.63994 31.686 5.8635 31.5199 6.05513C31.3564 6.2442 31.1584 6.39239 30.9259 6.49971C30.6959 6.60446 30.4353 6.65684 30.144 6.65684C29.8527 6.65684 29.5909 6.60446 29.3583 6.49971C29.1258 6.39239 28.9265 6.2442 28.7605 6.05513C28.5969 5.8635 28.4717 5.63994 28.3849 5.38443C28.298 5.12893 28.2546 4.85171 28.2546 4.55277ZM28.9636 4.46462V4.55277C28.9636 4.75973 28.9879 4.95519 29.0364 5.13915C29.085 5.32056 29.1578 5.48153 29.2549 5.62205C29.3545 5.76258 29.4784 5.87372 29.6266 5.95548C29.7748 6.03469 29.9473 6.07429 30.144 6.07429C30.3382 6.07429 30.5081 6.03469 30.6537 5.95548C30.8019 5.87372 30.9246 5.76258 31.0217 5.62205C31.1188 5.48153 31.1916 5.32056 31.2401 5.13915C31.2912 4.95519 31.3168 4.75973 31.3168 4.55277V4.46462C31.3168 4.26022 31.2912 4.06732 31.2401 3.88591C31.1916 3.70195 31.1175 3.5397 31.0178 3.39917C30.9207 3.25609 30.7981 3.14367 30.6499 3.06191C30.5043 2.98015 30.3331 2.93927 30.1364 2.93927C29.9422 2.93927 29.771 2.98015 29.6228 3.06191C29.4772 3.14367 29.3545 3.25609 29.2549 3.39917C29.1578 3.5397 29.085 3.70195 29.0364 3.88591C28.9879 4.06732 28.9636 4.26022 28.9636 4.46462Z" fill="#E6E9F3"/>
<path d="M34.5783 6.07429C34.7469 6.07429 34.9028 6.0398 35.0458 5.97081C35.1889 5.90183 35.3065 5.80729 35.3984 5.68721C35.4904 5.56456 35.5428 5.42531 35.5556 5.26946H36.2301C36.2173 5.51474 36.1343 5.74342 35.981 5.95548C35.8302 6.165 35.6322 6.33491 35.3869 6.46521C35.1417 6.59296 34.8721 6.65684 34.5783 6.65684C34.2666 6.65684 33.9944 6.60191 33.7619 6.49204C33.532 6.38217 33.3404 6.23143 33.1871 6.0398C33.0363 5.84817 32.9226 5.62844 32.846 5.3806C32.7719 5.13021 32.7348 4.86576 32.7348 4.58726V4.4263C32.7348 4.1478 32.7719 3.88463 32.846 3.63679C32.9226 3.3864 33.0363 3.16539 33.1871 2.97376C33.3404 2.78213 33.532 2.63139 33.7619 2.52152C33.9944 2.41165 34.2666 2.35672 34.5783 2.35672C34.9028 2.35672 35.1864 2.42315 35.4291 2.55601C35.6718 2.68632 35.8622 2.86517 36.0001 3.09257C36.1407 3.31741 36.2173 3.57292 36.2301 3.85908H35.5556C35.5428 3.68789 35.4943 3.53331 35.4099 3.39534C35.3282 3.25737 35.2158 3.1475 35.0727 3.06574C34.9321 2.98143 34.7673 2.93927 34.5783 2.93927C34.3611 2.93927 34.1784 2.9827 34.0302 3.06958C33.8846 3.15389 33.7683 3.26887 33.6815 3.4145C33.5971 3.55759 33.5358 3.71728 33.4975 3.89357C33.4617 4.06732 33.4438 4.24489 33.4438 4.4263V4.58726C33.4438 4.76867 33.4617 4.94752 33.4975 5.12382C33.5333 5.30012 33.5933 5.45981 33.6776 5.60289C33.7645 5.74597 33.8807 5.86095 34.0264 5.94782C34.1746 6.03213 34.3585 6.07429 34.5783 6.07429Z" fill="#E6E9F3"/>
<path d="M38.7174 2.43337V6.58019H38.0046V2.43337H38.7174ZM40.1086 2.43337V3.00825H36.6402V2.43337H40.1086Z" fill="#E6E9F3"/>
<path d="M42.0172 6.15094L43.1708 2.43337H43.9297L42.2664 7.22022C42.228 7.32243 42.1769 7.43229 42.1131 7.54982C42.0517 7.66991 41.9725 7.78361 41.8754 7.89092C41.7784 7.99823 41.6608 8.0851 41.5228 8.15153C41.3874 8.22052 41.2252 8.25501 41.0361 8.25501C40.9799 8.25501 40.9084 8.24735 40.8215 8.23202C40.7346 8.21669 40.6733 8.20391 40.6375 8.19369L40.6337 7.61881C40.6541 7.62136 40.6861 7.62392 40.7295 7.62647C40.7755 7.63158 40.8074 7.63414 40.8253 7.63414C40.9863 7.63414 41.123 7.61242 41.2354 7.56899C41.3478 7.52811 41.4424 7.45784 41.519 7.3582C41.5982 7.2611 41.6659 7.12697 41.7221 6.95578L42.0172 6.15094ZM41.1703 2.43337L42.2472 5.65271L42.4312 6.40006L41.9214 6.66067L40.3961 2.43337H41.1703Z" fill="#E6E9F3"/>
<path d="M47.333 2.43337V3.01975H45.2366V2.43337H47.333ZM45.3401 2.43337V6.58019H44.631V2.43337H45.3401ZM47.9615 2.43337V6.58019H47.2487V2.43337H47.9615Z" fill="#E6E9F3"/>
<path d="M51.9129 4.23084V4.80572H49.7207V4.23084H51.9129ZM49.8701 2.43337V6.58019H49.1611V2.43337H49.8701ZM52.4878 2.43337V6.58019H51.7749V2.43337H52.4878Z" fill="#E6E9F3"/>
<path d="M53.4421 4.55277V4.46462C53.4421 4.16568 53.4855 3.88846 53.5724 3.63296C53.6592 3.3749 53.7844 3.15134 53.948 2.96226C54.1115 2.77064 54.3095 2.62244 54.542 2.51769C54.7745 2.41038 55.0351 2.35672 55.3239 2.35672C55.6151 2.35672 55.877 2.41038 56.1095 2.51769C56.3446 2.62244 56.5439 2.77064 56.7074 2.96226C56.8735 3.15134 57 3.3749 57.0868 3.63296C57.1737 3.88846 57.2171 4.16568 57.2171 4.46462V4.55277C57.2171 4.85171 57.1737 5.12893 57.0868 5.38443C57 5.63994 56.8735 5.8635 56.7074 6.05513C56.5439 6.2442 56.3459 6.39239 56.1134 6.49971C55.8834 6.60446 55.6228 6.65684 55.3315 6.65684C55.0402 6.65684 54.7784 6.60446 54.5458 6.49971C54.3133 6.39239 54.114 6.2442 53.948 6.05513C53.7844 5.8635 53.6592 5.63994 53.5724 5.38443C53.4855 5.12893 53.4421 4.85171 53.4421 4.55277ZM54.1511 4.46462V4.55277C54.1511 4.75973 54.1754 4.95519 54.2239 5.13915C54.2725 5.32056 54.3453 5.48153 54.4424 5.62205C54.542 5.76258 54.6659 5.87372 54.8141 5.95548C54.9623 6.03469 55.1348 6.07429 55.3315 6.07429C55.5257 6.07429 55.6956 6.03469 55.8412 5.95548C55.9894 5.87372 56.1121 5.76258 56.2092 5.62205C56.3063 5.48153 56.3791 5.32056 56.4276 5.13915C56.4787 4.95519 56.5043 4.75973 56.5043 4.55277V4.46462C56.5043 4.26022 56.4787 4.06732 56.4276 3.88591C56.3791 3.70195 56.305 3.5397 56.2053 3.39917C56.1082 3.25609 55.9856 3.14367 55.8374 3.06191C55.6918 2.98015 55.5206 2.93927 55.3239 2.93927C55.1297 2.93927 54.9585 2.98015 54.8103 3.06191C54.6647 3.14367 54.542 3.25609 54.4424 3.39917C54.3453 3.5397 54.2725 3.70195 54.2239 3.88591C54.1754 4.06732 54.1511 4.26022 54.1511 4.46462Z" fill="#E6E9F3"/>
<path d="M38.7856 13.8159C37.3333 13.8159 36.1333 14.9604 36.1333 16.5297C36.1333 18.0862 37.3207 19.2436 38.7857 19.2436C40.2506 19.2436 41.4379 18.099 41.4379 16.5297C41.4379 14.9604 40.2506 13.8159 38.7856 13.8159ZM38.7856 18.1637C37.9898 18.1637 37.2955 17.4817 37.2955 16.5176C37.2955 15.5401 37.9903 14.8716 38.7856 14.8716C39.5809 14.8716 40.2757 15.5401 40.2757 16.5176C40.2757 17.4817 39.5809 18.1637 38.7856 18.1637ZM33.0138 13.8159C31.5487 13.8159 30.3613 14.9604 30.3613 16.5297C30.3613 18.0862 31.5487 19.2436 33.0138 19.2436C34.4787 19.2436 35.6661 18.099 35.6661 16.5297C35.6661 14.9604 34.4787 13.8159 33.0136 13.8159H33.0138ZM33.0138 18.1637C32.2178 18.1637 31.5237 17.4817 31.5237 16.5176C31.5237 15.5401 32.2185 14.8716 33.0138 14.8716C33.8096 14.8716 34.5039 15.5401 34.5039 16.5176C34.5039 17.4817 33.8215 18.1637 33.0138 18.1637ZM26.1557 14.6521V15.7966H28.833C28.7569 16.4396 28.5428 16.9155 28.2268 17.2373C27.8355 17.6358 27.2292 18.0734 26.1557 18.0734C24.5009 18.0734 23.2257 16.7102 23.2257 15.0251C23.2257 13.34 24.5016 11.951 26.1557 11.951C27.0521 11.951 27.6966 12.3113 28.1765 12.7745L28.9718 11.9638C28.3022 11.3081 27.4058 10.8066 26.1557 10.8066C23.8946 10.8066 22 12.697 22 14.9994C22 17.302 23.8946 19.1924 26.1557 19.1924C27.3806 19.1924 28.2903 18.7811 29.0227 18.0089C29.7678 17.2501 29.9951 16.1823 29.9951 15.3207C29.9951 15.0507 29.9702 14.8062 29.9318 14.6003L26.1557 14.6521ZM54.2197 15.5394C54.0044 14.9348 53.3229 13.8159 51.9586 13.8159C50.5942 13.8159 49.4702 14.9093 49.4702 16.5297C49.4702 18.0472 50.5942 19.2436 52.0848 19.2436C53.2974 19.2436 53.9918 18.4848 54.2822 18.0472L53.386 17.4299C53.0826 17.8803 52.6786 18.1758 52.0848 18.1758C51.4909 18.1758 51.0744 17.9058 50.809 17.3525L54.3323 15.8478L54.2197 15.5394ZM50.6323 16.4529C50.6072 15.4108 51.4284 14.8709 52.0086 14.8709C52.4763 14.8709 52.8548 15.1024 52.994 15.4498L50.6323 16.4529ZM47.7654 19.0637H48.9275V11.1149H47.7654V19.0637ZM45.8712 14.4205H45.8334C45.5684 14.0987 45.0759 13.8159 44.4439 13.8159C43.1177 13.8159 41.9179 15.0123 41.9179 16.5297C41.9179 18.0472 43.1303 19.2309 44.4439 19.2309C45.0752 19.2309 45.5678 18.9479 45.8334 18.6133H45.8712V18.9992C45.8712 20.0414 45.3278 20.594 44.4565 20.594C43.7492 20.594 43.3069 20.0668 43.1303 19.6293L42.1202 20.0668C42.4103 20.7872 43.1812 21.6746 44.4565 21.6746C45.8203 21.6746 46.9699 20.8513 46.9699 18.8578V13.9829H45.8712V14.4205ZM44.545 18.1637C43.7492 18.1637 43.0801 17.4817 43.0801 16.5304C43.0801 15.5791 43.7497 14.8842 44.545 14.8842C45.3284 14.8842 45.9597 15.5791 45.9597 16.5304C45.9592 17.469 45.3278 18.1637 44.545 18.1637ZM59.6375 11.1151H56.8593V19.0637H58.0213V16.0537H59.6375C60.9263 16.0537 62.189 15.1017 62.189 13.5844C62.189 12.0669 60.9263 11.1149 59.6375 11.1149V11.1151ZM59.6751 14.9483H58.0333V12.221H59.6751C60.5343 12.221 61.0394 12.9542 61.0394 13.5843C61.0274 14.2017 60.5348 14.9483 59.6751 14.9483ZM66.8243 13.8031C65.9907 13.8031 65.119 14.1761 64.7655 15.0251L65.7889 15.4626C66.0162 15.0251 66.4203 14.8837 66.8499 14.8837C67.4562 14.8837 68.0625 15.2566 68.075 15.9123V15.9898C67.8602 15.8612 67.4186 15.6808 66.8629 15.6808C65.7514 15.6808 64.6268 16.311 64.6268 17.469C64.6268 18.5366 65.5366 19.2181 66.5464 19.2181C67.33 19.2181 67.7591 18.8578 68.024 18.4336H68.062V19.051H69.1855V16.0025C69.173 14.6008 68.1506 13.803 66.8243 13.803V13.8031ZM66.6856 18.1508C66.3066 18.1508 65.7759 17.9576 65.7759 17.4823C65.7759 16.8649 66.4323 16.6334 67.0006 16.6334C67.5057 16.6334 67.7461 16.7492 68.062 16.9034C67.9734 17.6365 67.3545 18.1508 66.6856 18.1508ZM73.2401 13.9836L71.9142 17.4177H71.8762L70.4998 13.9835H69.2496L71.3209 18.7937L70.1463 21.4821H71.3585L74.5283 13.9835H73.2401V13.9836ZM62.8334 19.0637H63.9955V11.1149H62.8334V19.0637Z" fill="white"/>
</svg>
