<svg width="76" height="22" viewBox="0 0 76 22" fill="none" xmlns="http://www.w3.org/2000/svg">
<g clip-path="url(#clip0_714_7436)">
<path d="M18.2579 11.7075C18.247 9.89165 19.0903 8.52303 20.7933 7.51388C19.8408 6.18257 18.3998 5.4504 16.5003 5.30923C14.7017 5.17078 12.734 6.33168 12.0135 6.33168C11.2521 6.33168 9.51089 5.35719 8.14082 5.35719C5.3134 5.3998 2.30859 7.55648 2.30859 11.9445C2.30859 13.2412 2.55151 14.5805 3.03727 15.9597C3.68681 17.7756 6.02847 22.2249 8.47108 22.153C9.74828 22.1237 10.6516 21.269 12.3137 21.269C13.9266 21.269 14.7618 22.153 16.1864 22.153C18.6508 22.1184 20.7687 18.0739 21.3855 16.2526C18.0805 14.7323 18.2579 11.8007 18.2579 11.7075ZM15.3895 3.58657C16.7732 1.98365 16.6477 0.524532 16.6067 0C15.3841 0.0692281 13.9703 0.812095 13.1652 1.72538C12.2782 2.70523 11.757 3.91673 11.8688 5.28264C13.1898 5.38114 14.3961 4.71816 15.3895 3.58657Z" fill="white"/>
<path d="M28.7109 4.6543H28.0352V4.17383H28.6836C28.9701 4.17383 29.2018 4.13346 29.3789 4.05273C29.556 3.97201 29.6849 3.86003 29.7656 3.7168C29.8464 3.57357 29.8867 3.4082 29.8867 3.2207C29.8867 3.04102 29.8424 2.87695 29.7539 2.72852C29.6654 2.57747 29.5286 2.45768 29.3438 2.36914C29.1589 2.27799 28.9206 2.23242 28.6289 2.23242C28.4102 2.23242 28.2122 2.27409 28.0352 2.35742C27.8581 2.43815 27.7174 2.55143 27.6133 2.69727C27.5091 2.84049 27.457 3.00586 27.457 3.19336H26.7031C26.7031 2.95117 26.7539 2.73372 26.8555 2.54102C26.957 2.3457 27.0964 2.18034 27.2734 2.04492C27.4505 1.9069 27.6549 1.80143 27.8867 1.72852C28.1211 1.6556 28.3685 1.61914 28.6289 1.61914C28.9336 1.61914 29.2096 1.6543 29.457 1.72461C29.7044 1.79232 29.9167 1.89388 30.0938 2.0293C30.2708 2.16471 30.4063 2.33268 30.5 2.5332C30.5938 2.73372 30.6406 2.9668 30.6406 3.23242C30.6406 3.42773 30.5951 3.61133 30.5039 3.7832C30.4128 3.95508 30.2826 4.10612 30.1133 4.23633C29.944 4.36654 29.7409 4.4694 29.5039 4.54492C29.2669 4.61784 29.0026 4.6543 28.7109 4.6543ZM28.0352 4.32227H28.7109C29.0313 4.32227 29.3164 4.35482 29.5664 4.41992C29.8164 4.48503 30.0273 4.58008 30.1992 4.70508C30.3711 4.83008 30.5013 4.98503 30.5898 5.16992C30.681 5.35221 30.7266 5.56185 30.7266 5.79883C30.7266 6.06445 30.6745 6.30013 30.5703 6.50586C30.4688 6.71159 30.3242 6.88607 30.1367 7.0293C29.9492 7.17253 29.7266 7.2806 29.4688 7.35352C29.2135 7.42643 28.9336 7.46289 28.6289 7.46289C28.3841 7.46289 28.1419 7.43164 27.9023 7.36914C27.6654 7.30404 27.4505 7.20508 27.2578 7.07227C27.0651 6.93685 26.9102 6.76497 26.793 6.55664C26.6784 6.34831 26.6211 6.09831 26.6211 5.80664H27.375C27.375 5.99674 27.4271 6.17122 27.5313 6.33008C27.638 6.48893 27.7852 6.61654 27.9727 6.71289C28.1602 6.80664 28.3789 6.85352 28.6289 6.85352C28.9154 6.85352 29.1576 6.80924 29.3555 6.7207C29.556 6.62956 29.7083 6.50586 29.8125 6.34961C29.9193 6.19076 29.9727 6.01237 29.9727 5.81445C29.9727 5.63997 29.944 5.48893 29.8867 5.36133C29.832 5.23112 29.75 5.12435 29.6406 5.04102C29.5339 4.95768 29.3997 4.89648 29.2383 4.85742C29.0794 4.81576 28.8945 4.79492 28.6836 4.79492H28.0352V4.32227Z" fill="#E6E9F3"/>
<path d="M34.1016 6.66211V4.48633C34.1016 4.31966 34.0677 4.17513 34 4.05273C33.9349 3.92773 33.8359 3.83138 33.7031 3.76367C33.5703 3.69596 33.4063 3.66211 33.2109 3.66211C33.0286 3.66211 32.8685 3.69336 32.7305 3.75586C32.5951 3.81836 32.4883 3.90039 32.4102 4.00195C32.3346 4.10352 32.2969 4.21289 32.2969 4.33008H31.5742C31.5742 4.17904 31.6133 4.0293 31.6914 3.88086C31.7695 3.73242 31.8815 3.59831 32.0273 3.47852C32.1758 3.35612 32.3529 3.25977 32.5586 3.18945C32.7669 3.11654 32.9987 3.08008 33.2539 3.08008C33.5612 3.08008 33.832 3.13216 34.0664 3.23633C34.3034 3.34049 34.4883 3.49805 34.6211 3.70898C34.7565 3.91732 34.8242 4.17904 34.8242 4.49414V6.46289C34.8242 6.60352 34.8359 6.75326 34.8594 6.91211C34.8854 7.07096 34.9232 7.20768 34.9727 7.32227V7.38477H34.2188C34.1823 7.30143 34.1536 7.19076 34.1328 7.05273C34.112 6.91211 34.1016 6.7819 34.1016 6.66211ZM34.2266 4.82227L34.2344 5.33008H33.5039C33.2982 5.33008 33.1146 5.34701 32.9531 5.38086C32.7917 5.41211 32.6563 5.46029 32.5469 5.52539C32.4375 5.59049 32.3542 5.67253 32.2969 5.77148C32.2396 5.86784 32.2109 5.98112 32.2109 6.11133C32.2109 6.24414 32.2409 6.36523 32.3008 6.47461C32.3607 6.58398 32.4505 6.67122 32.5703 6.73633C32.6927 6.79883 32.8424 6.83008 33.0195 6.83008C33.2409 6.83008 33.4362 6.7832 33.6055 6.68945C33.7747 6.5957 33.9089 6.48112 34.0078 6.3457C34.1094 6.21029 34.1641 6.07878 34.1719 5.95117L34.4805 6.29883C34.4622 6.4082 34.4128 6.5293 34.332 6.66211C34.2513 6.79492 34.1432 6.92253 34.0078 7.04492C33.875 7.16471 33.7161 7.26497 33.5313 7.3457C33.349 7.42383 33.1432 7.46289 32.9141 7.46289C32.6276 7.46289 32.3763 7.4069 32.1602 7.29492C31.9466 7.18294 31.7799 7.0332 31.6602 6.8457C31.543 6.6556 31.4844 6.44336 31.4844 6.20898C31.4844 5.98242 31.5286 5.7832 31.6172 5.61133C31.7057 5.43685 31.8333 5.29232 32 5.17773C32.1667 5.06055 32.3672 4.97201 32.6016 4.91211C32.8359 4.85221 33.0977 4.82227 33.3867 4.82227H34.2266Z" fill="#E6E9F3"/>
<path d="M38.6914 3.1582V3.75586H36.7383V7.38477H36.0156V3.1582H38.6914Z" fill="#E6E9F3"/>
<path d="M40.043 3.9707V9.00977H39.3164V3.1582H39.9805L40.043 3.9707ZM42.8906 5.23633V5.31836C42.8906 5.62565 42.8542 5.91081 42.7813 6.17383C42.7083 6.43424 42.6016 6.66081 42.4609 6.85352C42.3229 7.04622 42.1523 7.19596 41.9492 7.30273C41.7461 7.40951 41.513 7.46289 41.25 7.46289C40.9818 7.46289 40.7448 7.41862 40.5391 7.33008C40.3333 7.24154 40.1589 7.11263 40.0156 6.94336C39.8724 6.77409 39.7578 6.57096 39.6719 6.33398C39.5885 6.09701 39.5313 5.83008 39.5 5.5332V5.0957C39.5313 4.7832 39.5898 4.50326 39.6758 4.25586C39.7617 4.00846 39.875 3.79753 40.0156 3.62305C40.1589 3.44596 40.332 3.31185 40.5352 3.2207C40.7383 3.12695 40.9727 3.08008 41.2383 3.08008C41.5039 3.08008 41.7396 3.13216 41.9453 3.23633C42.151 3.33789 42.3242 3.48372 42.4648 3.67383C42.6055 3.86393 42.7109 4.0918 42.7813 4.35742C42.8542 4.62044 42.8906 4.91341 42.8906 5.23633ZM42.1641 5.31836V5.23633C42.1641 5.02539 42.1419 4.82747 42.0977 4.64258C42.0534 4.45508 41.9844 4.29102 41.8906 4.15039C41.7995 4.00716 41.6823 3.89518 41.5391 3.81445C41.3958 3.73112 41.2253 3.68945 41.0273 3.68945C40.8451 3.68945 40.6862 3.7207 40.5508 3.7832C40.418 3.8457 40.3047 3.93034 40.2109 4.03711C40.1172 4.14128 40.0404 4.26107 39.9805 4.39648C39.9232 4.5293 39.8802 4.66732 39.8516 4.81055V5.82227C39.9036 6.00456 39.9766 6.17643 40.0703 6.33789C40.1641 6.49674 40.2891 6.62565 40.4453 6.72461C40.6016 6.82096 40.7982 6.86914 41.0352 6.86914C41.2305 6.86914 41.3984 6.82878 41.5391 6.74805C41.6823 6.66471 41.7995 6.55143 41.8906 6.4082C41.9844 6.26497 42.0534 6.10091 42.0977 5.91602C42.1419 5.72852 42.1641 5.5293 42.1641 5.31836Z" fill="#E6E9F3"/>
<path d="M44.9531 6.94727L46.1289 3.1582H46.9023L45.207 8.03711C45.168 8.14128 45.1159 8.25326 45.0508 8.37305C44.9883 8.49544 44.9076 8.61133 44.8086 8.7207C44.7096 8.83008 44.5898 8.91862 44.4492 8.98633C44.3112 9.05664 44.1458 9.0918 43.9531 9.0918C43.8958 9.0918 43.8229 9.08398 43.7344 9.06836C43.6458 9.05273 43.5833 9.03971 43.5469 9.0293L43.543 8.44336C43.5638 8.44596 43.5964 8.44857 43.6406 8.45117C43.6875 8.45638 43.7201 8.45898 43.7383 8.45898C43.9023 8.45898 44.0417 8.43685 44.1563 8.39258C44.2708 8.35091 44.3672 8.2793 44.4453 8.17773C44.526 8.07878 44.5951 7.94206 44.6523 7.76758L44.9531 6.94727ZM44.0898 3.1582L45.1875 6.43945L45.375 7.20117L44.8555 7.4668L43.3008 3.1582H44.0898Z" fill="#E6E9F3"/>
<path d="M49.1328 5.36523H48.3555V4.91992H49.0742C49.2747 4.91992 49.4336 4.89518 49.5508 4.8457C49.668 4.79362 49.7513 4.72201 49.8008 4.63086C49.8503 4.53971 49.875 4.43294 49.875 4.31055C49.875 4.20117 49.8464 4.09831 49.7891 4.00195C49.7344 3.90299 49.6458 3.82357 49.5234 3.76367C49.401 3.70117 49.237 3.66992 49.0313 3.66992C48.8646 3.66992 48.7135 3.69987 48.5781 3.75977C48.4427 3.81706 48.3346 3.89648 48.2539 3.99805C48.1758 4.09701 48.1367 4.20898 48.1367 4.33398H47.4141C47.4141 4.07617 47.487 3.85482 47.6328 3.66992C47.7813 3.48242 47.9779 3.33789 48.2227 3.23633C48.4701 3.13477 48.7396 3.08398 49.0313 3.08398C49.276 3.08398 49.4948 3.11133 49.6875 3.16602C49.8828 3.2181 50.0482 3.29622 50.1836 3.40039C50.319 3.50195 50.4219 3.62956 50.4922 3.7832C50.5651 3.93424 50.6016 4.11003 50.6016 4.31055C50.6016 4.45378 50.5677 4.58919 50.5 4.7168C50.4323 4.8444 50.3346 4.95768 50.207 5.05664C50.0794 5.15299 49.9245 5.22852 49.7422 5.2832C49.5625 5.33789 49.3594 5.36523 49.1328 5.36523ZM48.3555 5.0918H49.1328C49.3854 5.0918 49.6081 5.11654 49.8008 5.16602C49.9935 5.21289 50.1549 5.2832 50.2852 5.37695C50.4154 5.4707 50.513 5.58659 50.5781 5.72461C50.6458 5.86003 50.6797 6.01628 50.6797 6.19336C50.6797 6.39128 50.6393 6.56966 50.5586 6.72852C50.4805 6.88477 50.3685 7.01758 50.2227 7.12695C50.0768 7.23633 49.9023 7.31966 49.6992 7.37695C49.4987 7.43425 49.276 7.46289 49.0313 7.46289C48.7578 7.46289 48.4922 7.41602 48.2344 7.32227C47.9766 7.22852 47.7643 7.08398 47.5977 6.88867C47.431 6.69076 47.3477 6.43945 47.3477 6.13477H48.0703C48.0703 6.26237 48.1107 6.38346 48.1914 6.49805C48.2721 6.61263 48.3841 6.70508 48.5273 6.77539C48.6732 6.8457 48.8411 6.88086 49.0313 6.88086C49.2344 6.88086 49.4036 6.84961 49.5391 6.78711C49.6745 6.72461 49.776 6.64128 49.8438 6.53711C49.9141 6.43294 49.9492 6.31966 49.9492 6.19727C49.9492 6.03841 49.918 5.91081 49.8555 5.81445C49.793 5.7181 49.6966 5.64779 49.5664 5.60352C49.4388 5.55664 49.2747 5.5332 49.0742 5.5332H48.3555V5.0918Z" fill="#E6E9F3"/>
<path d="M52.3984 6.24023L54.3477 3.1582H55.0742V7.38477H54.3477V4.30273L52.3984 7.38477H51.6797V3.1582H52.3984V6.24023Z" fill="#E6E9F3"/>
<path d="M57.957 3.1582V7.38477H57.2305V3.1582H57.957ZM59.375 3.1582V3.74414H55.8398V3.1582H59.375Z" fill="#E6E9F3"/>
<path d="M61.5273 7.46289C61.2331 7.46289 60.9661 7.41341 60.7266 7.31445C60.4896 7.21289 60.2852 7.07096 60.1133 6.88867C59.944 6.70638 59.8138 6.49023 59.7227 6.24023C59.6315 5.99023 59.5859 5.7168 59.5859 5.41992V5.25586C59.5859 4.91211 59.6367 4.60612 59.7383 4.33789C59.8398 4.06706 59.9779 3.83789 60.1523 3.65039C60.3268 3.46289 60.5247 3.32096 60.7461 3.22461C60.9674 3.12826 61.1966 3.08008 61.4336 3.08008C61.7357 3.08008 61.9961 3.13216 62.2148 3.23633C62.4362 3.34049 62.6172 3.48633 62.7578 3.67383C62.8984 3.85872 63.0026 4.07747 63.0703 4.33008C63.138 4.58008 63.1719 4.85352 63.1719 5.15039V5.47461H60.0156V4.88477H62.4492V4.83008C62.4388 4.64258 62.3997 4.46029 62.332 4.2832C62.2669 4.10612 62.1628 3.96029 62.0195 3.8457C61.8763 3.73112 61.681 3.67383 61.4336 3.67383C61.2695 3.67383 61.1185 3.70898 60.9805 3.7793C60.8424 3.84701 60.724 3.94857 60.625 4.08398C60.526 4.2194 60.4492 4.38477 60.3945 4.58008C60.3398 4.77539 60.3125 5.00065 60.3125 5.25586V5.41992C60.3125 5.62044 60.3398 5.80924 60.3945 5.98633C60.4518 6.16081 60.5339 6.31445 60.6406 6.44727C60.75 6.58008 60.8815 6.68424 61.0352 6.75977C61.1914 6.83529 61.3685 6.87305 61.5664 6.87305C61.8216 6.87305 62.0378 6.82096 62.2148 6.7168C62.3919 6.61263 62.5469 6.47331 62.6797 6.29883L63.1172 6.64648C63.026 6.78451 62.9102 6.91602 62.7695 7.04102C62.6289 7.16602 62.4557 7.26758 62.25 7.3457C62.0469 7.42383 61.806 7.46289 61.5273 7.46289Z" fill="#E6E9F3"/>
<path d="M67.9844 5.52539H66.5977L66.5898 4.94727H67.7227C67.9466 4.94727 68.1328 4.92513 68.2813 4.88086C68.4323 4.83659 68.5456 4.77018 68.6211 4.68164C68.6966 4.5931 68.7344 4.48372 68.7344 4.35352C68.7344 4.25195 68.7122 4.16341 68.668 4.08789C68.6263 4.00977 68.5625 3.94596 68.4766 3.89648C68.3906 3.8444 68.2839 3.80664 68.1563 3.7832C68.0313 3.75716 67.8841 3.74414 67.7148 3.74414H66.7891V7.38477H66.0664V3.1582H67.7148C67.9831 3.1582 68.224 3.18164 68.4375 3.22852C68.6536 3.27539 68.8372 3.34701 68.9883 3.44336C69.1419 3.53711 69.2591 3.6569 69.3398 3.80273C69.4206 3.94857 69.4609 4.12044 69.4609 4.31836C69.4609 4.44596 69.4349 4.56706 69.3828 4.68164C69.3307 4.79622 69.2539 4.89779 69.1523 4.98633C69.0508 5.07487 68.9258 5.14779 68.7773 5.20508C68.6289 5.25977 68.4583 5.29492 68.2656 5.31055L67.9844 5.52539ZM67.9844 7.38477H66.3359L66.6953 6.79883H67.9844C68.1849 6.79883 68.3516 6.77409 68.4844 6.72461C68.6172 6.67253 68.7161 6.59961 68.7813 6.50586C68.849 6.40951 68.8828 6.29492 68.8828 6.16211C68.8828 6.0293 68.849 5.91602 68.7813 5.82227C68.7161 5.72591 68.6172 5.65299 68.4844 5.60352C68.3516 5.55143 68.1849 5.52539 67.9844 5.52539H66.8867L66.8945 4.94727H68.2656L68.5273 5.16602C68.7591 5.18424 68.9557 5.24154 69.1172 5.33789C69.2786 5.43424 69.401 5.55664 69.4844 5.70508C69.5677 5.85091 69.6094 6.00977 69.6094 6.18164C69.6094 6.37956 69.5716 6.55404 69.4961 6.70508C69.4232 6.85612 69.3164 6.98242 69.1758 7.08398C69.0352 7.18294 68.8646 7.25846 68.6641 7.31055C68.4635 7.36003 68.237 7.38477 67.9844 7.38477Z" fill="#E6E9F3"/>
<path d="M33.0713 19.8059H31.7043L30.9555 17.4574H28.3527L27.6395 19.8059H26.3086L28.8873 11.8105H30.4799L33.0713 19.8059ZM30.7298 16.4721L30.0526 14.3843C29.981 14.1711 29.8468 13.6688 29.6487 12.8781H29.6246C29.5458 13.2182 29.4187 13.7205 29.2442 14.3843L28.5791 16.4721H30.7298Z" fill="white"/>
<path d="M39.7011 16.8519C39.7011 17.8325 39.4356 18.6075 38.9048 19.1764C38.4292 19.6829 37.8387 19.9359 37.1338 19.9359C36.373 19.9359 35.8265 19.6631 35.4936 19.1175H35.4695V22.1546H34.1862V15.9382C34.1862 15.3218 34.1699 14.6891 34.1387 14.0403H35.2673L35.3389 14.9541H35.363C35.7909 14.2655 36.4405 13.9219 37.312 13.9219C37.9934 13.9219 38.5622 14.1905 39.0173 14.7282C39.4736 15.2665 39.7011 15.9742 39.7011 16.8519ZM38.3937 16.8988C38.3937 16.3377 38.2673 15.8751 38.0133 15.511C37.7358 15.1313 37.3632 14.9414 36.8961 14.9414C36.5795 14.9414 36.2918 15.0472 36.0348 15.2557C35.7771 15.4659 35.6086 15.7405 35.5297 16.0805C35.49 16.2392 35.4702 16.3689 35.4702 16.471V17.4323C35.4702 17.8517 35.5989 18.2055 35.8566 18.4945C36.1142 18.7835 36.4489 18.9277 36.8606 18.9277C37.3439 18.9277 37.7202 18.7414 37.9892 18.3702C38.2589 17.9983 38.3937 17.508 38.3937 16.8988Z" fill="white"/>
<path d="M46.345 16.8519C46.345 17.8325 46.0796 18.6075 45.5481 19.1764C45.0731 19.6829 44.4826 19.9359 43.7778 19.9359C43.0169 19.9359 42.4704 19.6631 42.1381 19.1175H42.114V22.1546H40.8308V15.9382C40.8308 15.3218 40.8145 14.6891 40.7832 14.0403H41.9118L41.9834 14.9541H42.0075C42.4349 14.2655 43.0844 13.9219 43.9566 13.9219C44.6374 13.9219 45.2062 14.1905 45.6624 14.7282C46.1169 15.2665 46.345 15.9742 46.345 16.8519ZM45.0376 16.8988C45.0376 16.3377 44.9107 15.8751 44.6566 15.511C44.3791 15.1313 44.0078 14.9414 43.5401 14.9414C43.2228 14.9414 42.9357 15.0472 42.6781 15.2557C42.4205 15.4659 42.2525 15.7405 42.1737 16.0805C42.1346 16.2392 42.114 16.3689 42.114 16.471V17.4323C42.114 17.8517 42.2429 18.2055 42.4993 18.4945C42.7569 18.7829 43.0916 18.9277 43.5045 18.9277C43.9879 18.9277 44.3641 18.7414 44.6331 18.3702C44.9028 17.9983 45.0376 17.508 45.0376 16.8988Z" fill="white"/>
<path d="M53.7742 17.5637C53.7742 18.2438 53.5376 18.7972 53.0628 19.2243C52.5408 19.6911 51.8143 19.9242 50.8807 19.9242C50.0188 19.9242 49.3278 19.7584 48.8047 19.4261L49.102 18.3586C49.6655 18.6986 50.2837 18.8692 50.9572 18.8692C51.4405 18.8692 51.8167 18.7599 52.087 18.5424C52.3561 18.3249 52.4903 18.0329 52.4903 17.6688C52.4903 17.3444 52.3795 17.0711 52.1574 16.8493C51.9365 16.6277 51.5675 16.4216 51.0523 16.2311C49.6498 15.7091 48.9492 14.9443 48.9492 13.9385C48.9492 13.2812 49.1948 12.7423 49.6865 12.323C50.1765 11.903 50.8302 11.6934 51.6476 11.6934C52.3765 11.6934 52.9821 11.8201 53.4654 12.073L53.1446 13.1172C52.6931 12.8721 52.1827 12.7495 51.6115 12.7495C51.16 12.7495 50.8073 12.8607 50.5545 13.0818C50.3408 13.2795 50.2337 13.5204 50.2337 13.8057C50.2337 14.1218 50.3559 14.3831 50.6014 14.5886C50.8151 14.7784 51.2034 14.9839 51.7668 15.2056C52.456 15.4825 52.9622 15.8064 53.2879 16.1777C53.6123 16.5477 53.7742 17.011 53.7742 17.5637Z" fill="white"/>
<path d="M58.0157 15.0013H56.6012V17.8004C56.6012 18.5123 56.8504 18.868 57.35 18.868C57.5794 18.868 57.7695 18.8482 57.92 18.8085L57.9555 19.7812C57.7027 19.8755 57.3699 19.923 56.9575 19.923C56.4507 19.923 56.0546 19.7686 55.7688 19.4604C55.484 19.1516 55.3408 18.6337 55.3408 17.9062V15.0001H54.498V14.0388H55.3408V12.9833L56.6012 12.6035V14.0388H58.0157V15.0013Z" fill="white"/>
<path d="M64.3974 16.8767C64.3974 17.7629 64.1436 18.4904 63.6366 19.0594C63.1053 19.6452 62.4002 19.9372 61.5202 19.9372C60.6729 19.9372 59.998 19.6566 59.4949 19.0954C58.9918 18.5343 58.7402 17.826 58.7402 16.9722C58.7402 16.0788 58.999 15.3471 59.5186 14.7781C60.0365 14.2086 60.7364 13.9238 61.6157 13.9238C62.4631 13.9238 63.145 14.2044 63.6597 14.7661C64.1519 15.3111 64.3974 16.0146 64.3974 16.8767ZM63.0662 16.9182C63.0662 16.3865 62.9527 15.9304 62.722 15.5502C62.4528 15.09 62.0682 14.8604 61.5696 14.8604C61.0543 14.8604 60.662 15.0906 60.3928 15.5502C60.1627 15.9311 60.0486 16.3943 60.0486 16.9422C60.0486 17.4739 60.1627 17.9299 60.3928 18.3096C60.6704 18.7698 61.0581 18.9993 61.5587 18.9993C62.0484 18.9993 62.4329 18.765 62.7105 18.2976C62.947 17.9101 63.0662 17.4493 63.0662 16.9182Z" fill="white"/>
<path d="M68.5711 15.1668C68.4435 15.1433 68.3083 15.1313 68.166 15.1313C67.7148 15.1313 67.3655 15.3013 67.12 15.6419C66.9066 15.9424 66.7995 16.3221 66.7995 16.7805V19.8055H65.5164L65.5285 15.8559C65.5285 15.1914 65.5125 14.5864 65.4805 14.0408H66.5983L66.6451 15.1439H66.6809C66.8162 14.7648 67.0296 14.4596 67.3225 14.2307C67.6084 14.0246 67.9173 13.9219 68.25 13.9219C68.3685 13.9219 68.4756 13.9303 68.5711 13.9453V15.1668Z" fill="white"/>
<path d="M74.3091 16.6492C74.3091 16.8787 74.2937 17.0722 74.2616 17.2302H70.4122C70.4269 17.7997 70.6128 18.2353 70.9704 18.5357C71.2947 18.8042 71.7145 18.9388 72.2299 18.9388C72.7996 18.9388 73.3201 18.8481 73.7873 18.6661L73.9886 19.5552C73.4419 19.7931 72.7971 19.9115 72.0523 19.9115C71.1563 19.9115 70.4538 19.6484 69.9417 19.1227C69.4315 18.597 69.1758 17.891 69.1758 17.0055C69.1758 16.1361 69.4136 15.4121 69.8898 14.8348C70.3878 14.2184 71.0614 13.9102 71.9087 13.9102C72.7413 13.9102 73.3714 14.2184 73.7995 14.8348C74.1386 15.3245 74.3091 15.93 74.3091 16.6492ZM73.0849 16.317C73.0938 15.9373 73.0099 15.6092 72.8362 15.3323C72.6138 14.976 72.2728 14.7982 71.8132 14.7982C71.3934 14.7982 71.0525 14.9718 70.7916 15.3202C70.5782 15.5972 70.4512 15.9295 70.4122 16.3164H73.0849V16.317Z" fill="white"/>
</g>
<defs>
<clipPath id="clip0_714_7436">
<rect width="76" height="22" fill="white"/>
</clipPath>
</defs>
</svg>
