<svg width="76" height="22" viewBox="0 0 76 22" fill="none" xmlns="http://www.w3.org/2000/svg"><g clip-path="url(#a)"><path d="M18.258 11.707c-.011-1.815.832-3.184 2.535-4.193C19.841 6.183 18.4 5.45 16.5 5.309c-1.798-.138-3.766 1.023-4.486 1.023-.762 0-2.503-.975-3.873-.975-2.828.043-5.832 2.2-5.832 6.587 0 1.297.243 2.636.728 4.016.65 1.816 2.991 6.265 5.434 6.193 1.277-.03 2.18-.884 3.843-.884 1.613 0 2.448.884 3.872.884 2.465-.035 4.583-4.08 5.2-5.9-3.305-1.52-3.128-4.452-3.128-4.546Zm-2.868-8.12C16.773 1.984 16.648.525 16.607 0c-1.223.07-2.637.812-3.442 1.725-.887.98-1.408 2.192-1.296 3.558 1.32.098 2.527-.565 3.52-1.696Z" fill="#fff"/><path d="M28.71 4.654h-.675v-.48h.649c.286 0 .518-.04.695-.121a.811.811 0 0 0 .387-.336.992.992 0 0 0 .12-.496.943.943 0 0 0-.132-.492.916.916 0 0 0-.41-.36c-.185-.091-.423-.137-.715-.137-.219 0-.417.042-.594.125a1.033 1.033 0 0 0-.422.34.821.821 0 0 0-.156.496h-.754c0-.242.05-.46.152-.652.102-.195.241-.36.418-.496a1.92 1.92 0 0 1 .614-.316 2.48 2.48 0 0 1 .742-.11 3 3 0 0 1 .828.106c.247.067.46.169.637.304.177.136.312.304.406.504.094.2.14.434.14.7 0 .195-.045.378-.136.55a1.396 1.396 0 0 1-.39.453c-.17.13-.373.233-.61.309a2.69 2.69 0 0 1-.793.11Zm-.675-.332h.676c.32 0 .605.033.855.098s.461.16.633.285c.172.125.302.28.39.465.092.182.138.392.138.629 0 .265-.053.501-.157.707-.101.206-.246.38-.433.523-.188.144-.41.252-.668.325a3.05 3.05 0 0 1-1.567.015 2.113 2.113 0 0 1-.644-.297 1.551 1.551 0 0 1-.465-.515 1.534 1.534 0 0 1-.172-.75h.754c0 .19.052.364.156.523.107.159.254.287.442.383.187.094.406.14.656.14.286 0 .529-.044.726-.132.201-.091.353-.215.457-.371a.938.938 0 0 0 .16-.536c0-.174-.028-.325-.085-.453a.77.77 0 0 0-.246-.32 1.044 1.044 0 0 0-.403-.184 2.2 2.2 0 0 0-.554-.062h-.649v-.473Zm6.067 2.34V4.486A.882.882 0 0 0 34 4.053a.665.665 0 0 0-.297-.29 1.076 1.076 0 0 0-.492-.1c-.182 0-.343.03-.48.093a.837.837 0 0 0-.32.246.539.539 0 0 0-.114.328h-.723c0-.151.04-.3.117-.45.079-.148.19-.282.336-.401a1.68 1.68 0 0 1 .532-.29c.208-.072.44-.109.695-.109.307 0 .578.052.812.156.237.104.422.262.555.473.136.208.203.47.203.785v1.969c0 .14.012.29.035.45.026.158.064.295.114.41v.062h-.754a1.346 1.346 0 0 1-.086-.332 2.646 2.646 0 0 1-.031-.39Zm.125-1.84.007.508h-.73a2.7 2.7 0 0 0-.55.05 1.26 1.26 0 0 0-.407.145.653.653 0 0 0-.336.586c0 .133.03.254.09.364.06.109.15.196.27.261a.98.98 0 0 0 .449.094c.22 0 .416-.047.585-.14a1.22 1.22 0 0 0 .403-.344.74.74 0 0 0 .164-.395l.309.348a1.05 1.05 0 0 1-.149.363 1.737 1.737 0 0 1-.8.684 1.553 1.553 0 0 1-.618.117c-.286 0-.538-.056-.754-.168a1.288 1.288 0 0 1-.5-.45 1.189 1.189 0 0 1-.176-.636c0-.227.045-.426.133-.598.089-.174.216-.319.383-.433a1.82 1.82 0 0 1 .602-.266c.234-.06.496-.09.785-.09h.84Zm4.464-1.664v.598h-1.953v3.629h-.722V3.158h2.675Zm1.352.812v5.04h-.727V3.158h.664l.063.813Zm2.848 1.266v.082c0 .308-.037.593-.11.856-.073.26-.18.487-.32.68a1.457 1.457 0 0 1-.512.449 1.48 1.48 0 0 1-.699.16 1.77 1.77 0 0 1-.71-.133 1.403 1.403 0 0 1-.524-.387 1.975 1.975 0 0 1-.344-.609 3.526 3.526 0 0 1-.172-.8v-.438a3.65 3.65 0 0 1 .176-.84c.086-.248.199-.458.34-.633.143-.177.316-.311.52-.402a1.65 1.65 0 0 1 .702-.14c.266 0 .502.051.707.155.206.102.38.248.52.438s.246.418.316.683c.073.263.11.556.11.88Zm-.727.082v-.082c0-.21-.022-.409-.066-.593a1.5 1.5 0 0 0-.207-.493.986.986 0 0 0-.352-.336 1 1 0 0 0-.512-.125c-.182 0-.34.032-.476.094a1.031 1.031 0 0 0-.34.254c-.094.104-.17.224-.23.36-.058.132-.1.27-.13.414v1.011c.053.183.126.354.22.516.093.159.218.288.374.387.157.096.353.144.59.144.196 0 .363-.04.504-.12a1.02 1.02 0 0 0 .352-.34c.093-.144.162-.308.207-.493a2.61 2.61 0 0 0 .066-.598Zm2.789 1.629 1.176-3.789h.773l-1.695 4.88a2.675 2.675 0 0 1-.156.335 1.607 1.607 0 0 1-.242.348c-.1.11-.22.198-.36.265-.138.07-.303.106-.496.106a2.118 2.118 0 0 1-.406-.063l-.004-.586c.02.003.053.006.098.008a1.163 1.163 0 0 0 .516-.059.632.632 0 0 0 .288-.214c.081-.1.15-.236.207-.41l.301-.82Zm-.863-3.789 1.097 3.281.188.762-.52.266-1.554-4.309h.789Zm5.043 2.207h-.778V4.92h.72c.2 0 .359-.025.476-.074a.503.503 0 0 0 .25-.215.661.661 0 0 0-.012-.63.584.584 0 0 0-.266-.237 1.09 1.09 0 0 0-.492-.094c-.166 0-.317.03-.453.09a.805.805 0 0 0-.324.238.528.528 0 0 0-.117.336h-.723c0-.258.073-.48.219-.664.148-.188.345-.332.59-.434.247-.101.517-.152.808-.152a2.4 2.4 0 0 1 .657.082c.195.052.36.13.496.234a.99.99 0 0 1 .308.383 1.2 1.2 0 0 1 .11.528.854.854 0 0 1-.102.406c-.068.127-.165.24-.293.34a1.46 1.46 0 0 1-.465.226c-.18.055-.383.082-.61.082Zm-.778-.273h.778a2.7 2.7 0 0 1 .668.074c.192.047.354.117.484.21.13.095.228.21.293.349.068.135.102.291.102.468a1.12 1.12 0 0 1-.457.934c-.146.11-.32.193-.524.25-.2.057-.423.086-.668.086-.273 0-.539-.047-.797-.14a1.487 1.487 0 0 1-.636-.434c-.167-.198-.25-.45-.25-.754h.722c0 .127.04.248.121.363a.865.865 0 0 0 .336.277c.146.07.314.106.504.106.203 0 .373-.031.508-.094a.702.702 0 0 0 .305-.25.595.595 0 0 0 .105-.34.694.694 0 0 0-.093-.383.535.535 0 0 0-.29-.21 1.45 1.45 0 0 0-.492-.07h-.718v-.442Zm4.043 1.148 1.95-3.082h.726v4.227h-.726V4.303l-1.95 3.082h-.718V3.158h.718V6.24Zm5.559-3.082v4.227h-.727V3.158h.727Zm1.418 0v.586H55.84v-.586h3.535Zm2.152 4.305c-.294 0-.56-.05-.8-.149a1.816 1.816 0 0 1-.614-.425 1.888 1.888 0 0 1-.39-.649 2.377 2.377 0 0 1-.137-.82v-.164c0-.344.05-.65.152-.918.102-.27.24-.5.414-.688.175-.187.373-.329.594-.425.221-.097.45-.145.688-.145.302 0 .562.052.78.156.222.104.403.25.544.438.14.185.245.403.312.656.068.25.102.524.102.82v.325h-3.156v-.59h2.433V4.83c-.01-.187-.05-.37-.117-.547a.983.983 0 0 0-.313-.437c-.143-.115-.338-.172-.585-.172a.983.983 0 0 0-.809.41c-.099.135-.176.3-.23.496-.055.195-.083.42-.083.676v.164c0 .2.028.39.083.566.057.175.139.328.246.461.109.133.24.237.394.313.156.075.334.113.531.113.256 0 .472-.052.649-.156.177-.104.332-.244.465-.418l.437.347c-.091.139-.207.27-.347.395a1.661 1.661 0 0 1-.52.305 2.011 2.011 0 0 1-.723.117Zm6.457-1.938h-1.386l-.008-.578h1.133c.224 0 .41-.022.558-.066a.687.687 0 0 0 .34-.2.488.488 0 0 0 .113-.327.516.516 0 0 0-.257-.458.945.945 0 0 0-.32-.113 2.189 2.189 0 0 0-.442-.039h-.926v3.64h-.723V3.159h1.649c.268 0 .509.024.722.07.217.047.4.119.551.215a.97.97 0 0 1 .352.36c.08.146.12.317.12.515a.868.868 0 0 1-.308.668 1.247 1.247 0 0 1-.375.22 1.972 1.972 0 0 1-.511.105l-.282.214Zm0 1.86h-1.648l.36-.586h1.288c.2 0 .368-.025.5-.074a.627.627 0 0 0 .297-.22.583.583 0 0 0 .102-.343.565.565 0 0 0-.399-.558 1.38 1.38 0 0 0-.5-.079h-1.097l.007-.578h1.372l.261.219c.232.018.429.076.59.172a.994.994 0 0 1 .367.367.944.944 0 0 1 .125.477c0 .198-.037.372-.113.523a.997.997 0 0 1-.32.379c-.14.099-.311.174-.512.227-.2.049-.427.074-.68.074Z" fill="#E6E9F3"/><path d="M33.071 19.806h-1.367l-.748-2.349h-2.603l-.713 2.349h-1.331l2.578-7.996h1.593l2.591 7.996Zm-2.341-3.334-.677-2.088c-.072-.213-.206-.715-.404-1.506h-.024c-.08.34-.206.842-.38 1.506l-.666 2.088h2.15Zm8.971.38c0 .98-.265 1.756-.796 2.324a2.33 2.33 0 0 1-1.771.76c-.761 0-1.307-.273-1.64-.819h-.025v3.038h-1.283v-6.217c0-.616-.016-1.249-.047-1.898h1.128l.072.914h.024c.428-.689 1.078-1.032 1.949-1.032.681 0 1.25.268 1.705.806.457.539.684 1.246.684 2.124Zm-1.307.047c0-.561-.127-1.024-.38-1.388-.278-.38-.65-.57-1.118-.57-.316 0-.604.106-.861.315-.258.21-.426.485-.505.825-.04.158-.06.288-.06.39v.961c0 .42.129.774.387 1.063.257.288.592.433 1.004.433.483 0 .86-.187 1.128-.558.27-.372.405-.862.405-1.471Zm7.951-.047c0 .98-.265 1.756-.797 2.324a2.329 2.329 0 0 1-1.77.76c-.761 0-1.308-.273-1.64-.819h-.024v3.038h-1.283v-6.217c0-.616-.017-1.249-.048-1.898h1.129l.071.914h.025c.427-.689 1.076-1.032 1.949-1.032.68 0 1.25.268 1.705.806.455.539.683 1.246.683 2.124Zm-1.307.047c0-.561-.127-1.024-.381-1.388a1.313 1.313 0 0 0-1.117-.57c-.317 0-.604.106-.862.315-.258.21-.425.485-.504.825a1.71 1.71 0 0 0-.06.39v.961c0 .42.129.774.385 1.063.258.288.593.433 1.005.433.484 0 .86-.187 1.13-.558.269-.372.404-.862.404-1.471Zm8.736.665c0 .68-.236 1.233-.711 1.66-.522.467-1.249.7-2.182.7-.862 0-1.553-.166-2.076-.498l.297-1.067c.564.34 1.182.51 1.855.51.483 0 .86-.11 1.13-.327.27-.217.403-.51.403-.873 0-.325-.11-.598-.333-.82-.22-.221-.59-.427-1.105-.618-1.402-.522-2.103-1.287-2.103-2.293 0-.657.246-1.196.738-1.615.49-.42 1.143-.63 1.96-.63.73 0 1.335.127 1.818.38l-.32 1.044a3.16 3.16 0 0 0-1.534-.368c-.451 0-.804.112-1.056.333a.948.948 0 0 0-.321.724c0 .316.122.577.367.783.214.19.602.395 1.166.617.689.277 1.195.6 1.52.972.325.37.487.833.487 1.386Zm4.242-2.563H56.6v2.8c0 .711.25 1.067.749 1.067.23 0 .42-.02.57-.06l.035.973c-.252.095-.585.142-.997.142-.507 0-.903-.154-1.19-.463-.284-.308-.427-.826-.427-1.554V15h-.843v-.961h.843v-1.056l1.26-.38v1.436h1.415V15Zm6.381 1.876c0 .886-.253 1.613-.76 2.182-.532.586-1.237.878-2.117.878-.847 0-1.522-.28-2.025-.842-.503-.56-.755-1.269-.755-2.123 0-.893.259-1.625.779-2.194.517-.57 1.217-.854 2.097-.854.847 0 1.529.28 2.044.842.492.545.737 1.249.737 2.11Zm-1.33.041c0-.531-.114-.988-.345-1.368-.27-.46-.654-.69-1.152-.69-.516 0-.908.23-1.177.69-.23.381-.344.844-.344 1.392 0 .532.114.988.344 1.368.277.46.665.69 1.166.69.49 0 .874-.235 1.152-.702.236-.388.355-.849.355-1.38Zm5.504-1.751a2.236 2.236 0 0 0-.405-.036c-.451 0-.8.17-1.046.51-.213.301-.32.681-.32 1.14v3.024h-1.284l.012-3.95c0-.664-.016-1.269-.047-1.814h1.117l.047 1.103h.036c.135-.38.349-.684.642-.913.285-.206.594-.31.927-.31.118 0 .226.01.321.024v1.222Zm5.739 1.483c0 .229-.016.422-.048.58h-3.85c.015.57.2 1.005.558 1.306.325.268.745.403 1.26.403.57 0 1.09-.09 1.557-.273l.202.89c-.547.237-1.192.355-1.937.355-.896 0-1.598-.263-2.11-.788-.51-.526-.766-1.232-.766-2.117 0-.87.238-1.594.714-2.171.498-.617 1.171-.925 2.019-.925.832 0 1.462.308 1.89.925.34.49.51 1.095.51 1.814Zm-1.225-.333a1.736 1.736 0 0 0-.249-.985c-.222-.356-.563-.534-1.023-.534-.42 0-.76.174-1.021.522a1.91 1.91 0 0 0-.38.996h2.673v.001Z" fill="#fff"/></g><defs><clipPath id="a"><path fill="#fff" d="M0 0h76v22H0z"/></clipPath></defs></svg>