<svg width="76" height="22" viewBox="0 0 76 22" fill="none" xmlns="http://www.w3.org/2000/svg"><path d="M14.416 13.022c1.916-1.064 3.37-1.874 3.495-1.937.4-.215.814-.785 0-1.227-.263-.14-1.679-.924-3.495-1.936l-2.518 2.569 2.518 2.53Zm-3.114-1.932-8.017 8.162c.188.026.4-.025.651-.164.526-.29 6.1-3.366 9.884-5.467l-2.518-2.531Zm0-1.201 2.518-2.556S4.5 2.195 3.937 1.89a.966.966 0 0 0-.664-.127l8.03 8.125Zm-.595.601-8.03-8.125c-.325.076-.6.367-.6.962V17.69c0 .544.212.936.613.974l8.017-8.175Z" fill="#fff"/><path d="M27.036 5.978v.602h-4.224v-.602h4.224Zm-4.105 0v1.974H22.2l-.004-1.974h.736Zm4.749 0-.008 1.97h-.732v-1.97h.74ZM26.31 1v.606h-2.445V1h2.445Zm.637 0v5.58h-.736V1h.736Zm-3.335 0h.74l-.115 2.246a7.699 7.699 0 0 1-.096.935 6.35 6.35 0 0 1-.18.778 4.182 4.182 0 0 1-.245.632c-.092.184-.19.344-.295.48a1.824 1.824 0 0 1-.33.33 1.13 1.13 0 0 1-.341.18h-.337v-.603h.237c.067-.071.142-.175.227-.31.086-.135.172-.31.256-.525.087-.217.163-.482.226-.793.067-.312.112-.68.134-1.104L23.614 1Zm4.643 3.553v-.088c0-.3.043-.577.13-.832.087-.258.212-.482.375-.67.164-.192.362-.34.595-.445a1.83 1.83 0 0 1 .781-.161c.292 0 .553.053.786.16.235.105.434.254.598.445.166.19.293.413.38.671.086.255.13.533.13.832v.088c0 .299-.044.576-.13.831-.087.256-.214.48-.38.671a1.738 1.738 0 0 1-1.376.602c-.291 0-.553-.053-.786-.157a1.777 1.777 0 0 1-.598-.445 2.023 2.023 0 0 1-.375-.67 2.567 2.567 0 0 1-.13-.832Zm.709-.088v.088c0 .207.024.402.072.586.049.182.122.343.219.483.1.14.223.252.372.333.148.08.32.12.517.12.194 0 .364-.04.51-.12a1.07 1.07 0 0 0 .368-.333c.097-.14.17-.301.218-.483.051-.184.077-.38.077-.586v-.088c0-.205-.026-.398-.077-.58a1.488 1.488 0 0 0-.222-.486 1.032 1.032 0 0 0-.881-.46c-.195 0-.366.041-.514.123a1.103 1.103 0 0 0-.368.337 1.54 1.54 0 0 0-.219.487 2.233 2.233 0 0 0-.072.579Zm5.614 1.609c.169 0 .325-.034.468-.103a.962.962 0 0 0 .352-.284.79.79 0 0 0 .158-.418h.674a1.265 1.265 0 0 1-.249.686 1.701 1.701 0 0 1-1.403.702 1.89 1.89 0 0 1-.816-.165c-.23-.11-.422-.26-.575-.452a2.019 2.019 0 0 1-.341-.66 2.782 2.782 0 0 1-.111-.793v-.16c0-.28.037-.542.111-.79.077-.25.19-.472.341-.663.153-.192.345-.343.575-.452a1.89 1.89 0 0 1 .816-.165c.325 0 .608.066.851.199.243.13.433.31.571.537.14.224.217.48.23.766h-.674a1.02 1.02 0 0 0-.146-.464.943.943 0 0 0-.832-.456c-.217 0-.4.044-.548.13a.96.96 0 0 0-.349.345 1.608 1.608 0 0 0-.183.48 2.633 2.633 0 0 0-.054.532v.161c0 .182.018.36.053.537.036.176.096.336.18.479.087.143.204.258.35.345a1.1 1.1 0 0 0 .551.126Zm4.139-3.641V6.58h-.712V2.433h.712Zm1.392 0v.575H36.64v-.575h3.469Zm1.908 3.717 1.154-3.717h.759L42.266 7.22a2.76 2.76 0 0 1-.153.33 1.58 1.58 0 0 1-.238.34 1.13 1.13 0 0 1-.352.262 1.06 1.06 0 0 1-.487.103 2.084 2.084 0 0 1-.399-.061l-.003-.575c.02.002.052.005.096.007a1.141 1.141 0 0 0 .506-.057.62.62 0 0 0 .283-.21 1.25 1.25 0 0 0 .203-.403l.295-.805Zm-.847-3.717 1.077 3.22.184.747-.51.26-1.525-4.227h.774Zm6.163 0v.587h-2.096v-.587h2.096Zm-1.993 0V6.58h-.709V2.433h.71Zm2.621 0V6.58h-.712V2.433h.712Zm3.952 1.797v.576H49.72V4.23h2.192ZM49.87 2.434V6.58h-.709V2.433h.71Zm2.618 0V6.58h-.713V2.433h.713Zm.954 2.119v-.088c0-.3.044-.577.13-.832.087-.258.212-.482.376-.67.163-.192.361-.34.594-.445.233-.108.493-.161.782-.161.291 0 .553.053.785.16.236.105.435.254.598.445.166.19.293.413.38.671.087.255.13.533.13.832v.088c0 .299-.043.576-.13.831-.087.256-.214.48-.38.671a1.738 1.738 0 0 1-1.376.602c-.29 0-.553-.053-.785-.157a1.777 1.777 0 0 1-.598-.445 2.023 2.023 0 0 1-.376-.67 2.567 2.567 0 0 1-.13-.832Zm.71-.088v.088c0 .207.023.402.072.586.049.182.121.343.218.483.1.14.224.252.372.333.148.08.32.12.517.12.195 0 .365-.04.51-.12a1.07 1.07 0 0 0 .368-.333c.097-.14.17-.301.219-.483.05-.184.076-.38.076-.586v-.088c0-.205-.025-.398-.076-.58a1.488 1.488 0 0 0-.223-.486 1.032 1.032 0 0 0-.881-.46c-.194 0-.366.041-.514.123a1.103 1.103 0 0 0-.368.337 1.54 1.54 0 0 0-.218.487 2.233 2.233 0 0 0-.073.579Z" fill="#E6E9F3"/><path d="M38.786 13.816c-1.453 0-2.653 1.144-2.653 2.714 0 1.556 1.188 2.714 2.653 2.714s2.652-1.145 2.652-2.714c0-1.57-1.187-2.714-2.652-2.714Zm0 4.348c-.796 0-1.49-.682-1.49-1.646 0-.978.694-1.646 1.49-1.646.795 0 1.49.668 1.49 1.646 0 .964-.695 1.646-1.49 1.646Zm-5.772-4.348c-1.465 0-2.653 1.144-2.653 2.714 0 1.556 1.188 2.714 2.653 2.714s2.652-1.145 2.652-2.714c0-1.57-1.187-2.714-2.652-2.714Zm0 4.348c-.796 0-1.49-.682-1.49-1.646 0-.978.694-1.646 1.49-1.646s1.49.668 1.49 1.646c0 .964-.682 1.646-1.49 1.646Zm-6.858-3.512v1.145h2.677c-.076.643-.29 1.119-.606 1.44-.392.399-.998.836-2.071.836-1.655 0-2.93-1.363-2.93-3.048s1.276-3.074 2.93-3.074c.896 0 1.54.36 2.02.823l.796-.81c-.67-.656-1.566-1.157-2.816-1.157-2.261 0-4.156 1.89-4.156 4.192 0 2.303 1.895 4.193 4.156 4.193 1.225 0 2.134-.41 2.867-1.183.745-.759.972-1.827.972-2.688 0-.27-.025-.515-.063-.72l-3.776.051Zm28.064.887c-.216-.604-.897-1.723-2.261-1.723-1.365 0-2.489 1.093-2.489 2.714 0 1.517 1.124 2.714 2.615 2.714 1.212 0 1.907-.76 2.197-1.197l-.896-.617c-.303.45-.707.746-1.301.746s-1.01-.27-1.276-.823l3.523-1.505-.112-.309Zm-3.588.914c-.025-1.042.796-1.582 1.377-1.582.467 0 .846.231.985.579l-2.362 1.003Zm-2.867 2.61h1.163v-7.948h-1.163v7.949Zm-1.894-4.642h-.038c-.265-.322-.757-.605-1.39-.605-1.325 0-2.525 1.196-2.525 2.714 0 1.517 1.212 2.7 2.526 2.7.631 0 1.124-.282 1.39-.617h.037V19c0 1.042-.543 1.595-1.415 1.595-.707 0-1.15-.527-1.326-.965l-1.01.438c.29.72 1.061 1.608 2.337 1.608 1.363 0 2.513-.824 2.513-2.817v-4.875h-1.1v.438Zm-1.326 3.743c-.796 0-1.465-.682-1.465-1.634 0-.95.67-1.646 1.465-1.646.783 0 1.415.695 1.415 1.646 0 .939-.632 1.634-1.415 1.634Zm15.093-7.049h-2.779v7.949h1.162v-3.01h1.617c1.288 0 2.551-.952 2.551-2.47 0-1.517-1.263-2.47-2.551-2.47v.001Zm.037 3.833h-1.642v-2.727h1.642c.86 0 1.364.733 1.364 1.363-.012.618-.504 1.364-1.364 1.364Zm7.15-1.145c-.834 0-1.706.373-2.06 1.222l1.024.438c.227-.438.631-.58 1.06-.58.607 0 1.213.374 1.226 1.03v.077a2.46 2.46 0 0 0-1.212-.31c-1.112 0-2.236.631-2.236 1.789 0 1.068.91 1.75 1.92 1.75.783 0 1.212-.361 1.477-.785h.038v.617h1.124v-3.048c-.013-1.402-1.035-2.2-2.362-2.2Zm-.14 4.348c-.378 0-.91-.193-.91-.669 0-.617.657-.849 1.226-.849.505 0 .745.116 1.061.27a1.407 1.407 0 0 1-1.376 1.248Zm6.555-4.167-1.326 3.434h-.038L70.5 13.984h-1.25l2.07 4.81-1.174 2.688h1.213l3.17-7.498H73.24Zm-10.407 5.08h1.163v-7.95h-1.163v7.95Z" fill="#fff"/></svg>