<svg width="40" height="40" viewBox="0 0 40 40" fill="none" xmlns="http://www.w3.org/2000/svg">
<path d="M6.66406 14.9999V8.33319C6.66406 7.41271 7.41025 6.66652 8.33073 6.66652H14.9974C15.9179 6.66652 16.6641 7.41271 16.6641 8.33319V14.9999C16.6641 15.9203 15.9179 16.6665 14.9974 16.6665H8.33073C7.41025 16.6665 6.66406 15.9203 6.66406 14.9999Z" stroke="currentColor" stroke-width="3"/>
<path d="M6.66406 31.6665V24.9999C6.66406 24.0794 7.41025 23.3332 8.33073 23.3332H14.9974C15.9179 23.3332 16.6641 24.0794 16.6641 24.9999V31.6665C16.6641 32.587 15.9179 33.3332 14.9974 33.3332H8.33073C7.41025 33.3332 6.66406 32.587 6.66406 31.6665Z" stroke="currentColor" stroke-width="3"/>
<path d="M23.3307 31.6665V24.9999C23.3307 24.0794 24.0769 23.3332 24.9974 23.3332H31.6641C32.5845 23.3332 33.3307 24.0794 33.3307 24.9999V31.6665C33.3307 32.587 32.5845 33.3332 31.6641 33.3332H24.9974C24.0769 33.3332 23.3307 32.587 23.3307 31.6665Z" stroke="currentColor" stroke-width="3"/>
<path d="M27.6413 17.4744L22.9272 12.7604C22.2763 12.1095 22.2763 11.0542 22.9272 10.4034L27.6413 5.68933C28.2921 5.03845 29.3474 5.03845 29.9983 5.68933L34.7123 10.4034C35.3632 11.0542 35.3632 12.1095 34.7123 12.7604L29.9983 17.4744C29.3474 18.1253 28.2921 18.1253 27.6413 17.4744Z" stroke="currentColor" stroke-width="3"/>
</svg>
