<svg width="24" height="24" viewBox="0 0 24 24" fill="none" xmlns="http://www.w3.org/2000/svg">
<path fill-rule="evenodd" clip-rule="evenodd" d="M13.2494 6.30111C12.945 6.02015 12.926 5.54566 13.207 5.24129C13.4879 4.93693 13.9624 4.91795 14.2668 5.1989L20.3607 10.8241C20.4384 10.8958 20.5048 10.9748 20.56 11.0592C20.8195 11.1771 21 11.4387 21 11.7423C21 12.0459 20.8197 12.3073 20.5604 12.4253C20.5051 12.5099 20.4386 12.5892 20.3607 12.6611L14.2668 18.2862C13.9624 18.5672 13.4879 18.5482 13.207 18.2438C12.926 17.9395 12.945 17.465 13.2494 17.184L18.332 12.4923H4.26985C3.85564 12.4923 3.51985 12.1565 3.51985 11.7423C3.51985 11.3281 3.85564 10.9923 4.26985 10.9923H18.3315L13.2494 6.30111Z" fill="currentColor"/>
</svg>
