<svg width="60" height="60" viewBox="0 0 60 60" fill="none" xmlns="http://www.w3.org/2000/svg">
<g clip-path="url(#clip0_18447_4867)">
<path d="M42.0469 50H51.6781" stroke="currentColor" stroke-width="3" stroke-linecap="round" stroke-linejoin="round"/>
<path d="M52.5 52.5L48.45 40H45.3L41.25 52.5" stroke="currentColor" stroke-width="3" stroke-linecap="round" stroke-linejoin="round"/>
<path d="M29.1979 18.0465C29.3486 17.826 29.566 17.6597 29.8181 17.5717C30.0703 17.4837 30.344 17.4789 30.5991 17.5577C30.8542 17.6366 31.0774 17.7951 31.2359 18.01C31.3944 18.225 31.4799 18.485 31.4798 18.752V26.863H38.7457C38.9732 26.8629 39.1964 26.925 39.3913 27.0425C39.5861 27.16 39.7452 27.3284 39.8513 27.5296C39.9575 27.7308 40.0067 27.9572 39.9938 28.1844C39.9808 28.4115 39.906 28.6308 39.7776 28.8186L30.7979 41.9528C30.6472 42.1732 30.4299 42.3396 30.1777 42.4276C29.9256 42.5155 29.6519 42.5204 29.3968 42.4415C29.1417 42.3627 28.9185 42.2041 28.76 41.9892C28.6015 41.7743 28.516 41.5143 28.516 41.2472V33.1363H21.2501C21.0226 33.1363 20.7994 33.0742 20.6045 32.9568C20.4097 32.8393 20.2506 32.6709 20.1445 32.4696C20.0383 32.2684 19.989 32.042 20.002 31.8149C20.015 31.5878 20.0898 31.3685 20.2182 31.1807L29.1979 18.0465Z" stroke="currentColor" stroke-width="3" stroke-linecap="round" stroke-linejoin="round"/>
<path d="M34.9982 53.1891C29.9602 54.2836 24.7031 53.713 20.0173 51.5629C15.3315 49.4128 11.4704 45.7996 9.01464 41.2665C6.55888 36.7334 5.64121 31.5256 6.39963 26.4262C7.15805 21.3267 9.55155 16.6114 13.2202 12.9892C16.8889 9.36694 21.6343 7.03371 26.743 6.34033C31.8517 5.64694 37.0474 6.63089 41.5488 9.1442C46.0503 11.6575 49.614 15.5643 51.7042 20.2771C53.7944 24.9899 54.2981 30.2539 53.1394 35.2776" stroke="currentColor" stroke-width="3" stroke-linecap="round" stroke-linejoin="round"/>
</g>
<defs>
<clipPath id="clip0_18447_4867">
<rect width="60" height="60" fill="white"/>
</clipPath>
</defs>
</svg>
