<svg width="40" height="40" viewBox="0 0 40 40" fill="none" xmlns="http://www.w3.org/2000/svg">
<path d="M23.8906 16.1104H30.3721C30.7159 16.1104 31.0456 16.2469 31.2887 16.49C31.5318 16.7331 31.6684 17.0628 31.6684 17.4066V30.3696C31.6684 30.7134 31.5318 31.0431 31.2887 31.2862C31.0456 31.5293 30.7159 31.6659 30.3721 31.6659H23.8906" stroke="currentColor" stroke-width="2.5" stroke-linecap="round" stroke-linejoin="round"/>
<path d="M16.1137 31.6672H9.63223C9.28843 31.6672 8.95872 31.5307 8.71561 31.2876C8.47251 31.0445 8.33594 30.7147 8.33594 30.3709V22.5932C8.33594 22.2494 8.47251 21.9197 8.71561 21.6766C8.95872 21.4334 9.28843 21.2969 9.63223 21.2969H16.1137" stroke="currentColor" stroke-width="2.5" stroke-linecap="round" stroke-linejoin="round"/>
<path d="M23.895 31.6663H16.1172V9.6293C16.1172 9.2855 16.2538 8.95579 16.4969 8.71268C16.74 8.46958 17.0697 8.33301 17.4135 8.33301H22.5987C22.9425 8.33301 23.2722 8.46958 23.5153 8.71268C23.7584 8.95579 23.895 9.2855 23.895 9.6293V31.6663Z" stroke="currentColor" stroke-width="2.5" stroke-linecap="round" stroke-linejoin="round"/>
</svg>
