<svg width="40" height="40" viewBox="0 0 40 40" fill="none" xmlns="http://www.w3.org/2000/svg">
<g clip-path="url(#clip0_4711_17639)">
<path fill-rule="evenodd" clip-rule="evenodd" d="M20 0C8.9543 0 0 8.9543 0 20C0 31.0457 8.9543 40 20 40C31.0457 40 40 31.0457 40 20C40 8.9543 31.0457 0 20 0ZM23.3354 11.0081H26.4619L26.462 6.15393H22.21C16.3115 6.15393 16.328 10.6338 16.331 11.4704C16.3311 11.4876 16.3312 11.5033 16.3312 11.5174V15.3289H13.5381V19.9908H16.3312V33.8462H22.0688V19.9923H25.9192C25.9192 19.9923 26.28 17.7568 26.4557 15.3123H22.0912V12.1242C22.0912 11.6481 22.7161 11.0081 23.3354 11.0081Z" fill="currentColor"/>
</g>
<defs>
<clipPath id="clip0_4711_17639">
<rect width="40" height="40" fill="white"/>
</clipPath>
</defs>
</svg>
