<svg width="64" height="64" viewBox="0 0 64 64" fill="none" xmlns="http://www.w3.org/2000/svg">
<path d="M24.8594 5.33301L25.9527 9.43967" stroke="currentColor" stroke-width="3.5" stroke-linecap="round" stroke-linejoin="round"/>
<path d="M38.1094 54.7734L39.1494 58.6668" stroke="currentColor" stroke-width="3.5" stroke-linecap="round" stroke-linejoin="round"/>
<path d="M12.4844 12.4795L15.4977 15.4928" stroke="currentColor" stroke-width="3.5" stroke-linecap="round" stroke-linejoin="round"/>
<path d="M48.6719 48.666L51.5252 51.5193" stroke="currentColor" stroke-width="3.5" stroke-linecap="round" stroke-linejoin="round"/>
<path d="M5.33594 24.8525L9.4426 25.9459" stroke="currentColor" stroke-width="3.5" stroke-linecap="round" stroke-linejoin="round"/>
<path d="M54.7734 38.1064L58.6668 39.1464" stroke="currentColor" stroke-width="3.5" stroke-linecap="round" stroke-linejoin="round"/>
<path d="M5.33594 39.1461L9.4426 38.0527" stroke="currentColor" stroke-width="3.5" stroke-linecap="round" stroke-linejoin="round"/>
<path d="M54.7734 25.8925L58.6668 24.8525" stroke="currentColor" stroke-width="3.5" stroke-linecap="round" stroke-linejoin="round"/>
<path d="M12.4844 51.5192L15.4977 48.5059" stroke="currentColor" stroke-width="3.5" stroke-linecap="round" stroke-linejoin="round"/>
<path d="M48.6719 15.3328L51.5252 12.4795" stroke="currentColor" stroke-width="3.5" stroke-linecap="round" stroke-linejoin="round"/>
<path d="M24.8594 58.6662L25.9527 54.5596" stroke="currentColor" stroke-width="3.5" stroke-linecap="round" stroke-linejoin="round"/>
<path d="M38.1094 9.22634L39.1494 5.33301" stroke="currentColor" stroke-width="3.5" stroke-linecap="round" stroke-linejoin="round"/>
<path d="M32 23.5167C33.1493 22.1727 35.136 20.666 38.16 20.666C43.4507 20.666 47 25.6313 47 30.258C47 39.9247 34.9627 47.3327 32 47.3327C29.0373 47.3327 17 39.9247 17 30.258C17 25.6313 20.5493 20.666 25.84 20.666C28.864 20.666 30.8507 22.1753 32 23.5167Z" stroke="currentColor" stroke-width="3.5" stroke-linecap="round" stroke-linejoin="round"/>
</svg>
