<svg width="40" height="40" viewBox="0 0 40 40" fill="none" xmlns="http://www.w3.org/2000/svg">
<g clip-path="url(#clip0_20_17)">
<path d="M20.0005 9.03735C14.2946 9.03735 9.65234 13.6796 9.65234 19.3855C9.65234 21.7207 10.418 23.9272 11.8656 25.7653C12.1514 26.1291 12.4516 26.4774 12.7695 26.8461L12.7869 26.8663C13.7594 27.9946 14.765 29.1617 15.1405 30.5359C15.2254 30.8508 15.2374 31.4546 15.2325 31.9197V32.7103C15.2325 33.4337 15.819 34.0202 16.5425 34.0202H23.4017C24.1251 34.0202 24.7116 33.4337 24.7116 32.7103V31.9105C24.7072 31.303 24.7387 30.8597 24.8021 30.6297C25.1797 29.2646 26.294 27.9538 27.2861 26.7871L27.3289 26.7367C27.6151 26.4004 27.8857 26.0827 28.1319 25.7695C29.5816 23.9303 30.3478 21.7228 30.3478 19.3855C30.3477 13.6796 25.7059 9.03735 20.0005 9.03735ZM26.0732 24.149C25.8575 24.4234 25.6032 24.7222 25.3339 25.0385L25.2812 25.1005C24.1223 26.4636 22.8089 28.0084 22.2765 29.9328C22.2012 30.206 22.1176 30.6147 22.0963 31.4003H17.85C17.8318 30.566 17.7467 30.1381 17.669 29.8499C17.1363 27.9 15.8251 26.3785 14.7714 25.1557L14.7538 25.1351C14.456 24.7898 14.1748 24.4636 13.9248 24.1457C12.8437 22.7729 12.2722 21.1267 12.2722 19.3855C12.2722 15.1242 15.7392 11.6572 20.0005 11.6572C24.2613 11.6572 27.7278 15.1242 27.7278 19.3855C27.7278 21.1286 27.1559 22.7753 26.0732 24.149Z" fill="currentColor"/>
<path d="M23.4015 34.392H16.5425C15.819 34.392 15.2325 34.9785 15.2325 35.702C15.2325 36.4254 15.819 37.0119 16.5425 37.0119H23.4017C24.1251 37.0119 24.7116 36.4254 24.7116 35.702C24.7116 34.9785 24.1249 34.392 23.4015 34.392Z" fill="currentColor"/>
<path d="M21.6867 37.3801H18.2573C17.5338 37.3801 16.9473 37.9666 16.9473 38.6901C16.9473 39.4135 17.5338 40 18.2573 40H21.6867C22.4101 40 22.9966 39.4135 22.9966 38.6901C22.9966 37.9666 22.4101 37.3801 21.6867 37.3801Z" fill="currentColor"/>
<path d="M38.0756 18.0756H33.5566C32.8332 18.0756 32.2467 18.6621 32.2467 19.3856C32.2467 20.109 32.8332 20.6955 33.5566 20.6955H38.0756C38.799 20.6955 39.3855 20.109 39.3855 19.3856C39.3855 18.6621 38.799 18.0756 38.0756 18.0756Z" fill="currentColor"/>
<path d="M7.75379 19.3856C7.75379 18.6621 7.16729 18.0756 6.44385 18.0756H1.92438C1.20095 18.0756 0.614441 18.6621 0.614441 19.3856C0.614441 20.109 1.20095 20.6955 1.92438 20.6955H6.44385C7.16729 20.6955 7.75379 20.109 7.75379 19.3856Z" fill="currentColor"/>
<path d="M20.0002 7.14023C20.7236 7.14023 21.3101 6.55372 21.3101 5.83028V1.30994C21.3101 0.586504 20.7236 0 20.0002 0C19.2768 0 18.6902 0.586504 18.6902 1.30994V5.83028C18.6902 6.55372 19.2768 7.14023 20.0002 7.14023Z" fill="currentColor"/>
<path d="M30.5116 28.0448C30.0001 27.5332 29.1708 27.533 28.659 28.0446C28.1475 28.5562 28.1473 29.3855 28.6589 29.8972L31.8544 33.0936C32.1103 33.3495 32.4455 33.4774 32.7808 33.4774C33.116 33.4774 33.4512 33.3495 33.707 33.0938C34.2186 32.5822 34.2188 31.753 33.7072 31.2412L30.5116 28.0448Z" fill="currentColor"/>
<path d="M9.48696 10.7254C9.74284 10.9813 10.078 11.1093 10.4133 11.1093C10.7485 11.1093 11.0837 10.9815 11.3394 10.7258C11.8511 10.2142 11.8511 9.38493 11.3397 8.87336L8.14541 5.6778C7.63383 5.16605 6.80455 5.16605 6.29297 5.67745C5.78122 6.18903 5.78122 7.01831 6.29263 7.52988L9.48696 10.7254Z" fill="currentColor"/>
<path d="M9.48832 28.0448L6.29259 31.2412C5.78102 31.7528 5.78119 32.5822 6.29277 33.0936C6.54847 33.3493 6.88381 33.4772 7.21898 33.4772C7.55415 33.4772 7.8895 33.3493 8.14537 33.0935L11.3411 29.897C11.8527 29.3855 11.8525 28.556 11.3409 28.0446C10.8294 27.5332 9.9999 27.5332 9.48832 28.0448Z" fill="currentColor"/>
<path d="M29.586 11.1091C29.9212 11.1091 30.2565 10.9813 30.5124 10.7254L33.7072 7.53004C34.2188 7.01846 34.2186 6.18901 33.7071 5.67761C33.1955 5.16603 32.366 5.16603 31.8546 5.67778L28.6598 8.87316C28.1482 9.38474 28.1484 10.2142 28.66 10.7256C28.9155 10.9815 29.2506 11.1091 29.586 11.1091Z" fill="currentColor"/>
</g>
<defs>
<clipPath id="clip0_20_17">
<rect width="40" height="40" fill="white"/>
</clipPath>
</defs>
</svg>
