<svg width="40" height="40" viewBox="0 0 40 40" fill="none" xmlns="http://www.w3.org/2000/svg">
<g clip-path="url(#clip0_4711_17637)">
<path d="M16.0218 19.9996C16.0218 17.807 17.807 16.0226 19.9996 16.0226C22.193 16.0226 23.9774 17.807 23.9774 19.9996C23.9774 22.193 22.193 23.9782 19.9996 23.9782C17.807 23.9782 16.0218 22.193 16.0218 19.9996Z" fill="currentColor"/>
<path fill-rule="evenodd" clip-rule="evenodd" d="M9.53723 13.3737C9.53723 11.2584 11.2584 9.53723 13.3737 9.53723H26.6263C28.7416 9.53723 30.4628 11.2584 30.4628 13.3737V26.6263C30.4628 28.7416 28.7416 30.4628 26.6263 30.4628H13.3737C11.2584 30.4628 9.53723 28.7416 9.53723 26.6263V13.3737ZM13.1113 19.9996C13.1113 23.7983 16.2017 26.8887 19.9996 26.8887C23.7983 26.8887 26.8887 23.7983 26.8887 19.9996C26.8887 16.2017 23.7983 13.1113 19.9996 13.1113C16.2017 13.1113 13.1113 16.2017 13.1113 19.9996ZM25.48 12.9059C25.48 13.8047 26.2111 14.5358 27.1099 14.5358C28.0087 14.5358 28.7398 13.8047 28.7398 12.9059C28.7398 12.0071 28.0087 11.276 27.1099 11.276C26.2111 11.276 25.48 12.0071 25.48 12.9059Z" fill="currentColor"/>
<path fill-rule="evenodd" clip-rule="evenodd" d="M20 0C8.9543 0 0 8.9543 0 20C0 31.0457 8.9543 40 20 40C31.0457 40 40 31.0457 40 20C40 8.9543 31.0457 0 20 0ZM26.6263 33.3733C30.3469 33.3733 33.3733 30.3469 33.3733 26.6263V13.3737C33.3733 9.65308 30.3469 6.62673 26.6263 6.62673H13.3737C9.65308 6.62673 6.62673 9.65308 6.62673 13.3737V26.6263C6.62673 30.3469 9.65308 33.3733 13.3737 33.3733H26.6263Z" fill="currentColor"/>
</g>
<defs>
<clipPath id="clip0_4711_17637">
<rect width="40" height="40" fill="white"/>
</clipPath>
</defs>
</svg>
