<svg width="40" height="40" viewBox="0 0 40 40" fill="none" xmlns="http://www.w3.org/2000/svg">
<g clip-path="url(#clip0_4711_17643)">
<path d="M20 10.7031C20.7563 10.7031 21.4816 11.0036 22.0163 11.5383C22.5511 12.0731 22.8515 12.7984 22.8515 13.5547C22.8515 14.311 22.5511 15.0363 22.0163 15.571C21.4816 16.1058 20.7563 16.4063 20 16.4063C19.2437 16.4063 18.5184 16.1058 17.9836 15.571C17.4489 15.0363 17.1484 14.311 17.1484 13.5547C17.1484 12.7984 17.4489 12.0731 17.9836 11.5383C18.5184 11.0036 19.2437 10.7031 20 10.7031Z" fill="currentColor"/>
<path fill-rule="evenodd" clip-rule="evenodd" d="M40 20C40 31.0457 31.0457 40 20 40C8.9543 40 0 31.0457 0 20C0 8.9543 8.9543 0 20 0C31.0457 0 40 8.9543 40 20ZM20 20.4297C23.7969 20.4297 26.875 17.3438 26.875 13.5547C26.875 9.76563 23.789 6.67969 20 6.67969C16.2109 6.67969 13.125 9.76563 13.125 13.5547C13.125 17.3438 16.2109 20.4297 20 20.4297ZM22.7812 26.0469C24.1921 25.7277 25.5391 25.1731 26.7656 24.4063C26.9893 24.2647 27.1829 24.0804 27.3353 23.864C27.4878 23.6476 27.5961 23.4033 27.6542 23.1451C27.7122 22.8868 27.7188 22.6196 27.6736 22.3588C27.6283 22.098 27.5322 21.8487 27.3906 21.625C27.249 21.4013 27.0648 21.2078 26.8484 21.0553C26.632 20.9028 26.3877 20.7945 26.1294 20.7365C25.8712 20.6784 25.604 20.6718 25.3432 20.717C25.0824 20.7623 24.833 20.8584 24.6094 21C23.2201 21.8682 21.6148 22.3285 19.9765 22.3285C18.3383 22.3285 16.733 21.8682 15.3437 21C15.1201 20.8584 14.8707 20.7623 14.6099 20.717C14.3491 20.6718 14.0819 20.6784 13.8237 20.7365C13.5654 20.7945 13.3211 20.9028 13.1047 21.0553C12.8883 21.2078 12.7041 21.4013 12.5625 21.625C12.4209 21.8487 12.3247 22.098 12.2795 22.3588C12.2343 22.6196 12.2409 22.8868 12.2989 23.1451C12.357 23.4033 12.4653 23.6476 12.6178 23.864C12.7702 24.0804 12.9638 24.2647 13.1875 24.4063C14.4297 25.1875 15.7656 25.7344 17.1719 26.0469L13.3437 29.8984C12.9656 30.2766 12.7532 30.7895 12.7532 31.3242C12.7532 31.859 12.9656 32.3719 13.3437 32.75C13.7219 33.1281 14.2347 33.3406 14.7695 33.3406C15.3043 33.3406 15.8172 33.1281 16.1953 32.75L19.9765 28.9609L23.7578 32.7422C23.945 32.9295 24.1672 33.0781 24.4119 33.1795C24.6565 33.2809 24.9188 33.3331 25.1836 33.3331C25.4484 33.3331 25.7106 33.2809 25.9553 33.1795C26.1999 33.0781 26.4222 32.9295 26.6094 32.7422C26.7967 32.555 26.9453 32.3327 27.0467 32.0881C27.1481 31.8435 27.2002 31.5812 27.2002 31.3164C27.2002 31.0516 27.1481 30.7894 27.0467 30.5447C26.9453 30.3001 26.7967 30.0778 26.6094 29.8906L22.7578 26.0391L22.7812 26.0469Z" fill="currentColor"/>
</g>
<defs>
<clipPath id="clip0_4711_17643">
<rect width="40" height="40" fill="white"/>
</clipPath>
</defs>
</svg>
