<svg width="40" height="40" viewBox="0 0 40 40" fill="none" xmlns="http://www.w3.org/2000/svg">
<g clip-path="url(#clip0_12_66)">
<path d="M29.618 27.4324C28.3782 27.4324 27.2234 27.7929 26.2496 28.4126L16.4217 21.5513C16.5795 21.0005 16.6658 20.4195 16.6658 19.8182C16.6658 19.2167 16.5795 18.6357 16.4217 18.0851L25.9843 11.4088C27.0103 12.1376 28.2635 12.5676 29.6179 12.5676C33.0883 12.5676 35.9017 9.75422 35.9017 6.28384C35.9017 2.81346 33.0884 0 29.618 0C26.1476 0 23.3342 2.81337 23.3342 6.28375C23.3342 6.74208 23.3847 7.18846 23.4778 7.61888L13.6725 14.4647C12.7153 13.8752 11.5887 13.5344 10.382 13.5344C6.91164 13.5344 4.09827 16.3478 4.09827 19.8182C4.09827 23.2885 6.91155 26.1019 10.382 26.1019C11.5886 26.1019 12.7153 25.7611 13.6725 25.1716L23.5535 32.0703C23.4114 32.5951 23.3342 33.1465 23.3342 33.7162C23.3342 37.1866 26.1476 40 29.618 40C33.0884 40 35.9017 37.1866 35.9017 33.7162C35.9017 30.2459 33.0884 27.4324 29.618 27.4324Z" fill="currentColor"/>
</g>
<defs>
<clipPath id="clip0_12_66">
<rect width="40" height="40" fill="white"/>
</clipPath>
</defs>
</svg>
