<svg width="40" height="40" viewBox="0 0 40 40" fill="none" xmlns="http://www.w3.org/2000/svg">
<g clip-path="url(#clip0_4711_17651)">
<path fill-rule="evenodd" clip-rule="evenodd" d="M40 20C40 8.9543 31.0457 0 20 0C8.9543 0 0 8.9543 0 20C0 31.0457 8.9543 40 20 40C31.0457 40 40 31.0457 40 20ZM29.1109 12.1316C28.9302 12.0381 28.7543 11.9356 28.5839 11.8245C28.0883 11.4965 27.6339 11.1099 27.2306 10.6733C26.2212 9.51704 25.8442 8.344 25.7054 7.52275H25.711C25.595 6.84106 25.643 6.4 25.6502 6.4H21.053V24.1977C21.053 24.4366 21.053 24.6728 21.043 24.9062C21.043 24.9258 21.0418 24.9443 21.0404 24.9639C21.0401 24.9686 21.0397 24.9734 21.0394 24.9782C21.0391 24.9831 21.0388 24.9881 21.0386 24.9933C21.0386 25.0061 21.0386 25.0195 21.0358 25.0329V25.043C20.9873 25.6815 20.7828 26.2984 20.4403 26.8393C20.0979 27.3802 19.6279 27.8286 19.0718 28.1449C18.4921 28.475 17.8365 28.6482 17.1696 28.6474C15.0278 28.6474 13.2918 26.8987 13.2918 24.7392C13.2918 22.5797 15.0278 20.831 17.1696 20.831C17.5751 20.8307 17.9781 20.8946 18.3635 21.0203L18.3691 16.3339C17.1989 16.1826 16.0099 16.2757 14.8774 16.6074C13.7449 16.9391 12.6933 17.5022 11.789 18.2612C10.9966 18.9505 10.3305 19.773 9.82056 20.6915C9.62648 21.0265 8.89432 22.3726 8.8056 24.5572C8.74984 25.7972 9.12184 27.0818 9.29912 27.6128V27.624C9.41064 27.9366 9.84288 29.0035 10.5471 29.903C11.115 30.6245 11.786 31.2582 12.5385 31.7839V31.7727L12.5496 31.7839C14.7751 33.2981 17.2427 33.1986 17.2427 33.1986C17.2748 33.1974 17.3126 33.1963 17.3556 33.195C17.8864 33.1795 19.2235 33.1404 20.7257 32.4277C22.528 31.5729 23.554 30.2994 23.554 30.2994C24.2095 29.5385 24.7307 28.6713 25.0954 27.7351C25.5114 26.6402 25.6502 25.3271 25.6502 24.8023V15.3602C25.7059 15.3938 26.4487 15.8856 26.4487 15.8856C26.4487 15.8856 27.5188 16.5723 29.1884 17.0195C30.3862 17.3378 32 17.4047 32 17.4047V12.8356C31.4346 12.897 30.2864 12.7183 29.1109 12.1316Z" fill="currentColor"/>
</g>
<defs>
<clipPath id="clip0_4711_17651">
<rect width="40" height="40" fill="white"/>
</clipPath>
</defs>
</svg>
