<svg width="40" height="40" viewBox="0 0 40 40" fill="none" xmlns="http://www.w3.org/2000/svg">
<g clip-path="url(#clip0_4711_17647)">
<path fill-rule="evenodd" clip-rule="evenodd" d="M20 0C8.9543 0 0 8.9543 0 20C0 31.0457 8.9543 40 20 40C31.0457 40 40 31.0457 40 20C40 8.9543 31.0457 0 20 0ZM31.0274 15.0874C31.0274 14.8413 31.0219 14.5962 31.0111 14.3524C32.1213 13.5516 33.0845 12.5509 33.846 11.4116C32.8271 11.8635 31.7322 12.169 30.5829 12.3064C31.756 11.6031 32.6568 10.4899 33.0809 9.16317C31.9831 9.81415 30.7671 10.2872 29.4731 10.5417C28.4368 9.43763 26.9603 8.74778 25.3261 8.74778C22.1887 8.74778 19.6447 11.2915 19.6447 14.4289C19.6447 14.8741 19.6951 15.3078 19.7921 15.7238C15.0703 15.4866 10.884 13.2249 8.08193 9.78743C7.59279 10.6267 7.31262 11.6026 7.31262 12.6439C7.31262 14.6148 8.31534 16.3538 9.83991 17.3727C8.90848 17.3431 8.03253 17.0875 7.26664 16.662C7.26611 16.6857 7.26611 16.7095 7.26611 16.7335C7.26611 19.4862 9.22462 21.7822 11.8236 22.3044C11.3468 22.4339 10.8448 22.5037 10.3267 22.5037C9.96062 22.5037 9.60466 22.468 9.25758 22.4015C9.98066 24.6587 12.0789 26.3014 14.5651 26.347C12.6206 27.8711 10.1709 28.7793 7.5091 28.7793C7.05037 28.7793 6.59824 28.7524 6.15376 28.6996C8.66796 30.3119 11.6543 31.2523 14.8628 31.2523C25.313 31.2523 31.0274 22.5953 31.0274 15.0874Z" fill="currentColor"/>
</g>
<defs>
<clipPath id="clip0_4711_17647">
<rect width="40" height="40" fill="white"/>
</clipPath>
</defs>
</svg>
