<svg width="40" height="40" viewBox="0 0 40 40" fill="none" xmlns="http://www.w3.org/2000/svg">
<g clip-path="url(#clip0_4711_17641)">
<path fill-rule="evenodd" clip-rule="evenodd" d="M20 0C8.9543 0 0 8.9543 0 20C0 31.0457 8.9543 40 20 40C31.0457 40 40 31.0457 40 20C40 8.9543 31.0457 0 20 0ZM30.7201 22.831C30.4744 22.5985 30.2287 22.366 29.9866 22.1298C29.1589 21.3218 29.1065 20.8528 29.7713 19.9202C30.1573 19.3801 30.558 18.8514 30.9586 18.3229C31.3134 17.8547 31.6682 17.3866 32.0127 16.9107C32.0387 16.8746 32.0648 16.8386 32.0909 16.8026C32.7496 15.892 33.4122 14.9761 33.7568 13.8873C33.9862 13.1648 33.7832 12.8463 33.0451 12.7187C32.9174 12.6977 32.7844 12.6977 32.6549 12.6977L28.2667 12.6923C27.7261 12.6838 27.4287 12.9198 27.2379 13.3991C26.979 14.0469 26.7129 14.6941 26.4047 15.3171C25.7087 16.7343 24.9298 18.104 23.8382 19.2623C23.8231 19.2784 23.8078 19.2947 23.7923 19.3112C23.5626 19.5566 23.3037 19.8331 22.9268 19.7085C22.4247 19.5248 22.276 18.6957 22.2845 18.4158L22.2809 13.3504C22.1832 12.6279 22.022 12.3041 21.3031 12.1639H16.7451C16.1382 12.1639 15.8318 12.4004 15.5062 12.7798C15.3207 13.0006 15.2629 13.1422 15.6482 13.2156C16.4039 13.3589 16.8324 13.849 16.9444 14.6069C17.1249 15.8193 17.1124 17.0367 17.0076 18.2528C16.978 18.6081 16.9167 18.9615 16.7764 19.2938C16.5561 19.817 16.1991 19.9222 15.732 19.6002C15.3105 19.3099 15.0131 18.9005 14.7206 18.4893C13.6272 16.9441 12.756 15.2787 12.0439 13.5287C11.8391 13.023 11.484 12.7171 10.9487 12.7081C9.6327 12.687 8.31543 12.6839 6.99763 12.7099C6.20712 12.7238 5.97055 13.109 6.29442 13.8279C7.7273 17.0175 9.32317 20.1179 11.4069 22.942C12.476 24.3905 13.7042 25.6716 15.2912 26.5777C17.0882 27.6047 19.0231 27.9147 21.0634 27.8202C22.017 27.7745 22.3036 27.526 22.3475 26.5759C22.3771 25.925 22.4523 25.276 22.7726 24.6915C23.0875 24.1177 23.5654 24.0093 24.1163 24.3663C24.3909 24.5464 24.6221 24.7721 24.8406 25.0135C25.0181 25.2073 25.1937 25.4033 25.3693 25.5993C25.7253 25.9966 26.0815 26.3941 26.454 26.7738C27.1536 27.486 27.9831 27.9057 29.0241 27.8201L33.0571 27.8219C33.706 27.778 34.0438 26.9821 33.6711 26.2556C33.4086 25.7485 33.0642 25.2971 32.7 24.8594C32.0931 24.1301 31.4066 23.4805 30.7201 22.831Z" fill="currentColor"/>
</g>
<defs>
<clipPath id="clip0_4711_17641">
<rect width="40" height="40" fill="white"/>
</clipPath>
</defs>
</svg>
