<svg width="32" height="33" viewBox="0 0 32 33" fill="none" xmlns="http://www.w3.org/2000/svg"><path fill-rule="evenodd" clip-rule="evenodd" d="M12.67 10.25a1.5 1.5 0 0 1 .142-2.997l11.226.531c.098.005.194.017.288.035a1.499 1.499 0 0 1 1.617 1.925c.002.096-.004.193-.016.292L24.5 21.183a1.5 1.5 0 0 1-2.976-.38l1.008-7.88L9.15 24.153a1.5 1.5 0 1 1-1.929-2.298l13.383-11.23-7.934-.375Z" fill="url(#a)"/><defs><linearGradient id="a" x1="10.247" y1="8.886" x2="22.447" y2="23.426" gradientUnits="userSpaceOnUse"><stop stop-color="#9FAEEA"/><stop offset="1" stop-color="#8A99EA"/></linearGradient></defs></svg>