<?xml version="1.0" encoding="utf-8"?><svg viewBox="0 0 66 66" xmlns="http://www.w3.org/2000/svg" xmlns:xlink="http://www.w3.org/1999/xlink"><style>:root>svg{display:none}:root>svg:target{display:block}</style><svg fill="none" viewBox="-1 -1 42 42" id="image-apps" xmlns="http://www.w3.org/2000/svg"><path d="M6.664 15V8.333c0-.92.746-1.666 1.667-1.666h6.666c.92 0 1.667.746 1.667 1.666V15c0 .92-.746 1.666-1.667 1.666H8.331c-.92 0-1.667-.746-1.667-1.666ZM6.664 31.666V25c0-.92.746-1.667 1.667-1.667h6.666c.92 0 1.667.746 1.667 1.667v6.666c0 .921-.746 1.667-1.667 1.667H8.331c-.92 0-1.667-.746-1.667-1.666ZM23.33 31.666V25c0-.92.747-1.667 1.667-1.667h6.667c.92 0 1.667.746 1.667 1.667v6.666c0 .921-.747 1.667-1.667 1.667h-6.667c-.92 0-1.666-.746-1.666-1.666ZM27.641 17.474l-4.714-4.714a1.667 1.667 0 0 1 0-2.357l4.714-4.714c.651-.65 1.706-.65 2.357 0l4.714 4.714c.651.651.651 1.707 0 2.357l-4.714 4.714c-.65.651-1.706.651-2.357 0Z" stroke="currentColor" stroke-width="3"/></svg><svg fill="none" viewBox="-1 -1 26 26" id="image-arrow" xmlns="http://www.w3.org/2000/svg"><path fill-rule="evenodd" clip-rule="evenodd" d="M13.25 6.301A.75.75 0 1 1 14.266 5.2l6.094 5.625c.077.072.144.15.199.235a.75.75 0 0 1 0 1.366 1.255 1.255 0 0 1-.2.236l-6.093 5.625a.75.75 0 1 1-1.018-1.102l5.083-4.692H4.27a.75.75 0 0 1 0-1.5H18.33l-5.082-4.69Z" fill="currentColor"/></svg><svg fill="none" viewBox="-1 -1 62 62" id="image-automatization" xmlns="http://www.w3.org/2000/svg"><g clip-path="url(#ca)" stroke="currentColor" stroke-width="3" stroke-linecap="round" stroke-linejoin="round"><path d="M42.047 50h9.631M52.5 52.5 48.45 40H45.3l-4.05 12.5M29.198 18.047a1.25 1.25 0 0 1 2.282.705v8.111h7.266a1.25 1.25 0 0 1 1.032 1.956l-8.98 13.134a1.25 1.25 0 0 1-2.282-.706v-8.11H21.25a1.251 1.251 0 0 1-1.032-1.956l8.98-13.134Z"/><path d="M34.998 53.19A23.804 23.804 0 1 1 53.14 35.277"/></g><defs><clipPath id="ca"><path fill="#fff" d="M0 0h60v60H0z"/></clipPath></defs></svg><svg fill="none" viewBox="-1 -1 42 42" id="image-compare" xmlns="http://www.w3.org/2000/svg"><path d="M23.89 16.11h6.482a1.296 1.296 0 0 1 1.296 1.297V30.37a1.296 1.296 0 0 1-1.296 1.296h-6.481M16.114 31.667H9.632a1.296 1.296 0 0 1-1.296-1.296v-7.778a1.296 1.296 0 0 1 1.296-1.296h6.482" stroke="currentColor" stroke-width="2.5" stroke-linecap="round" stroke-linejoin="round"/><path d="M23.895 31.666h-7.778V9.63a1.296 1.296 0 0 1 1.296-1.296H22.6a1.296 1.296 0 0 1 1.296 1.296v22.037Z" stroke="currentColor" stroke-width="2.5" stroke-linecap="round" stroke-linejoin="round"/></svg><svg fill="none" viewBox="-1 -1 42 42" id="image-facebook-logo" xmlns="http://www.w3.org/2000/svg"><g clip-path="url(#ea)"><path fill-rule="evenodd" clip-rule="evenodd" d="M20 0C8.954 0 0 8.954 0 20s8.954 20 20 20 20-8.954 20-20S31.046 0 20 0Zm3.335 11.008h3.127V6.154H22.21c-5.899 0-5.882 4.48-5.879 5.316v3.859h-2.793v4.662h2.793v13.855h5.738V19.992h3.85s.361-2.235.537-4.68H22.09v-3.188c0-.476.625-1.116 1.244-1.116Z" fill="currentColor"/></g><defs><clipPath id="ea"><path fill="#fff" d="M0 0h40v40H0z"/></clipPath></defs></svg><svg fill="none" viewBox="-1 -1 66 66" id="image-fingerprint" xmlns="http://www.w3.org/2000/svg"><path d="M24 32.246a8 8 0 0 1 16 0M40.003 32.246c0 .958-.085 1.893-.16 2.831M38.29 43.077a37.121 37.121 0 0 1-1.704 4.494" stroke="currentColor" stroke-width="3.5" stroke-linecap="round" stroke-linejoin="round"/><path d="M27.484 47.589a28.28 28.28 0 0 0 4.517-15.343M20.625 43.49a20.337 20.337 0 0 0 3.378-11.244M16 32.411a15.92 15.92 0 0 1 1.425-6.575M48.004 32.411a15.975 15.975 0 0 0-24.316-13.65M8 45.333V48a8 8 0 0 0 8 8h2.667M45.336 8h2.667a8 8 0 0 1 8 8v2.667M18.667 8H16a8 8 0 0 0-8 8v2.667M56.003 45.333V48a8 8 0 0 1-8 8h-2.667" stroke="currentColor" stroke-width="3.5" stroke-linecap="round" stroke-linejoin="round"/></svg><svg fill="none" viewBox="-1 -1 62 62" id="image-guard" xmlns="http://www.w3.org/2000/svg"><g clip-path="url(#ga)" stroke="currentColor" stroke-width="3" stroke-linecap="round" stroke-linejoin="round"><path d="m44.375 44.375 3.75 3.75M53.753 30a23.451 23.451 0 0 1-2.581 10.613M40.613 51.169A23.453 23.453 0 0 1 30 53.75M30 6.25a23.45 23.45 0 0 1 10.613 2.582M51.172 19.387A23.453 23.453 0 0 1 53.753 30M15.625 15.625l-3.75-3.75M6.25 30a23.45 23.45 0 0 1 2.582-10.613"/><path d="M19.39 8.831A23.453 23.453 0 0 1 30.005 6.25M30.003 53.75a23.452 23.452 0 0 1-10.612-2.582M8.831 40.613A23.454 23.454 0 0 1 6.25 30M44.375 15.625l3.75-3.75M15.625 44.375l-3.75 3.75M28.823 41.133A10.976 10.976 0 0 1 20 30.371v-3.565a5.555 5.555 0 0 1 5.556-5.556h8.888A5.555 5.555 0 0 1 40 26.806v3.565a10.976 10.976 0 0 1-8.823 10.762 6.002 6.002 0 0 1-2.354 0Z"/></g><defs><clipPath id="ga"><path fill="#fff" d="M0 0h60v60H0z"/></clipPath></defs></svg><svg fill="none" viewBox="-1 -1 66 66" id="image-heartsun" xmlns="http://www.w3.org/2000/svg"><path d="m24.86 5.333 1.093 4.107M38.11 54.773l1.04 3.894M12.484 12.48l3.014 3.013M48.672 48.666l2.853 2.853M5.336 24.852l4.107 1.094M54.773 38.106l3.894 1.04M5.336 39.146l4.107-1.093M54.773 25.892l3.894-1.04M12.484 51.52l3.014-3.014M48.672 15.333l2.853-2.854M24.86 58.666l1.093-4.106M38.11 9.226l1.04-3.893M32 23.517c1.15-1.344 3.136-2.851 6.16-2.851 5.29 0 8.84 4.965 8.84 9.592 0 9.667-12.037 17.075-15 17.075-2.963 0-15-7.408-15-17.075 0-4.627 3.55-9.592 8.84-9.592 3.024 0 5.01 1.51 6.16 2.85Z" stroke="currentColor" stroke-width="3.5" stroke-linecap="round" stroke-linejoin="round"/></svg><svg fill="none" viewBox="-1 -1 42 42" id="image-idea" xmlns="http://www.w3.org/2000/svg"><g clip-path="url(#ia)" fill="currentColor"><path d="M20 9.037c-5.705 0-10.348 4.643-10.348 10.348 0 2.336.766 4.542 2.214 6.38.285.364.586.712.904 1.081l.017.02c.972 1.129 1.978 2.296 2.353 3.67.085.315.097.919.092 1.384v.79c0 .724.587 1.31 1.31 1.31h6.86a1.31 1.31 0 0 0 1.31-1.31v-.8c-.005-.607.027-1.05.09-1.28.378-1.365 1.492-2.676 2.484-3.843l.043-.05c.286-.337.557-.654.803-.967a10.218 10.218 0 0 0 2.216-6.384c0-5.706-4.642-10.349-10.348-10.349Zm6.073 15.112c-.215.274-.47.573-.74.89l-.052.061c-1.159 1.364-2.472 2.908-3.005 4.833-.075.273-.158.682-.18 1.467H17.85c-.018-.834-.103-1.262-.181-1.55-.533-1.95-1.844-3.472-2.898-4.694l-.017-.02a29.144 29.144 0 0 1-.83-.99 7.624 7.624 0 0 1-1.652-4.76c0-4.262 3.467-7.729 7.728-7.729 4.261 0 7.728 3.467 7.728 7.729 0 1.743-.572 3.39-1.655 4.763ZM23.401 34.392h-6.858a1.31 1.31 0 1 0 0 2.62h6.859a1.31 1.31 0 1 0 0-2.62ZM21.687 37.38h-3.43a1.31 1.31 0 1 0 0 2.62h3.43a1.31 1.31 0 0 0 0-2.62ZM38.076 18.076h-4.52a1.31 1.31 0 0 0 0 2.62h4.52a1.31 1.31 0 0 0 0-2.62ZM7.754 19.386a1.31 1.31 0 0 0-1.31-1.31h-4.52a1.31 1.31 0 0 0 0 2.62h4.52a1.31 1.31 0 0 0 1.31-1.31ZM20 7.14a1.31 1.31 0 0 0 1.31-1.31V1.31a1.31 1.31 0 0 0-2.62 0v4.52c0 .724.587 1.31 1.31 1.31ZM30.512 28.045a1.31 1.31 0 1 0-1.853 1.852l3.195 3.197a1.306 1.306 0 0 0 1.853 0 1.31 1.31 0 0 0 0-1.853l-3.195-3.196ZM9.487 10.725a1.306 1.306 0 0 0 1.852 0 1.31 1.31 0 0 0 0-1.852L8.146 5.678A1.31 1.31 0 1 0 6.293 7.53l3.194 3.195ZM9.488 28.045 6.293 31.24a1.31 1.31 0 1 0 1.852 1.852l3.196-3.196a1.31 1.31 0 1 0-1.853-1.852ZM29.586 11.11c.335 0 .67-.129.926-.385l3.195-3.195a1.31 1.31 0 1 0-1.852-1.852L28.66 8.873a1.31 1.31 0 0 0 .926 2.236Z"/></g><defs><clipPath id="ia"><path fill="#fff" d="M0 0h40v40H0z"/></clipPath></defs></svg><svg fill="none" viewBox="-1 -1 42 42" id="image-instagram-logo" xmlns="http://www.w3.org/2000/svg"><g clip-path="url(#ja)" fill="currentColor"><path d="M16.022 20A3.983 3.983 0 0 1 20 16.023 3.982 3.982 0 0 1 23.977 20 3.983 3.983 0 0 1 20 23.978 3.983 3.983 0 0 1 16.022 20Z"/><path fill-rule="evenodd" clip-rule="evenodd" d="M9.537 13.374a3.841 3.841 0 0 1 3.837-3.837h13.252a3.841 3.841 0 0 1 3.837 3.837v13.252a3.841 3.841 0 0 1-3.837 3.837H13.374a3.841 3.841 0 0 1-3.837-3.837V13.374ZM13.111 20c0 3.798 3.09 6.889 6.889 6.889 3.798 0 6.889-3.09 6.889-6.89a6.897 6.897 0 0 0-6.89-6.888A6.897 6.897 0 0 0 13.112 20Zm12.369-7.094c0 .899.731 1.63 1.63 1.63.899 0 1.63-.731 1.63-1.63 0-.899-.731-1.63-1.63-1.63-.899 0-1.63.731-1.63 1.63Z"/><path fill-rule="evenodd" clip-rule="evenodd" d="M20 0C8.954 0 0 8.954 0 20s8.954 20 20 20 20-8.954 20-20S31.046 0 20 0Zm6.626 33.373a6.754 6.754 0 0 0 6.747-6.747V13.374a6.754 6.754 0 0 0-6.747-6.747H13.374a6.754 6.754 0 0 0-6.747 6.747v13.252a6.754 6.754 0 0 0 6.747 6.747h13.252Z"/></g><defs><clipPath id="ja"><path fill="#fff" d="M0 0h40v40H0z"/></clipPath></defs></svg><svg fill="none" viewBox="-1 -1 42 42" id="image-ok-logo" xmlns="http://www.w3.org/2000/svg"><g clip-path="url(#ka)" fill="currentColor"><path d="M20 10.703a2.852 2.852 0 1 1 0 5.703 2.852 2.852 0 0 1 0-5.703Z"/><path fill-rule="evenodd" clip-rule="evenodd" d="M40 20c0 11.046-8.954 20-20 20S0 31.046 0 20 8.954 0 20 0s20 8.954 20 20Zm-20 .43a6.88 6.88 0 0 0 6.875-6.875c0-3.79-3.086-6.875-6.875-6.875-3.79 0-6.875 3.086-6.875 6.875S16.211 20.43 20 20.43Zm2.781 5.617c1.411-.32 2.758-.874 3.985-1.64A2.015 2.015 0 1 0 24.609 21a8.742 8.742 0 0 1-9.265 0 2.017 2.017 0 1 0-2.156 3.406 12.574 12.574 0 0 0 3.984 1.64l-3.828 3.852a2.017 2.017 0 0 0 2.851 2.852l3.782-3.79 3.78 3.782a2.016 2.016 0 1 0 2.852-2.851l-3.851-3.852.023.008Z"/></g><defs><clipPath id="ka"><path fill="#fff" d="M0 0h40v40H0z"/></clipPath></defs></svg><svg fill="none" viewBox="-1 -1 42 42" id="image-share" xmlns="http://www.w3.org/2000/svg"><g clip-path="url(#la)"><path d="M29.618 27.432c-1.24 0-2.395.36-3.368.98l-9.828-6.86a6.282 6.282 0 0 0 0-3.467l9.562-6.676a6.284 6.284 0 1 0-2.507-3.79l-9.804 6.846a6.284 6.284 0 1 0 0 10.707l9.88 6.898a6.284 6.284 0 1 0 6.064-4.638Z" fill="currentColor"/></g><defs><clipPath id="la"><path fill="#fff" d="M0 0h40v40H0z"/></clipPath></defs></svg><svg fill="none" viewBox="-1 -1 30 30" id="image-swiper-arrow" xmlns="http://www.w3.org/2000/svg"><path fill-rule="evenodd" clip-rule="evenodd" d="M11.586 8.414a2 2 0 1 1 2.828-2.828l6.418 6.418a3 3 0 0 1 0 4.242l-6.418 6.418a2 2 0 1 1-2.828-2.828l5.71-5.711-5.71-5.71Z" fill="currentColor"/></svg><svg fill="none" viewBox="-1 -1 42 42" id="image-telegram-logo" xmlns="http://www.w3.org/2000/svg"><g clip-path="url(#na)"><path d="M20 0C8.955 0 0 8.955 0 20s8.955 20 20 20 20-8.955 20-20S31.045 0 20 0Zm9.823 13.702L26.54 29.168c-.242 1.097-.895 1.364-1.807.847l-5-3.683-2.41 2.323c-.233.3-.595.492-1 .492h-.008l.355-5.09 9.267-8.37c.4-.355-.09-.557-.622-.202l-11.448 7.21-4.934-1.54c-1.066-.338-1.096-1.067.225-1.59l19.277-7.43c.897-.327 1.677.213 1.387 1.568l.001-.001Z" fill="currentColor"/></g><defs><clipPath id="na"><path fill="#fff" d="M0 0h40v40H0z"/></clipPath></defs></svg><svg fill="none" viewBox="-1 -1 42 42" id="image-tiktok-logo" xmlns="http://www.w3.org/2000/svg"><g clip-path="url(#oa)"><path fill-rule="evenodd" clip-rule="evenodd" d="M40 20C40 8.954 31.046 0 20 0S0 8.954 0 20s8.954 20 20 20 20-8.954 20-20Zm-10.89-7.868a6.085 6.085 0 0 1-.526-.307 7.41 7.41 0 0 1-1.353-1.152c-1.01-1.156-1.387-2.329-1.526-3.15h.006c-.116-.682-.068-1.123-.06-1.123h-4.598v17.798c0 .239 0 .475-.01.708 0 .02-.001.038-.003.058v.014l-.001.015c0 .013 0 .027-.003.04v.01a3.912 3.912 0 0 1-1.964 3.102c-.58.33-1.235.503-1.902.502-2.142 0-3.878-1.748-3.878-3.908s1.736-3.908 3.878-3.908c.405 0 .808.064 1.193.19l.006-4.687a8.53 8.53 0 0 0-6.58 1.927 9.031 9.031 0 0 0-1.968 2.43c-.195.335-.927 1.682-1.015 3.866-.056 1.24.316 2.525.493 3.056v.011c.112.313.544 1.38 1.248 2.279a9.345 9.345 0 0 0 1.992 1.88v-.01l.01.01c2.226 1.515 4.694 1.416 4.694 1.416l.113-.004c.53-.016 1.867-.055 3.37-.767 1.802-.855 2.828-2.129 2.828-2.129a8.851 8.851 0 0 0 1.541-2.564c.416-1.095.555-2.408.555-2.933V15.36c.056.034.799.526.799.526s1.07.686 2.74 1.134c1.197.318 2.811.385 2.811.385v-4.57c-.565.062-1.714-.117-2.89-.703Z" fill="currentColor"/></g><defs><clipPath id="oa"><path fill="#fff" d="M0 0h40v40H0z"/></clipPath></defs></svg><svg fill="none" viewBox="-1 -1 42 42" id="image-twitter-logo" xmlns="http://www.w3.org/2000/svg"><g clip-path="url(#pa)"><path fill-rule="evenodd" clip-rule="evenodd" d="M20 0C8.954 0 0 8.954 0 20s8.954 20 20 20 20-8.954 20-20S31.046 0 20 0Zm11.027 15.087c0-.246-.005-.49-.016-.735 1.11-.8 2.073-1.801 2.835-2.94a11.36 11.36 0 0 1-3.263.894 5.698 5.698 0 0 0 2.498-3.143 11.372 11.372 0 0 1-3.608 1.379 5.674 5.674 0 0 0-4.147-1.794 5.682 5.682 0 0 0-5.534 6.976 16.13 16.13 0 0 1-11.71-5.937c-.49.84-.77 1.816-.77 2.857 0 1.97 1.003 3.71 2.528 4.729a5.66 5.66 0 0 1-2.573-.711v.072a5.685 5.685 0 0 0 4.557 5.57 5.705 5.705 0 0 1-2.566.098 5.687 5.687 0 0 0 5.307 3.945 11.398 11.398 0 0 1-7.056 2.432c-.459 0-.91-.027-1.355-.08a16.078 16.078 0 0 0 8.709 2.553c10.45 0 16.164-8.657 16.164-16.165Z" fill="currentColor"/></g><defs><clipPath id="pa"><path fill="#fff" d="M0 0h40v40H0z"/></clipPath></defs></svg><svg fill="none" viewBox="-1 -1 42 42" id="image-vk-logo" xmlns="http://www.w3.org/2000/svg"><g clip-path="url(#qa)"><path fill-rule="evenodd" clip-rule="evenodd" d="M20 0C8.954 0 0 8.954 0 20s8.954 20 20 20 20-8.954 20-20S31.046 0 20 0Zm10.72 22.831a66.491 66.491 0 0 1-.733-.701c-.828-.808-.88-1.277-.216-2.21.386-.54.787-1.069 1.188-1.597.354-.468.71-.936 1.054-1.412l.078-.108c.659-.911 1.321-1.827 1.666-2.916.23-.722.026-1.04-.712-1.168-.128-.021-.26-.021-.39-.021l-4.388-.006c-.54-.008-.838.228-1.03.707a26.465 26.465 0 0 1-.832 1.918c-.696 1.417-1.475 2.787-2.567 3.945l-.046.05c-.23.245-.488.521-.865.396-.502-.183-.651-1.012-.642-1.292l-.004-5.066c-.098-.722-.259-1.046-.978-1.186h-4.558c-.607 0-.913.236-1.239.616-.185.22-.243.362.142.436.756.143 1.184.633 1.296 1.39.18 1.213.168 2.43.064 3.647-.03.355-.091.709-.232 1.04-.22.524-.577.63-1.044.307-.421-.29-.719-.7-1.011-1.11-1.094-1.546-1.965-3.211-2.677-4.961-.205-.506-.56-.812-1.095-.82a110.492 110.492 0 0 0-3.951 0c-.79.015-1.027.4-.704 1.119 1.433 3.19 3.03 6.29 5.113 9.114 1.069 1.448 2.297 2.73 3.884 3.636 1.797 1.027 3.732 1.337 5.772 1.242.954-.046 1.24-.294 1.285-1.244.03-.651.104-1.3.425-1.884.314-.574.792-.683 1.343-.326a3.8 3.8 0 0 1 .725.648c.177.193.353.39.528.585.356.398.712.795 1.085 1.175.7.712 1.53 1.132 2.57 1.046l4.033.002c.649-.044.987-.84.614-1.566-.262-.508-.607-.959-.971-1.397-.607-.729-1.293-1.379-1.98-2.028Z" fill="currentColor"/></g><defs><clipPath id="qa"><path fill="#fff" d="M0 0h40v40H0z"/></clipPath></defs></svg></svg>