<svg width="64" height="24" viewBox="0 0 64 24" fill="none" xmlns="http://www.w3.org/2000/svg">
<g clip-path="url(#clip0_5464_17608)">
<path d="M23.0285 22.8258C23.0374 23.1098 22.813 23.315 22.529 23.315H21.7828V22.3572H22.5342C22.7993 22.3572 23.0197 22.5418 23.0285 22.8258ZM41.5295 21.0652V23.9171C41.5295 23.9662 41.4859 23.9994 41.4366 23.9994H40.8396C40.7921 23.9994 40.7467 23.965 40.7467 23.9171V21.0652H39.8099C39.7622 21.0652 39.7277 21.0199 39.7277 20.9726V20.4835C39.7277 20.4343 39.7609 20.3907 39.8099 20.3907H42.4818C42.5307 20.3907 42.5639 20.4343 42.5639 20.4835V20.9726C42.5639 21.0199 42.5295 21.0652 42.4818 21.0652H41.5295ZM26.5738 23.8812V23.4073C26.5738 23.372 26.5474 23.3202 26.4867 23.3202H25.0881C25.0028 23.3202 24.834 23.2608 24.834 23.044V22.3575H26.3204C26.3826 22.3575 26.409 22.3043 26.409 22.273V21.7908C26.409 21.7403 26.374 21.7034 26.3114 21.7034H24.834V21.3185C24.834 21.155 24.9696 21.0652 25.0881 21.0652H26.4824C26.5475 21.0652 26.5738 21.015 26.5738 20.9781V20.4782C26.5738 20.4287 26.5369 20.391 26.476 20.3907L25.0241 20.3839C24.4787 20.3814 24.0513 20.8382 24.0513 21.3433V23.0522C24.0513 23.5764 24.4942 23.9994 25.0039 23.9994H26.4852C26.5375 23.9994 26.5726 23.961 26.5738 23.9122C26.574 23.9035 26.5738 23.8917 26.5738 23.8812M32.4968 22.0794V22.0537C32.6075 21.9867 32.7003 21.8992 32.7732 21.792C32.8469 21.6848 32.901 21.5578 32.9345 21.4119L33.1713 20.4928C33.1801 20.452 33.1525 20.3907 33.0852 20.3907H32.5226C32.5037 20.39 32.4841 20.3934 32.4632 20.4021C32.443 20.4096 32.4282 20.4305 32.4197 20.463L32.1881 21.3296C32.1605 21.4349 32.1237 21.5191 32.0782 21.5808C32.0327 21.6437 31.9821 21.69 31.9264 21.7198C31.8713 21.7499 31.8149 21.7697 31.7583 21.779C31.7007 21.7876 31.6467 21.792 31.596 21.791H31.1894V20.4767C31.1894 20.4212 31.1426 20.3907 31.1035 20.3907H30.4994C30.4483 20.3907 30.407 20.4278 30.407 20.4733V23.9171C30.407 23.965 30.452 23.9994 30.4994 23.9994H31.0968C31.146 23.9994 31.1894 23.9662 31.1894 23.9171V22.3881H31.6062C31.7255 22.3865 31.8268 22.3977 31.9093 22.4216C31.9915 22.4449 32.06 22.4878 32.1151 22.5504C32.1693 22.6132 32.2145 22.7033 32.2498 22.8207L32.5669 23.9378C32.5842 23.9836 32.6158 23.9994 32.6489 23.9994H33.2464C33.3219 24.0031 33.3441 23.9304 33.3361 23.8966L33.0168 22.7022C32.9973 22.6251 32.9747 22.5545 32.9516 22.4922C32.9277 22.4286 32.8976 22.372 32.8608 22.3213C32.8246 22.2707 32.7766 22.2253 32.7184 22.185C32.6598 22.1456 32.5863 22.1103 32.4968 22.0794M34.6638 22.6096L34.8595 21.9576L35.055 21.2231H35.0859L35.2763 21.9576L35.472 22.6096H34.6638ZM35.6573 23.2479L35.858 23.9171C35.8752 23.9786 35.908 23.9994 35.9466 23.9994H36.5981C36.659 23.9992 36.6987 23.9483 36.6838 23.8873L35.6161 20.6733C35.5658 20.5166 35.4906 20.3907 35.3085 20.3907L34.8462 20.3921C34.7545 20.3862 34.6739 20.4175 34.6115 20.5C34.5796 20.5415 34.5523 20.5985 34.53 20.6733L33.4631 23.8831C33.4393 23.9546 33.4993 23.9994 33.5468 23.9994H34.173C34.1928 23.9994 34.2357 24.0023 34.2621 23.9464C34.268 23.9338 34.2739 23.9162 34.2776 23.9018L34.4783 23.2479H35.6573ZM38.8637 21.538C38.8635 21.7896 38.6633 22.0106 38.3912 22.0104L37.6898 22.0097V21.0652H38.359C38.6622 21.0559 38.8643 21.286 38.8637 21.538M37.6898 23.8914V22.6848H38.5452C39.1369 22.6848 39.6915 22.2008 39.6819 21.5183C39.6819 21.3543 39.6407 21.2004 39.5806 21.0652C39.4385 20.7474 39.1796 20.535 38.8736 20.4417C38.7485 20.4034 38.6119 20.3921 38.4775 20.3907H37.1714C37.0323 20.3907 36.9161 20.4867 36.9099 20.6383C36.9091 20.6591 36.9069 20.6814 36.9072 20.7049V23.9122C36.9072 23.9622 36.9444 23.9992 36.9958 23.9994H37.6034C37.635 23.9994 37.6652 23.9806 37.6793 23.9532C37.6879 23.936 37.6898 23.9162 37.6898 23.8914M21.2545 23.9994H22.6063C23.2746 24.023 23.8201 23.5593 23.842 22.867C23.8427 22.8077 23.8461 22.7369 23.8297 22.6594C23.7116 22.0929 23.2638 21.7034 22.6934 21.7034H21.7828V21.0601H23.3372C23.3963 21.0615 23.4314 21.0194 23.4299 20.9624V20.5042C23.4313 20.4414 23.4079 20.3893 23.3372 20.3907H21.2732C21.062 20.3907 21 20.5455 21 20.6451V23.7458C21 23.8854 21.1102 23.9994 21.2545 23.9994M27.4275 20.7357L27.3811 21.5183C27.3657 21.7852 27.3486 22.0158 27.3304 22.2134C27.3021 22.5389 27.2693 23.3202 26.8472 23.3202H26.8306C26.7927 23.3196 26.7444 23.3519 26.7444 23.404V23.8812V23.9066C26.7444 23.9617 26.7813 23.9994 26.8315 23.9994H26.8692C27.187 23.9982 27.4662 23.9647 27.7063 23.6014C27.7816 23.4875 27.8478 23.3596 27.895 23.2144C27.943 23.0694 27.9807 22.9063 28.0083 22.7272C28.0358 22.548 28.0581 22.3504 28.0761 22.1342C28.0932 21.9189 28.1104 21.6848 28.1275 21.4308L28.1482 21.0704H29.1519V23.9125C29.1519 23.9605 29.1934 24.0041 29.2446 23.9994H29.8412C29.9033 23.9994 29.9345 23.9568 29.9345 23.9069V20.6451C29.9349 20.5099 29.8218 20.3907 29.6623 20.3907H27.6871C27.5354 20.3907 27.4455 20.5235 27.439 20.6337C27.4369 20.665 27.4294 20.6985 27.4275 20.7357Z" fill="white"/>
<path fill-rule="evenodd" clip-rule="evenodd" d="M38.3809 13.8884C38.4594 13.9669 38.5879 13.9669 38.6668 13.8884L41.3825 11.1728C41.4611 11.0939 41.4611 10.9654 41.3825 10.8869L37.2976 6.80207L39.424 7.96971C39.5352 7.96971 39.6259 7.87858 39.6259 7.76752V3.927C39.6259 3.81593 39.5352 3.72511 39.424 3.72511H33.6468L35.9974 3.06035C36.076 2.98178 36.076 2.85329 35.9974 2.77472L33.2816 0.0588553C33.203 -0.0197156 33.0745 -0.0197156 32.9959 0.0588553L28.8739 4.19579L28.8729 4.19697H28.8726L28.8747 4.19328L28.8812 4.18161L30.1082 1.99078C30.1082 1.87972 30.0173 1.78889 29.9063 1.78889H26.0655C25.9544 1.78889 25.8636 1.87972 25.8636 1.99078V7.76782L25.1827 5.42014C25.1039 5.34142 24.9754 5.34142 24.8968 5.42014L22.1812 8.13571C22.1024 8.21428 22.1024 8.34307 22.1812 8.42164L26.266 12.5064L24.1455 11.3387C24.0343 11.3387 23.9435 11.4298 23.9435 11.541V15.3814C23.9435 15.4926 24.0343 15.5834 24.1455 15.5834H29.9224L27.5762 16.2461C27.4976 16.3247 27.4976 16.4534 27.5762 16.532L30.292 19.2476C30.3706 19.3262 30.4991 19.3262 30.5777 19.2476L34.6459 15.1795L33.4528 17.3115C33.4528 17.4226 33.5437 17.5137 33.6549 17.5137H37.4955C37.6065 17.5137 37.6977 17.4226 37.6977 17.3115V11.5346M37.6977 11.5346L38.3809 13.8884ZM37.0116 6.80207L34.2961 9.51764C34.2172 9.59621 34.2172 9.725 34.2961 9.80357L35.6278 11.1353L37.4955 11.3323H33.6549C33.5437 11.3323 33.4528 11.4234 33.4528 11.5346V13.3382L34.6625 14.8769L31.9469 12.1613C31.8683 12.0827 31.7398 12.0827 31.6613 12.1613L30.3657 13.4568L30.1246 15.3814V11.541C30.1246 11.4298 30.0336 11.3387 29.9224 11.3387H27.9825L26.5519 12.5064L29.2675 9.79087C29.3461 9.7123 29.3461 9.58351 29.2675 9.50494L27.9079 8.14531L26.0655 7.97H29.9063C30.0173 7.97 30.1082 7.87917 30.1082 7.76782V5.93366L28.9109 4.42959L31.6267 7.14545C31.7053 7.22402 31.8341 7.22402 31.9126 7.14545L33.2476 5.81034L33.4449 3.927V7.76752C33.4449 7.87858 33.5358 7.96971 33.6468 7.96971H35.559L37.0116 6.80207Z" fill="white"/>
</g>
<defs>
<clipPath id="clip0_5464_17608">
<rect width="64" height="24" fill="white"/>
</clipPath>
</defs>
</svg>
