<svg width="64" height="24" viewBox="0 0 64 24" fill="none" xmlns="http://www.w3.org/2000/svg">
<path fill-rule="evenodd" clip-rule="evenodd" d="M30.419 1L30.5467 1.50333H30.9603L30.6258 1.81441L30.7535 2.31775L30.419 2.00667L30.0844 2.31775L30.2122 1.81441L29.8776 1.50333H30.2912L30.419 1ZM28.9012 1.16187L29.0289 1.66521H29.4425L29.108 1.97629L29.2357 2.47962L28.9012 2.16855L28.5666 2.47962L28.6944 1.97629L28.3598 1.66521H28.7734L28.9012 1.16187ZM26.2463 3.28395L26.1186 2.78062L25.9908 3.28395H25.5772L25.9118 3.59504L25.784 4.09837L26.1186 3.78728L26.4531 4.09837L26.3254 3.59504L26.6599 3.28395H26.2463ZM34.5299 13.7693L34.6561 5.85623V5.3737C34.6561 5.32101 34.6361 5.27163 34.6025 5.24131L33.0182 3.81454C32.9762 3.77664 32.9203 3.77516 32.877 3.81075L32.1336 4.42241C32.0909 4.4575 32.036 4.4566 31.9941 4.42011L30.5506 3.16393C30.509 3.12776 30.4548 3.12653 30.4121 3.16081L28.8454 4.42333C28.8025 4.45788 28.7476 4.45635 28.706 4.41943L28.0266 3.8174C27.9823 3.77817 27.9234 3.77912 27.88 3.8198L26.3602 5.24117C26.3275 5.27165 26.3083 5.32021 26.3083 5.37187V5.85623L26.4348 13.7881C26.7507 17.9118 33.2519 20.0968 34.5259 13.8068C34.5284 13.7947 34.5298 13.7818 34.5299 13.7693ZM8.87905 11.8825H9.25217C9.46298 12.7 9.80237 13.2944 10.2704 13.6657C10.7426 14.037 11.2822 14.2226 11.8893 14.2226C12.4796 14.2226 12.899 14.0959 13.1478 13.8424C13.3966 13.5854 13.5209 13.3158 13.5209 13.0338C13.5209 12.7054 13.3903 12.4376 13.1289 12.2306C12.956 12.0949 12.6082 11.9182 12.0854 11.7004L11.2443 11.347C10.4095 10.9972 9.82134 10.6509 9.47984 10.3082C9.13834 9.96545 8.96759 9.54241 8.96759 9.03905C8.96759 8.50355 9.19315 8.00376 9.64427 7.53967C10.0996 7.07558 10.7953 6.84353 11.7312 6.84353C12.2076 6.84353 12.6672 6.90423 13.1099 7.02561C13.5567 7.14698 13.8119 7.20767 13.8751 7.20767C14.0184 7.20767 14.1176 7.17375 14.1723 7.10593C14.2271 7.03452 14.2714 6.94171 14.3051 6.82747H14.6909V9.21576H14.3304C14.1575 8.66241 13.852 8.18584 13.4134 7.78599C12.9792 7.38616 12.4501 7.18625 11.8261 7.18625C11.3876 7.18625 11.0398 7.28799 10.7826 7.49148C10.5296 7.69139 10.4032 7.93594 10.4032 8.22509C10.4032 8.57139 10.5233 8.83021 10.7636 9.00155C10.9997 9.17649 11.5246 9.43352 12.3383 9.77266L13.3123 10.1796C13.7465 10.3617 14.0923 10.5634 14.3494 10.7847C14.83 11.1989 15.0704 11.7022 15.0704 12.2948C15.0704 12.8482 14.8111 13.3712 14.2925 13.8638C13.7781 14.3529 12.9518 14.5974 11.8134 14.5974C11.552 14.5974 11.2864 14.576 11.0166 14.5332C10.751 14.4939 10.4875 14.4314 10.2261 14.3458L9.97312 14.2654C9.91409 14.2512 9.85718 14.2404 9.80237 14.2333C9.74757 14.2226 9.70119 14.2172 9.66324 14.2172C9.52832 14.2172 9.43557 14.2512 9.38498 14.319C9.33439 14.3832 9.29012 14.4761 9.25217 14.5974H8.87905V11.8825ZM0 14.1637C0.349935 14.153 0.600791 14.1137 0.752569 14.0459C1.00975 13.9316 1.13834 13.7139 1.13834 13.3926V8.08587C1.13834 7.76458 1.01818 7.5486 0.777866 7.43793C0.63452 7.37011 0.375231 7.32726 0 7.30942V7.03096H4.00316C4.7747 7.03096 5.41555 7.10593 5.92569 7.25587C6.88696 7.53789 7.36759 8.05195 7.36759 8.79808C7.36759 9.25146 7.17154 9.61202 6.77945 9.87977C6.39156 10.1439 5.96996 10.3117 5.51462 10.3831V10.4849C5.99526 10.5634 6.41265 10.6955 6.7668 10.8811C7.45824 11.2453 7.80395 11.7522 7.80395 12.4019C7.80395 13.0088 7.47299 13.5015 6.81107 13.8799C6.14915 14.2547 5.26798 14.4421 4.16759 14.4421H0V14.1637ZM3.20632 10.3563C4.00737 10.3563 4.54492 10.2457 4.81897 10.0243C5.09302 9.80301 5.23004 9.41032 5.23004 8.84627C5.23004 8.42859 5.13939 8.07695 4.9581 7.79135C4.78103 7.50576 4.43741 7.36297 3.92727 7.36297C3.65745 7.36297 3.46982 7.40224 3.36443 7.48076C3.25903 7.55574 3.20632 7.69317 3.20632 7.89309V10.3563ZM3.20632 13.4301C3.21054 13.6228 3.24427 13.7638 3.30751 13.8531C3.41291 14.0102 3.61528 14.0887 3.91462 14.0887C4.52595 14.0887 4.95389 13.9477 5.19842 13.6657C5.44717 13.3837 5.57154 12.982 5.57154 12.4608C5.57154 11.6826 5.2996 11.1649 4.75573 10.9079C4.42688 10.7508 3.91041 10.6776 3.20632 10.6883V13.4301ZM16.6008 14.0459C16.449 14.1137 16.1982 14.153 15.8482 14.1637V14.4421H20.0158C21.1162 14.4421 21.9974 14.2547 22.6593 13.8799C23.3212 13.5015 23.6522 13.0088 23.6522 12.4019C23.6522 11.7522 23.3065 11.2453 22.615 10.8811C22.2609 10.6955 21.8435 10.5634 21.3628 10.4849V10.3831C21.8182 10.3117 22.2397 10.1439 22.6277 9.87977C23.0198 9.61202 23.2158 9.25146 23.2158 8.79808C23.2158 8.05195 22.7352 7.53789 21.7739 7.25587C21.2638 7.10593 20.6229 7.03096 19.8514 7.03096H15.8482V7.30942C16.2235 7.32726 16.4828 7.37011 16.6261 7.43793C16.8664 7.5486 16.9866 7.76458 16.9866 8.08587V13.3926C16.9866 13.7139 16.8579 13.9316 16.6008 14.0459ZM20.6672 10.0243C20.3931 10.2457 19.8556 10.3563 19.0545 10.3563V7.89309C19.0545 7.69317 19.1073 7.55574 19.2126 7.48076C19.318 7.40224 19.5057 7.36297 19.7755 7.36297C20.2856 7.36297 20.6292 7.50576 20.8063 7.79135C20.9876 8.07695 21.0783 8.42859 21.0783 8.84627C21.0783 9.41032 20.9413 9.80301 20.6672 10.0243ZM19.1557 13.8531C19.0925 13.7638 19.0587 13.6228 19.0545 13.4301V10.6883C19.7587 10.6776 20.2751 10.7508 20.604 10.9079C21.1478 11.1649 21.4198 11.6826 21.4198 12.4608C21.4198 12.982 21.2954 13.3837 21.0466 13.6657C20.8022 13.9477 20.3741 14.0887 19.7628 14.0887C19.4635 14.0887 19.2611 14.0102 19.1557 13.8531ZM37.7634 14.0547C37.6214 14.1214 37.3866 14.16 37.0593 14.1706V14.4446H40.9585C41.988 14.4446 42.8125 14.2602 43.4317 13.8913C44.051 13.5189 44.3606 13.0341 44.3606 12.4368C44.3606 11.7974 44.0372 11.2985 43.3902 10.9402C43.059 10.7575 42.6684 10.6275 42.2188 10.5502V10.4501C42.6447 10.3798 43.0392 10.2147 43.4021 9.95475C43.7689 9.69125 43.9523 9.33642 43.9523 8.89025C43.9523 8.15599 43.5027 7.6501 42.6034 7.37255C42.126 7.225 41.5265 7.15122 40.8047 7.15122H37.0593V7.42526C37.4104 7.44282 37.653 7.48497 37.7871 7.55173C38.012 7.66064 38.1243 7.87318 38.1243 8.18937V13.4117C38.1243 13.7279 38.004 13.9422 37.7634 14.0547ZM41.5679 10.097C41.3115 10.3149 40.8086 10.4238 40.0591 10.4238V7.99965C40.0591 7.80293 40.1084 7.66766 40.2071 7.59388C40.3057 7.51659 40.4811 7.47795 40.7336 7.47795C41.2109 7.47795 41.5325 7.61847 41.698 7.89953C41.8676 8.18058 41.9525 8.52663 41.9525 8.93768C41.9525 9.49276 41.8243 9.87922 41.5679 10.097ZM40.1538 13.8649C40.0946 13.7771 40.0631 13.6383 40.0591 13.4486V10.7505C40.7179 10.7399 41.2011 10.812 41.5087 10.9665C42.0175 11.2195 42.272 11.7289 42.272 12.4948C42.272 13.0077 42.1556 13.4029 41.9229 13.6805C41.6941 13.958 41.2938 14.0968 40.7218 14.0968C40.4417 14.0968 40.2525 14.0195 40.1538 13.8649ZM47.9003 13.6699C47.7307 13.7753 47.5473 13.828 47.3501 13.828C47.2003 13.828 47.0642 13.7683 46.9419 13.6489C46.8235 13.5259 46.7643 13.3467 46.7643 13.1113C46.7643 12.7144 46.9714 12.3876 47.3856 12.1312C47.6302 11.9801 47.9141 11.8694 48.2377 11.7992V13.3748C48.1074 13.5083 47.9951 13.6067 47.9003 13.6699ZM45.7881 12.284C45.2634 12.5686 45.0011 12.9533 45.0011 13.4381C45.0011 13.8351 45.145 14.1284 45.433 14.3181C45.721 14.5043 46.0307 14.5974 46.3619 14.5974C46.6105 14.5974 46.8629 14.5588 47.1193 14.4815C47.5414 14.3585 47.9201 14.1477 48.2554 13.8491C48.2988 14.0564 48.3678 14.2127 48.4624 14.3181C48.6281 14.5043 48.8904 14.5974 49.2494 14.5974C49.4505 14.5974 49.6419 14.5658 49.8234 14.5026C50.1112 14.4042 50.3736 14.2321 50.6102 13.9861L50.4268 13.7595C50.3479 13.8298 50.2888 13.8737 50.2494 13.8913C50.2138 13.9053 50.1725 13.9124 50.125 13.9124C50.0699 13.9124 50.0185 13.886 49.9712 13.8333C49.9278 13.7771 49.9061 13.7103 49.9061 13.6331V11.0193C49.9061 10.3798 49.6774 9.9407 49.2198 9.70179C48.7583 9.46641 48.1844 9.34873 47.498 9.34873C46.859 9.34873 46.3206 9.46992 45.8827 9.71235C45.4449 9.95475 45.226 10.2832 45.226 10.6978C45.226 10.9297 45.3068 11.1071 45.4686 11.23C45.6342 11.353 45.8334 11.4145 46.0661 11.4145C46.2673 11.4145 46.4429 11.36 46.5928 11.2511C46.7466 11.1387 46.8235 10.9806 46.8235 10.7768C46.8235 10.696 46.8058 10.6205 46.7702 10.5502C46.7387 10.4765 46.6953 10.4097 46.6401 10.35L46.5691 10.2762C46.5375 10.2446 46.5138 10.2147 46.498 10.1866C46.4823 10.1585 46.4744 10.1234 46.4744 10.0812C46.4744 9.97231 46.5434 9.88273 46.6815 9.81246C46.8235 9.73868 47.0029 9.70179 47.2199 9.70179C47.6065 9.70179 47.8747 9.77909 48.0247 9.93368C48.1785 10.0847 48.2554 10.3201 48.2554 10.6398V11.425C47.1351 11.7131 46.3127 11.9994 45.7881 12.284ZM50.9475 14.1864C51.1684 14.1618 51.3302 14.1091 51.4327 14.0283C51.5392 13.944 51.5925 13.7789 51.5925 13.5329V10.3605C51.5925 10.1427 51.5491 9.99164 51.4623 9.90732C51.3795 9.823 51.2078 9.7668 50.9475 9.73868V9.4752H53.2432V10.2499C53.4365 9.98988 53.6811 9.77557 53.9769 9.60695C54.2767 9.4348 54.6081 9.34873 54.9709 9.34873C55.4917 9.34873 55.894 9.46817 56.178 9.70707C56.466 9.94596 56.6099 10.3658 56.6099 10.9665V13.5751C56.6099 13.8175 56.6553 13.9738 56.746 14.0441C56.8406 14.1144 56.9964 14.1618 57.2135 14.1864V14.4446H54.3674V14.1864C54.5844 14.1477 54.7323 14.095 54.8112 14.0283C54.8901 13.9615 54.9296 13.8105 54.9296 13.5751V10.9613C54.9296 10.7153 54.9019 10.5309 54.8467 10.408C54.752 10.1866 54.5647 10.0759 54.2846 10.0759C54.0756 10.0759 53.8823 10.1445 53.7047 10.2815C53.5312 10.415 53.3971 10.5502 53.3024 10.6872V13.5751C53.3024 13.8105 53.3419 13.9615 53.4208 14.0283C53.4996 14.095 53.6476 14.1477 53.8645 14.1864V14.4446H50.9475V14.1864ZM58.1424 14.0072C58.0556 14.081 57.9057 14.1407 57.6927 14.1864V14.4446H60.58V14.1864C60.3039 14.1548 60.1324 14.0986 60.0653 14.0178C59.9982 13.937 59.9647 13.7753 59.9647 13.5329V12.3103L60.231 12.0469L61.3789 13.496C61.5091 13.6612 61.5899 13.7753 61.6215 13.8386C61.6569 13.8983 61.6748 13.9457 61.6748 13.9809C61.6748 14.0476 61.6333 14.0968 61.5504 14.1284C61.4715 14.16 61.3453 14.1794 61.1717 14.1864V14.4446H64V14.1864C63.929 14.1758 63.8718 14.1618 63.8284 14.1442C63.785 14.1232 63.7397 14.0828 63.6923 14.023L61.3493 11.151L62.2901 10.3026C62.5346 10.0847 62.787 9.93016 63.0473 9.83882C63.1933 9.78962 63.3906 9.75098 63.639 9.72288V9.4752H61.0416V9.72288C61.3019 9.74396 61.4854 9.77206 61.5919 9.80719C61.7023 9.84233 61.7575 9.91435 61.7575 10.0233C61.7575 10.0654 61.7379 10.1234 61.6984 10.1972C61.6589 10.2674 61.5938 10.343 61.5031 10.4238L59.9647 11.7992V7.15122H57.6927V7.4147C57.9175 7.46038 58.0714 7.51835 58.1542 7.58862C58.237 7.65887 58.2785 7.80819 58.2785 8.03654V13.5329C58.2785 13.7718 58.233 13.9299 58.1424 14.0072ZM27.5111 2.31271L27.3834 1.80937L27.2557 2.31271H26.8421L27.1766 2.62379L27.0489 3.12712L27.3834 2.81603L27.7179 3.12712L27.5902 2.62379L27.9247 2.31271H27.5111ZM32.191 1.82708L32.0632 1.32375L31.9355 1.82708H31.5219L31.8564 2.13816L31.7287 2.6415L32.0632 2.33042L32.3978 2.6415L32.27 2.13816L32.6046 1.82708H32.191ZM33.581 1.80937L33.7088 2.31271H34.1224L33.7878 2.62379L33.9156 3.12712L33.581 2.81603L33.2465 3.12712L33.3742 2.62379L33.0397 2.31271H33.4533L33.581 1.80937ZM34.8471 3.28395L34.7194 2.78062L34.5916 3.28395H34.178L34.5126 3.59504L34.3848 4.09837L34.7194 3.78728L35.0539 4.09837L34.9262 3.59504L35.2607 3.28395H34.8471Z" fill="white"/>
<path d="M29.6044 16.5586H27.9268L28.0793 15.6283L28.2318 13.0368L28.0793 12.771V12.4387H28.2318L28.7402 11.6413L28.791 10.9768H29.1977L29.096 11.1762L29.1977 11.442H28.791V11.5749L29.2994 12.3058L29.4519 12.4387V12.771L29.3502 13.0368V13.9006H29.5536V13.7013L29.7569 13.6348V13.9006H30.062V13.6348H30.3162V13.9006H30.7229V13.6348L30.9771 13.5684V13.9006H31.2313V13.5684H31.4855V13.9006H31.6888V13.0368L31.4855 12.9039V12.4387L31.6888 12.3058L32.248 11.5749V10.9768H32.7056L32.6039 11.1762L32.7056 11.442H32.2989V11.5749L32.8581 12.3058H33.0106V12.771L32.8581 13.0368L33.0106 15.6947L33.1631 16.4257H31.3838H30.7737H30.2145H29.6044V16.5586Z" fill="#303138"/>
</svg>
