<svg width="64" height="24" viewBox="0 0 64 24" fill="none" xmlns="http://www.w3.org/2000/svg">
<ellipse cx="27.1714" cy="11.9077" rx="8.17143" ry="7.90784" fill="white"/>
<ellipse cx="36.8287" cy="11.9077" rx="8.17143" ry="7.90784" fill="white"/>
<mask id="path-3-inside-1_5464_17598" fill="white">
<path fill-rule="evenodd" clip-rule="evenodd" d="M32.0001 18.2884C34.027 16.8493 35.343 14.5275 35.343 11.9082C35.343 9.28889 34.027 6.96703 32.0001 5.52797C29.9731 6.96703 28.6572 9.28889 28.6572 11.9082C28.6572 14.5275 29.9731 16.8493 32.0001 18.2884Z"/>
</mask>
<path fill-rule="evenodd" clip-rule="evenodd" d="M32.0001 18.2884C34.027 16.8493 35.343 14.5275 35.343 11.9082C35.343 9.28889 34.027 6.96703 32.0001 5.52797C29.9731 6.96703 28.6572 9.28889 28.6572 11.9082C28.6572 14.5275 29.9731 16.8493 32.0001 18.2884Z" fill="white"/>
<path d="M32.0001 18.2883L31.8843 18.4513L32.0001 18.5335L32.1159 18.4513L32.0001 18.2883ZM32.0001 5.52783L32.1159 5.36475L32.0001 5.28255L31.8843 5.36475L32.0001 5.52783ZM35.1429 11.908C35.1429 14.4582 33.8621 16.721 31.8843 18.1252L32.1159 18.4513C34.192 16.9774 35.5429 14.5965 35.5429 11.908H35.1429ZM31.8843 5.69091C33.8621 7.09508 35.1429 9.35793 35.1429 11.908H35.5429C35.5429 9.21957 34.192 6.83871 32.1159 5.36475L31.8843 5.69091ZM28.8572 11.908C28.8572 9.35793 30.1381 7.09508 32.1159 5.69091L31.8843 5.36475C29.8082 6.83871 28.4572 9.21957 28.4572 11.908H28.8572ZM32.1159 18.1252C30.1381 16.721 28.8572 14.4582 28.8572 11.908H28.4572C28.4572 14.5965 29.8082 16.9774 31.8843 18.4513L32.1159 18.1252Z" fill="#303138" mask="url(#path-3-inside-1_5464_17598)"/>
</svg>
