<svg width="64" height="24" viewBox="0 0 64 24" fill="none" xmlns="http://www.w3.org/2000/svg">
<path d="M21.0698 17.2198V16.8582C21.5973 16.7846 21.807 16.6285 21.907 15.9904V8.14391C21.9382 7.46347 21.7283 7.31483 21 7.20378V6.76988H23.6512L25.3953 13.4954L27.0349 6.73372H29.686V7.16763H29.4419C29.0092 7.16861 28.8695 7.30501 28.814 7.81848V15.8819C28.8397 16.5374 28.9884 16.822 29.7209 16.822V17.2198H26.3721V16.7859H26.7558C27.1047 16.7859 27.2442 16.5328 27.2442 15.9904V8.61398L25.0814 17.2198H24.7674L22.4651 8.5055V15.8457C22.5346 16.5075 22.7057 16.7545 23.407 16.822V17.2198H21.0698Z" fill="white"/>
<path d="M30.6279 9.59027V6.69756H36.314V9.55411H35.8605V8.97557C35.8954 8.0716 35.3721 7.31226 34.8837 7.31226H34.2907V16.135L34.8837 16.7497H35.1279V17.1836H31.814V16.7497H32.093L32.686 16.135V7.31226H32.2326C31.5349 7.31226 31.121 7.87081 31.0465 8.90325V9.59027H30.6279Z" fill="white"/>
<path fill-rule="evenodd" clip-rule="evenodd" d="M37.2209 6.69756H42.4186V9.51795H42.0349C41.9882 7.90387 41.7657 7.35376 40.8488 7.31226H39.593V9.84338H40.2907C42.3964 10.045 42.9346 10.7456 43.0814 12.7361V14.2186C42.9419 16.4243 41.7558 17.1475 40.814 17.1475H37.2907V16.7497C37.7988 16.7121 38.093 16.5328 38.093 16.0627V8.10775C38.093 7.52921 37.9186 7.13147 37.4651 7.13147H37.2209V6.69756ZM39.593 10.4219V15.8819C39.6071 16.2348 39.6574 16.4086 40.0116 16.5689H40.2209C40.8488 16.4604 41.4419 15.448 41.4419 14.3632V12.8807C41.4419 11.3982 41.0006 10.4066 39.593 10.4219Z" fill="white"/>
<path fill-rule="evenodd" clip-rule="evenodd" d="M45.1394 11.1451V10.7835C45.4185 10.0965 46.3255 10.1326 46.3255 11.0728V12.5553C45.3662 13.329 44.8473 13.8174 44.3461 14.6291C44.2206 14.8324 44.1452 15.0653 44.123 15.3056C44.0301 16.3127 44.1548 16.8164 44.8604 17.2198C45.6974 17.2807 46.0348 17.0458 46.3952 16.135C46.5253 16.7722 46.6122 17.1089 47.0929 17.2198H47.5813C48.0815 16.9001 48.2377 16.6557 48.3487 16.135C48.3053 16.0147 48.2581 15.9576 48.1481 15.9023C48.1223 15.8893 48.0915 15.896 48.071 15.9169C47.9113 16.0797 47.851 16.0834 47.7208 15.8819V11.5461C47.7208 11.3516 47.7047 11.1565 47.658 10.9681C47.4676 10.2001 47.1778 9.88014 46.3952 9.69874H45.8371C45.0206 9.94212 44.686 10.2129 44.3022 10.9281C44.0904 11.7001 44.0376 12.0814 44.3022 12.483C44.6755 12.7588 44.8927 12.8271 45.3138 12.5553C45.7673 12.2299 45.5231 11.7236 45.1394 11.1451ZM46.3605 13.2429V15.4841C46.3605 15.9181 45.2791 15.8096 45.2791 15.3395V15.0907C45.2791 15.0162 45.2929 14.9421 45.3204 14.8733C45.6181 14.1285 45.8504 13.7406 46.3124 13.2233C46.3296 13.2041 46.3605 13.2167 46.3605 13.2429Z" fill="white"/>
<path d="M51.314 9.87954H49.0814V10.205C49.2209 10.205 49.5698 10.4942 49.5698 10.7112V16.2435C49.5698 16.4604 49.3954 16.7135 49.1163 16.7135V17.1113H51.314V16.7135C51.1395 16.7135 50.8954 16.4243 50.8954 16.2796V13.6762H52.2209V16.2796C52.2209 16.4604 51.9419 16.7135 51.8023 16.7135V17.0751H54V16.6774C53.8256 16.6774 53.5814 16.4604 53.5814 16.2435V10.7112C53.5814 10.4581 53.7558 10.2773 54 10.2773V9.84338H51.8023V10.2773C52.0814 10.2773 52.2209 10.5666 52.2209 10.7112V13.17H50.8954V10.7112C50.8954 10.4942 51.0698 10.2773 51.314 10.2773V9.87954Z" fill="white"/>
<path d="M56.7209 6.62524H54.8372V7.05915C55.1512 7.05915 55.3605 7.31226 55.3605 7.60153V16.1712C55.3605 16.3881 55.1861 16.6774 54.9419 16.6774V17.0751H57.1744V16.6774C56.9651 16.6774 56.7209 16.4604 56.7209 16.1712V14.1463L56.9651 13.7847L58.0116 16.2796C58.0116 16.5689 57.9768 16.6774 57.6977 16.6774V17.0751H60V16.6774C59.2964 16.3496 58.7312 14.3176 57.8721 12.3022C58.5667 11.1044 58.9576 10.3937 59.6163 10.2411V9.80722H57.6628V10.2411C57.9666 10.2965 58.0543 10.3697 58.1512 10.5304L58.1861 10.8558L56.7209 13.2785V6.62524Z" fill="white"/>
<path d="M17.307 15.7941C16.3374 16.9962 14.8916 17.759 13.2766 17.759C10.4631 17.759 8.16306 15.444 8 12.5241C8.22375 12.3142 10.7058 13.3132 13.0604 14.2609C15.0321 15.0546 16.9145 15.8122 17.307 15.7941Z" fill="white"/>
<path d="M10.1648 7.69166C11.0378 7.02101 12.1133 6.62524 13.2766 6.62524C15.9187 6.62524 18.1081 8.66677 18.5 11.3337C17.9848 11.7178 15.564 10.4371 12.1596 8.63611C11.5729 8.32571 10.9569 7.99985 10.3164 7.66439C10.2654 7.67344 10.2148 7.68253 10.1648 7.69166Z" fill="white"/>
<path d="M8.11562 11.4246C7.53672 11.1655 7.46088 11.2653 7.76417 11.86C6.9151 10.904 6.67732 10.4941 6.87689 10.354C7.13709 10.1714 7.49087 10.3624 7.78202 10.4854L17.218 14.4728C17.5608 14.6218 17.7265 14.4459 18.0263 14.1825C17.6503 14.859 17.4418 15.2595 16.972 15.0534L8.11562 11.4246Z" fill="white"/>
<path d="M6.56939 9.20474C6.02984 9.04196 6.09575 9.35579 6.35852 10.0757C5.57017 8.91847 5.18845 8.26556 5.47726 8.06542C5.73601 7.8861 6.08219 8.07316 6.36753 8.2025L17.4641 13.2327C17.9162 13.4515 18.1107 13.386 18.3779 13.015C18.2519 13.8291 18.0908 14.1457 17.2884 13.9222L6.56939 9.20474Z" fill="white"/>
<path d="M5.40976 7.06377C4.75685 6.73966 4.85017 7.08379 5.12861 7.82581C4.08178 6.39894 3.75291 5.75401 4.18502 5.60109C4.49183 5.49251 4.82246 5.64663 5.11778 5.78508L17.6751 11.6723C18.1386 11.935 18.2862 11.7968 18.4834 11.382C18.5395 12.3541 18.4847 12.761 17.8157 12.5795L5.40976 7.06377Z" fill="white"/>
</svg>
