<svg width="64" height="24" viewBox="0 0 64 24" fill="none" xmlns="http://www.w3.org/2000/svg">
<path d="M22.779 6.00012V6.00568C22.7741 6.00568 21.2161 6.00012 20.8006 7.67277C20.4198 9.20649 19.3465 13.439 19.3168 13.5557H19.02C19.02 13.5557 17.922 9.22872 17.5362 7.66721C17.1208 5.99456 15.5578 6.00012 15.5578 6.00012H12V18.7219H15.5595V11.1662H15.8562L17.9336 18.7218H20.4049L22.4823 11.1717H22.779V18.7218H26.3385V6.00012H22.779V6.00012ZM35.7821 6.00012C35.7821 6.00012 34.7385 6.1057 34.2488 7.33385L31.728 13.5557H31.4312V6.00012H27.8718V18.7219H31.2334C31.2334 18.7219 32.3265 18.6107 32.8162 17.3882L35.2875 11.1662H35.5843V18.7219H39.1438V6.00012H35.7821ZM40.7264 11.7775V18.7219H44.2859V14.6671H48.1422C49.8239 14.6671 51.2467 13.4613 51.7759 11.7794H40.7264V11.7775V11.7775Z" fill="white"/>
<path d="M48.1435 6.00012H40.2266C40.6222 8.42296 42.2395 10.366 44.3301 10.9995C44.8154 11.1472 45.316 11.222 45.8188 11.2219H51.9205C51.9749 10.9329 51.9997 10.6384 51.9997 10.3328C51.9997 7.9395 50.2736 6.00012 48.1435 6.00012V6.00012Z" fill="white"/>
</svg>
