<svg width="64" height="24" viewBox="0 0 64 24" fill="none" xmlns="http://www.w3.org/2000/svg">
<g clip-path="url(#clip0_5464_17616)">
<path fill-rule="evenodd" clip-rule="evenodd" d="M13.9135 7.35015C15.4452 8.85285 16.3087 10.8729 16.3087 13H8.1543" fill="white"/>
<path fill-rule="evenodd" clip-rule="evenodd" d="M8.1543 5.00006C10.3969 5.00006 12.4356 5.90015 13.9135 7.35015L8.1543 13" fill="white"/>
<path fill-rule="evenodd" clip-rule="evenodd" d="M0 5.00006H8.15411L8.15435 13" fill="white"/>
<path fill-rule="evenodd" clip-rule="evenodd" d="M0 9.57929V5.00006L8.15435 13H3.48687L0 9.57929Z" fill="white"/>
<path fill-rule="evenodd" clip-rule="evenodd" d="M13.9135 18.6501C15.4452 17.1474 16.3087 15.1274 16.3087 13.0001H8.1543" fill="white"/>
<path fill-rule="evenodd" clip-rule="evenodd" d="M8.1543 21.0001C10.3969 21.0001 12.4356 20.1003 13.9135 18.65L8.1543 13.0002" fill="white"/>
<path fill-rule="evenodd" clip-rule="evenodd" d="M0 21.0001H8.15411L8.15435 13.0002" fill="white"/>
<path fill-rule="evenodd" clip-rule="evenodd" d="M0 16.4209V21.0001L8.15435 13.0002H3.48687L0 16.4209Z" fill="white"/>
<path fill-rule="evenodd" clip-rule="evenodd" d="M5.81692 12.8035L6.7446 11.8933L4.79109 9.97699H1.67578L4.55527 12.8035" fill="#303138"/>
<path fill-rule="evenodd" clip-rule="evenodd" d="M7.95419 10.7061L7.02651 11.616L5.07324 9.69963V6.64346L7.95419 9.46827" fill="#303138"/>
<path fill-rule="evenodd" clip-rule="evenodd" d="M7.95419 15.2941L7.02651 14.3842L5.07324 16.3005V19.3569L7.95419 16.5319" fill="#303138"/>
<path fill-rule="evenodd" clip-rule="evenodd" d="M5.81692 13.1961L6.7446 14.1063L4.79109 16.0228H1.67578L4.55527 13.1961" fill="#303138"/>
<path fill-rule="evenodd" clip-rule="evenodd" d="M10.4919 13.1961L9.56445 14.1063L11.5177 16.0228H14.633L11.7535 13.1961" fill="#303138"/>
<path fill-rule="evenodd" clip-rule="evenodd" d="M8.35449 15.2941L9.28218 14.3842L11.2354 16.3005V19.3569L8.35449 16.5319" fill="#303138"/>
<path fill-rule="evenodd" clip-rule="evenodd" d="M8.35449 10.7061L9.28218 11.616L11.2354 9.69963V6.64346L8.35449 9.46827" fill="#303138"/>
<path fill-rule="evenodd" clip-rule="evenodd" d="M10.4919 12.8035L9.56445 11.8933L11.5177 9.97699H14.633L11.7535 12.8035" fill="#303138"/>
<path fill-rule="evenodd" clip-rule="evenodd" d="M20.3848 6.65957H24.3562V7.54912H21.5165V8.54214H22.8802C23.4752 8.54214 23.9285 8.66405 24.2403 8.90763C24.5518 9.15146 24.7078 9.50282 24.7078 9.96292C24.7078 10.4455 24.5342 10.8201 24.1875 11.0865C23.8406 11.3538 23.3512 11.4869 22.7186 11.4869H20.3848V6.65957ZM22.6552 10.6594C22.9457 10.6594 23.1683 10.6031 23.3231 10.4903C23.4776 10.3778 23.555 10.2135 23.555 9.99741C23.555 9.57419 23.255 9.36271 22.6552 9.36271H21.5165V10.6594" fill="white"/>
<path fill-rule="evenodd" clip-rule="evenodd" d="M28.9175 6.83873C29.2549 7.01357 29.5174 7.27105 29.7049 7.61115C29.8921 7.9515 29.9858 8.36274 29.9858 8.8456V11.4869H28.8472V10.3282H26.5983V11.4869H25.4736V8.8456C25.4736 8.36274 25.5671 7.9515 25.7544 7.61115C25.9419 7.27105 26.2043 7.01357 26.5417 6.83873C26.8793 6.66412 27.2751 6.57694 27.7299 6.57694C28.1842 6.57694 28.5802 6.66412 28.9175 6.83873M28.8472 9.43192V8.74213C28.8472 8.34238 28.7464 8.04012 28.545 7.83534C28.3434 7.63079 28.0694 7.52852 27.7225 7.52852C27.3715 7.52852 27.0961 7.63079 26.8969 7.83534C26.6974 8.04012 26.5983 8.34238 26.5983 8.74213V9.43192" fill="white"/>
<path fill-rule="evenodd" clip-rule="evenodd" d="M35.6516 6.65957V11.4869H34.5128V9.50761H32.2778V11.4869H31.1387V6.65957H32.2778V8.56274H34.5128V6.65957" fill="white"/>
<path fill-rule="evenodd" clip-rule="evenodd" d="M38.7223 9.5421H37.935V11.4869H36.8037V6.65981H37.935V8.61112H38.7506L40.044 6.65981H41.2459L39.6361 8.99074L41.2947 11.4869H40.0013" fill="white"/>
<path fill-rule="evenodd" clip-rule="evenodd" d="M25.4955 18.4423V20.3524H24.4412V19.3522H20.8422V20.3524H19.7881L19.7952 18.4423H20.3852V16.6354C20.3852 16.1713 20.4792 15.7744 20.6667 15.4458C20.8539 15.1174 21.1176 14.8676 21.4574 14.6973C21.7973 14.5275 22.1918 14.4425 22.6419 14.4425C23.0914 14.4425 23.4866 14.5275 23.8262 14.6973C24.166 14.8676 24.4297 15.1174 24.6169 15.4458C24.8044 15.7744 24.8982 16.1713 24.8982 16.6354V18.4423H25.4955ZM23.7522 18.4423V16.5389C23.7522 16.1619 23.6551 15.8767 23.461 15.6836C23.2662 15.4908 22.9932 15.3938 22.6419 15.3938C22.295 15.3938 22.0219 15.4908 21.8229 15.6836C21.6237 15.8767 21.5241 16.1619 21.5241 16.5389V18.4423" fill="white"/>
<path fill-rule="evenodd" clip-rule="evenodd" d="M29.7056 14.7013C30.0433 14.8761 30.3057 15.1338 30.4932 15.4737C30.6807 15.8141 30.7742 16.2253 30.7742 16.7082V19.3495H29.6356V18.1907H27.3864V19.3495H26.2617V16.7082C26.2617 16.2253 26.3555 15.8141 26.5425 15.4737C26.7302 15.1338 26.9924 14.8761 27.33 14.7013C27.6672 14.5267 28.0631 14.4395 28.518 14.4395C28.9725 14.4395 29.3685 14.5267 29.7056 14.7013M29.6356 17.2945V16.6047C29.6356 16.2049 29.5347 15.9024 29.3333 15.6979C29.1317 15.4936 28.8578 15.3911 28.5109 15.3911C28.1596 15.3911 27.8842 15.4936 27.6852 15.6979C27.4858 15.9024 27.3864 16.2049 27.3864 16.6047V17.2945" fill="white"/>
<path fill-rule="evenodd" clip-rule="evenodd" d="M31.9277 14.5221H35.8992V15.4119H33.0595V16.4047H34.4232C35.0177 16.4047 35.4715 16.5266 35.7832 16.7702C36.0947 17.014 36.2505 17.3656 36.2505 17.8255C36.2505 18.3083 36.0772 18.6827 35.7305 18.9493C35.3834 19.2163 34.8944 19.3495 34.2614 19.3495H31.9277V14.5221ZM34.1981 18.522C34.4886 18.522 34.7113 18.4659 34.8658 18.3529C35.0206 18.2403 35.0977 18.076 35.0977 17.8602C35.0977 17.437 34.7979 17.2255 34.1981 17.2255H33.0595V18.522" fill="white"/>
<path fill-rule="evenodd" clip-rule="evenodd" d="M40.781 14.9666C41.1673 15.2978 41.3609 15.7622 41.3609 16.3593C41.3609 16.9248 41.1861 17.3686 40.837 17.6908C40.4879 18.0125 39.9996 18.1736 39.3717 18.1736C39.1654 18.1736 38.965 18.1526 38.7704 18.1111C38.5761 18.0697 38.3664 18.001 38.1413 17.9044V19.3456H37.0166V16.4906C37.0166 15.8422 37.2007 15.3436 37.5686 14.9941C37.9362 14.6447 38.4694 14.4701 39.1681 14.4701C39.8565 14.4701 40.3941 14.6353 40.781 14.9666ZM39.9442 17.0839C40.1248 16.9184 40.2149 16.6834 40.2149 16.3802C40.2149 16.0719 40.1248 15.8331 39.9442 15.6631C39.7638 15.4933 39.5148 15.408 39.1954 15.408C38.8632 15.408 38.6042 15.5021 38.4191 15.6909C38.2338 15.8794 38.1413 16.1438 38.1413 16.4837V17.0218C38.2822 17.1181 38.4426 17.194 38.6227 17.2494C38.8031 17.3045 38.9872 17.332 39.1747 17.332C39.5072 17.332 39.7638 17.2494 39.9442 17.0839" fill="white"/>
<path fill-rule="evenodd" clip-rule="evenodd" d="M45.5699 14.6914C45.9075 14.866 46.1697 15.1237 46.3572 15.4638C46.5444 15.8042 46.6384 16.2152 46.6384 16.6983V19.3394H45.4996V18.1808H43.2504V19.3394H42.126V16.6983C42.126 16.2152 42.2195 15.8042 42.4067 15.4638C42.5945 15.1237 42.8567 14.866 43.1943 14.6914C43.5314 14.5168 43.9271 14.4294 44.3822 14.4294C44.8365 14.4294 45.2327 14.5168 45.5699 14.6914ZM45.4996 17.2843V16.5945C45.4996 16.1948 45.399 15.8925 45.1976 15.6878C44.9957 15.4835 44.722 15.3812 44.3749 15.3812C44.0236 15.3812 43.7482 15.4835 43.5492 15.6878C43.35 15.8925 43.2504 16.1948 43.2504 16.5945V17.2843" fill="white"/>
<path fill-rule="evenodd" clip-rule="evenodd" d="M47.792 14.512H51.7637V15.4018H48.9238V16.3946H50.2877C50.8824 16.3946 51.3357 16.5165 51.6473 16.7603C51.959 17.0039 52.1148 17.3555 52.1148 17.8153C52.1148 18.2982 51.9414 18.6728 51.5948 18.9391C51.2479 19.2062 50.7581 19.3394 50.1258 19.3394H47.792V14.512ZM50.0624 18.5118C50.3529 18.5118 50.5753 18.4558 50.7301 18.3427C50.8848 18.2304 50.9622 18.0659 50.9622 17.8501C50.9622 17.4269 50.6622 17.2154 50.0624 17.2154H48.9238V18.5118" fill="white"/>
<path fill-rule="evenodd" clip-rule="evenodd" d="M56.7083 16.4151C57.0528 16.7142 57.2246 17.1322 57.2246 17.6699C57.2246 18.2313 57.0327 18.6655 56.6487 18.9738C56.2642 19.2815 55.7184 19.4353 55.0109 19.4353C54.3124 19.4353 53.7832 19.2815 53.4223 18.9738C53.0613 18.6655 52.8809 18.2128 52.8809 17.6153V14.5121H54.0056V16.2496C54.4506 16.0608 54.8844 15.9669 55.306 15.9669C55.8963 15.9669 56.3641 16.1161 56.7083 16.4151M55.8121 18.3391C55.9901 18.1872 56.0789 17.9762 56.0789 17.7048C56.0789 17.4246 55.9842 17.2071 55.7943 17.0529C55.6046 16.8989 55.3531 16.822 55.0387 16.822C54.8651 16.822 54.6874 16.8488 54.5048 16.9013C54.3217 16.9542 54.1555 17.0287 54.0056 17.1254V17.5875C54.0056 17.9003 54.0971 18.1417 54.2797 18.3115C54.4623 18.4818 54.7226 18.5668 55.0597 18.5668C55.3832 18.5668 55.6339 18.4909 55.8121 18.3391M58.9679 19.339H57.8435V14.5119H58.9679" fill="white"/>
<path fill-rule="evenodd" clip-rule="evenodd" d="M64 15.4224H62.4254V19.3394H61.3007V15.4224H59.7334V14.5122H64" fill="white"/>
</g>
<defs>
<clipPath id="clip0_5464_17616">
<rect width="64" height="24" fill="white"/>
</clipPath>
</defs>
</svg>
