<svg width="64" height="24" viewBox="0 0 64 24" fill="none" xmlns="http://www.w3.org/2000/svg">
<path d="M28.2463 9.60198H25.875C28.7906 10.7548 28.3241 10.4945 28.9461 13.9902H30.0734L31.434 11.4242L31.9394 13.9902H33.1056L35.3603 9.60198C33.7276 9.60198 34.0775 9.60198 32.7169 12.2052L32.2115 9.60198C30.7732 9.45323 31.0453 10.1598 29.8791 12.2052C29.5681 10.3457 29.4206 9.78629 28.2463 9.60198Z" fill="white"/>
<path fill-rule="evenodd" clip-rule="evenodd" d="M36.6432 12.0936C36.7987 13.0605 38.0427 13.2836 39.5588 12.6886L39.4033 13.6927C37.7317 14.6596 35.1271 13.8786 35.3992 11.7961C35.9435 8.33758 40.8028 9.00697 39.9475 12.1308L36.6432 12.0936ZM36.7209 11.3498H38.7813C39.0534 10.5689 37.3818 9.82511 36.7209 11.3498Z" fill="white"/>
<path fill-rule="evenodd" clip-rule="evenodd" d="M42.902 7.89132C41.8465 7.81139 41.5433 8.00868 41.4636 8.74665L40.5695 13.953H41.8912L41.969 13.4324C43.6795 14.8083 45.4288 13.8414 45.9342 12.0192C46.2063 9.8623 44.0682 8.74665 42.5132 10.0854L42.902 7.89132ZM42.2847 11.4408L42.1726 12.1054C42.1427 12.2831 42.2109 12.467 42.3617 12.5746C45.0903 14.5222 45.5184 9.0612 42.4956 11.1126C42.3832 11.1888 42.3066 11.3106 42.2847 11.4408Z" fill="white"/>
<path fill-rule="evenodd" clip-rule="evenodd" d="M47.217 9.60199L46.2452 15.6637C47.0558 15.7482 47.4499 15.7132 47.6446 14.9571L47.8779 13.3952C52.4268 16.7714 53.5805 7.06446 48.461 10.0854L48.5776 9.60199H47.217ZM48.1927 11.4693L48.1186 12.0367C48.0896 12.2582 48.1759 12.4835 48.3651 12.6141C51.0832 14.4906 51.3111 9.09811 48.456 11.0354C48.3082 11.1357 48.2152 11.2972 48.1927 11.4693Z" fill="white"/>
<path fill-rule="evenodd" clip-rule="evenodd" d="M53.2814 9.78792L53.1259 10.8292C54.7586 10.197 55.886 10.5689 55.6527 11.5358C54.2921 10.9036 52.3484 11.1267 52.2707 12.7258C52.2707 14.2505 54.4476 14.4365 55.4584 13.5067C55.6139 14.0646 56.4691 14.1761 57.13 13.8786L57.2855 13.0233C56.7737 13.1177 56.6708 12.9786 56.7412 12.4655C57.6353 9.78792 55.9637 8.96978 53.2814 9.78792ZM55.4876 12.3533L55.464 12.6246C55.4604 12.6654 55.4376 12.7046 55.4036 12.7295C53.3729 14.2136 52.6269 11.2531 55.385 12.2022C55.4499 12.2246 55.4933 12.2875 55.4876 12.3533Z" fill="white"/>
<path d="M59.2681 9.63917H57.8686L59.2292 13.8043C58.6461 14.7711 58.1188 14.8123 57.3632 14.5108L57.2077 15.5893C58.3351 15.9612 59.2292 15.7009 60.0067 14.6596L63 9.63917H61.9893C61.6988 9.67776 61.5606 9.75449 61.3673 10.0111L60.0456 12.4283L59.2681 9.63917Z" fill="white"/>
<path d="M7.35795 10.6695L4.33523 5.86563L9.58523 8.60012L7.35795 10.6695Z" fill="white"/>
<path d="M12.608 7.19592L11.0568 1.87476L9.46591 7.19592H12.608Z" fill="white"/>
<path d="M14.7557 10.6695L12.5284 8.63707L17.7386 5.86563L14.7557 10.6695Z" fill="white"/>
<path d="M16.267 13.4779V10.5217L23.625 11.9998L16.267 13.4779Z" fill="white"/>
<path d="M14.7557 13.33L12.5284 15.3624L17.7386 18.2078L14.7557 13.33Z" fill="white"/>
<path d="M12.608 16.8036H9.46591L11.0966 22.1248L12.608 16.8036Z" fill="white"/>
<path d="M9.58523 15.4363L7.39773 13.404L4.41477 18.1708L9.58523 15.4363Z" fill="white"/>
<path d="M5.84659 13.4779V10.5586L0 11.9998L5.84659 13.4779Z" fill="white"/>
</svg>
