<svg width="64" height="24" viewBox="0 0 64 24" fill="none" xmlns="http://www.w3.org/2000/svg">
<path d="M29.6409 19.75H26.1322L28.3251 5.25893H31.8342L29.6409 19.75ZM23.1805 5.25893L19.8354 15.226L19.4396 13.0797L19.4399 13.0805L18.2593 6.56369C18.2593 6.56369 18.1166 5.25893 16.5949 5.25893H11.0649L11 5.5043C11 5.5043 12.6911 5.88263 14.6702 7.16063L17.7186 19.7504H21.3744L26.9566 5.25893H23.1805V5.25893ZM50.7782 19.75H54L51.191 5.25855H48.3705C47.068 5.25855 46.7508 6.33848 46.7508 6.33848L41.5178 19.75H45.1754L45.9069 17.5975H50.3673L50.7782 19.75ZM46.9173 14.624L48.7609 9.2011L49.7981 14.624H46.9173ZM41.7922 8.7437L42.2929 5.63183C42.2929 5.63183 40.7478 5 39.1371 5C37.3959 5 33.261 5.81828 33.261 9.79727C33.261 13.541 38.114 13.5875 38.114 15.5539C38.114 17.5203 33.761 17.168 32.3244 15.928L31.8028 19.1817C31.8028 19.1817 33.3695 20 35.7632 20C38.1576 20 41.7698 18.6669 41.7698 15.0388C41.7698 11.271 36.8732 10.9202 36.8732 9.28211C36.8735 7.64362 40.2907 7.8541 41.7922 8.7437V8.7437Z" fill="white"/>
</svg>
