<svg width="64" height="24" viewBox="0 0 64 24" fill="none" xmlns="http://www.w3.org/2000/svg">
<path d="M7 17.1594V6.51434H9.04624V10.4958H9.13103C9.23655 10.3018 9.3854 10.0956 9.57759 9.8773C9.76978 9.65552 10.0298 9.46667 10.3576 9.31074C10.6855 9.15134 11.1038 9.07164 11.6125 9.07164C12.2833 9.07164 12.8881 9.22931 13.427 9.54464C13.9697 9.85651 14.3993 10.3191 14.7158 10.9324C15.0361 11.5423 15.1963 12.2908 15.1963 13.1779C15.1963 14.0546 15.0399 14.7996 14.7271 15.4129C14.4143 16.0263 13.9885 16.4941 13.4496 16.8163C12.9107 17.1386 12.3003 17.2997 11.6182 17.2997C11.1207 17.2997 10.7081 17.2235 10.3803 17.071C10.0524 16.9185 9.78862 16.7349 9.58889 16.5201C9.39294 16.3017 9.24032 16.0956 9.13103 15.9015H9.01233V17.1594H7ZM9.00667 13.1675C9.00667 13.6838 9.08581 14.136 9.24408 14.5241C9.40613 14.9122 9.63788 15.2154 9.93935 15.4337C10.2446 15.6486 10.6139 15.756 11.0473 15.756C11.4995 15.756 11.8782 15.6451 12.1834 15.4233C12.4887 15.1981 12.7186 14.8914 12.8731 14.5033C13.0313 14.1118 13.1105 13.6665 13.1105 13.1675C13.1105 12.672 13.0332 12.2319 12.8787 11.8473C12.7242 11.4626 12.4943 11.1611 12.1891 10.9428C11.8838 10.7245 11.5032 10.6154 11.0473 10.6154C10.6101 10.6154 10.2389 10.7211 9.9337 10.9324C9.62846 11.1438 9.3967 11.4401 9.23843 11.8213C9.08393 12.2024 9.00667 12.6512 9.00667 13.1675Z" fill="white"/>
<path d="M20.7796 17.3153C19.9091 17.3153 19.1573 17.149 18.5242 16.8163C17.8949 16.4802 17.4107 16.0055 17.0715 15.3921C16.7324 14.7753 16.5628 14.0494 16.5628 13.2143C16.5628 12.393 16.7324 11.6723 17.0715 11.052C17.4145 10.4283 17.893 9.94313 18.5073 9.59662C19.1215 9.24663 19.8432 9.07164 20.6722 9.07164C21.2073 9.07164 21.7123 9.15134 22.1871 9.31074C22.6657 9.46667 23.0878 9.70923 23.4533 10.0384C23.8226 10.3676 24.1128 10.7869 24.3238 11.2963C24.5348 11.8022 24.6404 12.4051 24.6404 13.1051V13.6821H17.5237V12.4138H22.6789C22.6751 12.0534 22.5904 11.7329 22.4245 11.4522C22.2587 11.1681 22.027 10.9446 21.7293 10.7817C21.4353 10.6188 21.0924 10.5374 20.7005 10.5374C20.2822 10.5374 19.9148 10.631 19.5982 10.8181C19.2817 11.0017 19.0349 11.2443 18.8577 11.5458C18.6844 11.8438 18.5958 12.1712 18.5921 12.5282V13.6353C18.5921 14.0996 18.6844 14.4981 18.8691 14.8308C19.0537 15.16 19.3118 15.4129 19.6435 15.5897C19.9751 15.7629 20.3632 15.8495 20.8079 15.8495C21.1056 15.8495 21.375 15.8114 21.6162 15.7352C21.8574 15.6555 22.0665 15.5394 22.2437 15.3869C22.4208 15.2345 22.5546 15.0456 22.645 14.8204L24.5556 15.0179C24.435 15.4822 24.2051 15.8877 23.866 16.2342C23.5306 16.5772 23.101 16.844 22.5772 17.0346C22.0534 17.2218 21.4542 17.3153 20.7796 17.3153Z" fill="white"/>
<path d="M25.8655 17.1594V6.51434H30.2067C31.096 6.51434 31.8421 6.6668 32.4451 6.97174C33.0518 7.27668 33.5097 7.69596 33.8187 8.2296C34.1315 8.75977 34.2878 9.36272 34.2878 10.0384C34.2878 10.7211 34.1315 11.3275 33.8187 11.8576C33.5059 12.3878 33.0443 12.8054 32.4338 13.1103C31.8233 13.4118 31.0715 13.5625 30.1784 13.5625H27.3012V11.9772H29.8958C30.4158 11.9772 30.8416 11.894 31.1733 11.7277C31.5049 11.5614 31.7498 11.3327 31.9081 11.0416C32.0701 10.7505 32.1512 10.4161 32.1512 10.0384C32.1512 9.66072 32.0701 9.32806 31.9081 9.04045C31.7498 8.75284 31.503 8.52934 31.1676 8.36994C30.836 8.20708 30.4083 8.12565 29.8845 8.12565H27.9626V17.1594H25.8655Z" fill="white"/>
<path d="M38.362 17.3205C37.8118 17.3205 37.3162 17.2304 36.8753 17.0502C36.4382 16.8666 36.0915 16.5963 35.8352 16.2394C35.5828 15.8825 35.4565 15.4424 35.4565 14.9191C35.4565 14.4687 35.547 14.0962 35.7278 13.8016C35.9087 13.5071 36.1556 13.2714 36.4683 13.0947C36.7811 12.918 37.1335 12.7846 37.5254 12.6945C37.921 12.6009 38.3299 12.5334 38.752 12.4918C39.2607 12.4433 39.6734 12.4 39.9899 12.3618C40.3064 12.3203 40.5363 12.2579 40.6795 12.1747C40.8265 12.0881 40.9 11.9547 40.9 11.7745V11.7433C40.9 11.3517 40.7737 11.0485 40.5212 10.8337C40.2688 10.6188 39.9051 10.5114 39.4303 10.5114C38.9291 10.5114 38.5315 10.6119 38.2376 10.8129C37.9474 11.0139 37.7515 11.2512 37.6497 11.525L35.7391 11.2755C35.8899 10.7904 36.1386 10.3849 36.4853 10.0592C36.832 9.73003 37.2559 9.484 37.7571 9.32113C38.2583 9.15481 38.8123 9.07164 39.419 9.07164C39.8373 9.07164 40.2537 9.11669 40.6682 9.20678C41.0827 9.29688 41.4615 9.44588 41.8044 9.65379C42.1473 9.85824 42.4224 10.1372 42.6297 10.4906C42.8407 10.8441 42.9462 11.2859 42.9462 11.8161V17.1594H40.9791V16.0626H40.9113C40.7869 16.2844 40.6117 16.4923 40.3856 16.6864C40.1632 16.877 39.8825 17.0312 39.5433 17.149C39.208 17.2633 38.8142 17.3205 38.362 17.3205ZM38.8933 15.9379C39.3041 15.9379 39.6602 15.8634 39.9616 15.7144C40.2631 15.5619 40.4949 15.3609 40.6569 15.1115C40.8227 14.862 40.9056 14.5899 40.9056 14.2954V13.3546C40.8416 13.4031 40.7323 13.4482 40.5778 13.4898C40.427 13.5313 40.2575 13.5677 40.069 13.5989C39.8806 13.6301 39.6941 13.6578 39.5094 13.6821C39.3248 13.7063 39.1646 13.7271 39.029 13.7444C38.7237 13.7826 38.4505 13.8449 38.2093 13.9316C37.9682 14.0182 37.7779 14.1395 37.6384 14.2954C37.499 14.4479 37.4293 14.6454 37.4293 14.888C37.4293 15.2345 37.5668 15.4961 37.8419 15.6728C38.117 15.8495 38.4675 15.9379 38.8933 15.9379Z" fill="white"/>
<path d="M45.0038 17.1594V9.1756H47.05V17.1594H45.0038ZM46.0325 8.04248C45.7085 8.04248 45.4296 7.94372 45.1959 7.74621C44.9623 7.54523 44.8455 7.3044 44.8455 7.02372C44.8455 6.73957 44.9623 6.49874 45.1959 6.30123C45.4296 6.10025 45.7085 5.99976 46.0325 5.99976C46.3604 5.99976 46.6392 6.10025 46.8691 6.30123C47.1028 6.49874 47.2196 6.73957 47.2196 7.02372C47.2196 7.3044 47.1028 7.54523 46.8691 7.74621C46.6392 7.94372 46.3604 8.04248 46.0325 8.04248Z" fill="white"/>
<path d="M52.3762 17.2997C51.6941 17.2997 51.0836 17.1386 50.5447 16.8163C50.0058 16.4941 49.58 16.0263 49.2672 15.4129C48.9545 14.7996 48.7981 14.0546 48.7981 13.1779C48.7981 12.2908 48.9563 11.5423 49.2729 10.9324C49.5932 10.3191 50.0247 9.85651 50.5673 9.54464C51.11 9.22931 51.7148 9.07164 52.3818 9.07164C52.8906 9.07164 53.3088 9.15134 53.6367 9.31074C53.9646 9.46667 54.2246 9.65552 54.4168 9.8773C54.6089 10.0956 54.7578 10.3018 54.8633 10.4958H54.9481V6.51434H57V17.1594H54.9877V15.9015H54.8633C54.7578 16.0956 54.6052 16.3017 54.4055 16.5201C54.2057 16.7349 53.9419 16.9185 53.6141 17.071C53.2862 17.2235 52.8736 17.2997 52.3762 17.2997ZM52.9471 15.756C53.3804 15.756 53.7498 15.6486 54.055 15.4337C54.3602 15.2154 54.592 14.9122 54.7503 14.5241C54.9085 14.136 54.9877 13.6838 54.9877 13.1675C54.9877 12.6512 54.9085 12.2024 54.7503 11.8213C54.5958 11.4401 54.3659 11.1438 54.0606 10.9324C53.7592 10.7211 53.388 10.6154 52.9471 10.6154C52.4911 10.6154 52.1105 10.7245 51.8053 10.9428C51.5 11.1611 51.2701 11.4626 51.1156 11.8473C50.9611 12.2319 50.8839 12.672 50.8839 13.1675C50.8839 13.6665 50.9611 14.1118 51.1156 14.5033C51.2739 14.8914 51.5057 15.1981 51.8109 15.4233C52.1199 15.6451 52.4986 15.756 52.9471 15.756Z" fill="white"/>
</svg>
